<?xml version="1.0" encoding="UTF-8"?>
<!DOCTYPE svg PUBLIC "-//W3C//DTD SVG 1.1//EN" "http://www.w3.org/Graphics/SVG/1.1/DTD/svg11.dtd">
<!-- Creator: CorelDRAW -->
<svg xmlns="http://www.w3.org/2000/svg" xml:space="preserve" width="8.4754mm" height="4.5136mm" style="shape-rendering:geometricPrecision; text-rendering:geometricPrecision; image-rendering:optimizeQuality; fill-rule:evenodd; clip-rule:evenodd"
viewBox="0 0 0.494196 0.263186"
 xmlns:xlink="http://www.w3.org/1999/xlink">
 <defs>
  <style type="text/css">
   <![CDATA[
    .fil0 {fill:#2350A0;fill-rule:nonzero}
   ]]>
  </style>
 </defs>
 <g id="Layer_x0020_1">
  <metadata id="CorelCorpID_0Corel-Layer"/>
  <path class="fil0" d="M0.0562337 0.186503l5.24785e-005 0.000174928c0.000787178,0.00245483 0.00152771,0.00458313 0.00213413,0.00639072 0.000518954,0.00148106 0.00098543,0.00288632 0.00148106,0.0041458l0.000384843 0.0010554c0.000647235,0.00169098 0.0012245,0.00315454 0.00178427,0.00434989l0 0c0.000524785,0.00119534 0.0010554,0.00215745 0.00152188,0.00292714l8.16333e-005 0.000145774 8.74642e-005 0.00012245 0.000495631 0.000647235 5.24785e-005 8.16333e-005c0.00114287,0.00134695 0.00230906,0.00254229 0.00353355,0.00355688 0.00108456,0.000962106 0.00222159,0.00178427 0.00341694,0.00248981l0.000355688 0.000204083c0.00148689,0.000874642 0.00300877,0.00152188 0.00451898,0.00195337 0.00158019,0.000437321 0.00311956,0.000641404 0.00469974,0.000641404l0.00271722 0 0.000291547 -2.91547e-005 0.00148689 -0.000204083 0.000204083 -2.91547e-005 0.000524785 -0.000145774 0 0 0.000874642 -0.000209914 0.000151605 -2.33238e-005 0.00195337 -0.00055394c0.000379012,-0.00012245 0.000781347,-0.000262393 0.00116619,-0.000437321 0.000991261,-0.000413997 0.00192421,-0.000851318 0.00282801,-0.0013761 0.0013761,-0.000752192 0.00262393,-0.00160351 0.00373764,-0.00256562 0.00119534,-0.00102042 0.0022799,-0.0021283 0.00321285,-0.0033528 0.000962106,-0.0012245 0.00175512,-0.00257145 0.00241984,-0.00400003l5.24785e-005 -0.00012245 0.000233238 -0.000588926 2.91547e-005 -5.24785e-005c0.00555106,-0.0158777 0.0105948,-0.0302451 0.0151255,-0.0431432l0.00236153 -0.00674641 0.000524785 -0.00155103c0.0030904,-0.00878724 0.0061225,-0.0174579 0.00925371,-0.0263267 0.00303792,-0.00861231 0.00534115,-0.0150963 0.00689218,-0.0194695 0.00155103,-0.00432073 0.00230906,-0.00653649 0.00236737,-0.0065948l8.16333e-005 -0.000233238 0.000466476 -0.00124782 5.83095e-005 -0.000233238c0.000466476,-0.00195337 0.000932952,-0.00358603 0.00139943,-0.00487467 0.00012245,-0.000355688 0.000262393,-0.00067639 0.000384843,-0.000962106l0.0342976 0.0967004c0.000781347,0.00262393 0.00152188,0.00495631 0.00222159,0.00703212 0.000758023,0.00218661 0.00145774,0.00405251 0.0021283,0.00566185l0.000758023 0.00180759 2.91547e-005 -2.33238e-005c0.000518954,0.00110788 0.0010554,0.0021283 0.00155103,0.00303209 0.000437321,0.000758023 0.000903797,0.00145774 0.00134112,0.00207582l-2.91547e-005 2.91547e-005 0.000443152 0.000548109c0.000233238,0.000262393 0.000437321,0.00055394 0.000670559,0.000787178l2.91547e-005 5.24785e-005c0.000822164,0.000962106 0.00172013,0.00187173 0.00279886,0.0026939 0.00102042,0.000822164 0.00215745,0.00152188 0.00342277,0.0021283 0.00108456,0.000518954 0.00225075,0.000991261 0.00349857,0.00139943 0.00125365,0.000413997 0.00257145,0.000728869 0.00394172,0.000991261l0.000151605 2.91547e-005 0.00111371 0.000116619 0.000204083 0 0.00271722 0 0 0 0.000233238 0 0.00134695 -0.000174928 0.000204083 -2.91547e-005 0.000204083 -5.24785e-005 0.00324201 -0.000758023 0.000151605 -2.91547e-005 0.000752192 -0.000233238 0.00012245 -2.91547e-005c0.000320702,-0.00012245 0.000647235,-0.000262393 0.000932952,-0.000379012 0.00119534,-0.000495631 0.00230906,-0.00108456 0.00335863,-0.00176095 0.00131196,-0.000845488 0.00253646,-0.00180759 0.00367933,-0.00288632 0.00110788,-0.00110788 0.0021283,-0.00230322 0.00300294,-0.00362102 0.000880473,-0.00128864 0.0016385,-0.00271722 0.00230906,-0.00426242l2.91547e-005 -5.24785e-005 0.00012245 -0.000384843 2.91547e-005 -5.24785e-005 0.0277028 -0.0791085 0.0133062 -0.0380294 0.0122683 -0.0350265 5.24785e-005 -0.000209914c0.00131779,-0.00346941 0.00239069,-0.00644903 0.00327116,-0.00892718 0.000932952,-0.00271722 0.00172013,-0.00498546 0.0022799,-0.00682804 0.000728869,-0.00225075 0.00128864,-0.00420411 0.00163267,-0.00583678 0.000408166,-0.00172013 0.000588926,-0.0030904 0.000588926,-0.00411665 0,-0.000588926 -2.91547e-005,-0.00125365 -8.74642e-005,-0.00199418 -5.24785e-005,-0.000728869 -0.000145774,-0.00139943 -0.000256562,-0.00201751 -0.00012245,-0.000641404 -0.000262393,-0.00128864 -0.000443152,-0.00192421 -0.000145774,-0.00061225 -0.000379012,-0.00124782 -0.000641404,-0.00198835l0 -5.24785e-005 -0.000204083 -0.000472307 -2.91547e-005 -8.16333e-005c-0.000991261,-0.00218661 -0.00218661,-0.0041458 -0.0035044,-0.00583678 -0.00137027,-0.00172013 -0.00292131,-0.0031837 -0.00461228,-0.00437904 -0.00178427,-0.00125365 -0.00370848,-0.00222742 -0.00581346,-0.002863 -0.00206999,-0.000641404 -0.00425659,-0.000962106 -0.00656565,-0.000962106 -0.00206999,0 -0.00402335,0.000262393 -0.00591841,0.000758023l-0.000443152 0.00012245c-0.000932952,0.000233238 -0.00180759,0.00055394 -0.00268807,0.000932952 -0.0010554,0.000466476 -0.00204666,0.000991261 -0.00303792,0.00160934 -0.0017143,0.00110788 -0.00329449,0.00245483 -0.00466476,0.00402335 -0.0013761,0.00158019 -0.0026006,0.0033528 -0.00368516,0.00542861l-5.24785e-005 8.16333e-005 -0.000320702 0.000787178 -8.16333e-005 0.000145774 -0.0376796 0.106689 0 5.24785e-005 -0.000204083 0.000618081 -2.91547e-005 0.00012245c-0.000355688,0.00145774 -0.000699714,0.00265308 -0.0010554,0.00365017l-8.16333e-005 0.000291547c-0.00012245,-0.000233238 -0.000233238,-0.000495631 -0.000320702,-0.000758023 -0.000495631,-0.00116619 -0.000991261,-0.00262393 -0.00155103,-0.00432073l-0.00012245 -0.000291547 -0.00881639 -0.0253996 -0.00744029 -0.0214521c-0.0045598,-0.0131021 -0.0082333,-0.0236387 -0.0109797,-0.0314696l-0.000728869 -0.00209914c-0.00295046,-0.00840823 -0.00513707,-0.0146298 -0.00653649,-0.0185949 -0.000874642,-0.00246066 -0.00158019,-0.00435572 -0.00209914,-0.00572599 -0.000495631,-0.0013761 -0.000822164,-0.00218661 -0.000962106,-0.00251314l-5.83095e-005 -8.74642e-005 -0.000291547 -0.000588926 -5.24785e-005 -8.16333e-005c-0.00055394,-0.000880473 -0.00114287,-0.00172013 -0.00172013,-0.00251314 -0.000618081,-0.000822164 -0.00128864,-0.00160351 -0.00195337,-0.00233238 -0.00131779,-0.00142858 -0.00274638,-0.00265308 -0.00422744,-0.003656l-5.83095e-005 -5.24785e-005c-0.0033528,-0.00225075 -0.00706128,-0.00339361 -0.0110613,-0.00339361l-0.00152188 0c-0.00206999,0 -0.00405251,0.000320702 -0.00595923,0.000909628l-2.33238e-005 0c-0.00190089,0.000588926 -0.00370848,0.00148106 -0.00542861,0.00265308 -0.00155103,0.0010554 -0.00297961,0.00236153 -0.00432656,0.00388341l0 0c-0.00131779,0.00148689 -0.00254229,0.00321285 -0.00365017,0.00516622l-8.74642e-005 0.000145774 -0.000437321 0.000962106 -5.24785e-005 0.000180759 -0.0376796 0.106683 -5.83095e-005 0.00012245 -0.000174928 0.000647235 -2.91547e-005 8.16333e-005c-0.000151605,0.000670559 -0.000291547,0.00125365 -0.000437321,0.00181342 -0.000209914,0.000699714 -0.000413997,0.00134112 -0.000618081,0.00192421 -0.000291547,-0.000880473 -0.00067639,-0.00192421 -0.00111371,-0.00316037l-0.0012245 -0.00338778c-0.011003,-0.0309448 -0.0217961,-0.0620005 -0.0326591,-0.092992l-0.00213413 -0.00612833c-0.000874642,-0.00295046 -0.00194754,-0.00555106 -0.00323618,-0.00785429 -0.00134695,-0.00233821 -0.00288632,-0.00432656 -0.00464727,-0.00595923 -0.000349857,-0.000355688 -0.000728869,-0.00067639 -0.00110788,-0.000991261 -0.000355688,-0.000291547 -0.000699714,-0.00055394 -0.0010554,-0.000787178 -0.00139943,-0.0010554 -0.00292714,-0.0018659 -0.00452482,-0.00248398 -0.00245483,-0.000932952 -0.00507876,-0.00142858 -0.00790677,-0.00142858 -0.000647235,0 -0.00131779,5.83095e-005 -0.00207582,0.00012245 -0.000699714,5.83095e-005 -0.00139943,0.000174928 -0.00207582,0.000291547 -0.000670559,0.000145774 -0.00137027,0.000285716 -0.00204083,0.000495631 -0.000699714,0.000204083 -0.0013761,0.000437321 -0.00199418,0.000699714l-8.16333e-005 2.91547e-005 -0.000262393 0.000116619 0 0c-0.00461228,0.00210497 -0.00811668,0.0048805 -0.0104491,0.00825662 -0.00239069,0.00344609 -0.00358603,0.00750443 -0.00358603,0.012175 0,0.000145774 2.33238e-005,0.000408166 2.33238e-005,0.000822164 2.91547e-005,0.000379012 5.83095e-005,0.000699714 5.83095e-005,0.00101459 2.91547e-005,0.000180759 5.83095e-005,0.000495631 8.16333e-005,0.000932952 5.83095e-005,0.000466476 8.74642e-005,0.000787178 8.74642e-005,0.000991261l2.91547e-005 0.000180759 0.000145774 0.000728869 2.91547e-005 8.16333e-005c0.000151605,0.000618081 0.00155103,0.00475222 0.00420411,0.0124024 0.0169914,0.0491199 0.0343268,0.098129 0.0516039,0.147138l-3.49857e-005 2.33238e-005zm0.256777 0.0124666l0.000145774 -0.0861639c-5.24785e-005,-0.000787178 -8.16333e-005,-0.00163267 -0.00012245,-0.00254229 -2.33238e-005,-0.000991261 -5.24785e-005,-0.00183675 -5.24785e-005,-0.00256562 0,-0.00172013 5.24785e-005,-0.00347525 0.000204083,-0.00525952 0.000151605,-0.00172013 0.000355688,-0.00347525 0.000618081,-0.00519537l0 0c0.000262393,-0.00178427 0.000588926,-0.00355688 0.00098543,-0.0053703 0.000384843,-0.00181342 0.000822164,-0.00365017 0.00134695,-0.00545194l0 0 0.00012245 -0.000384843 2.91547e-005 -0.000151605 0.00012245 -0.000355688c0.00142858,-0.0039942 0.00311956,-0.00793592 0.00510791,-0.0117319 0.00189506,-0.00358603 0.00402335,-0.00703212 0.00645486,-0.0102741 0.00239069,-0.00323618 0.0050496,-0.00621579 0.00790677,-0.00892718 0.002863,-0.00271722 0.00595923,-0.0052187 0.0092887,-0.00744612l0.000145774 -8.16333e-005 0.0104257 -0.00566185 0.00012245 -5.24785e-005c0.00145774,-0.00067639 0.00295046,-0.00131779 0.00446651,-0.00190089 0.00145191,-0.000583095 0.00297961,-0.00110788 0.00455397,-0.00163267l0 0c0.00316037,-0.000991261 0.00636156,-0.00178427 0.00963273,-0.00230906 0.0031837,-0.000518954 0.00636156,-0.000781347 0.00954526,-0.000781347l0.00464143 0c0.000758023,0 0.00155103,2.91547e-005 0.00241984,8.16333e-005 0.000781347,2.91547e-005 0.00158019,8.74642e-005 0.00236153,0.000180759 0.000909628,0.00012245 0.00184258,0.000204083 0.00271722,0.000314871l0 0c0.000880473,0.00012245 0.00178427,0.000262393 0.0026939,0.000413997l0.000204083 2.91547e-005 0.011003 0.00285716 0.000174928 5.24785e-005c0.00102042,0.000355688 0.00204666,0.000728869 0.0030904,0.00117202 0.00111371,0.000437321 0.00216328,0.000874642 0.00309623,0.00131196 0.00282801,0.00125365 0.00557439,0.00272305 0.00822747,0.00432656 0.00280469,0.00166182 0.00545194,0.00347525 0.00802338,0.00539946l0.000437321 0.000314871 0.00012245 0.00012245 0.000413997 0.000355688 0 2.91547e-005c0.00408749,0.00373764 0.00788344,0.00779015 0.0112362,0.0121983 0.00311956,0.0041458 0.00588926,0.00858316 0.00811668,0.0133121 0.00225075,0.00472307 0.00394172,0.0096269 0.0050496,0.0146532 0.00114287,0.00513707 0.00169098,0.0103558 0.00169098,0.0156444 0,0.00487467 -0.000437321,0.00972602 -0.00134695,0.0144782 -0.000903797,0.00464143 -0.00222159,0.00918957 -0.00402335,0.0135978 -0.00178427,0.0044082 -0.00400003,0.00861231 -0.0065948,0.012554 -0.00265308,0.00405251 -0.00572599,0.0079126 -0.00913127,0.0114986l0 0 -0.000239069 0.000262393 -8.16333e-005 5.24785e-005 -0.000233238 0.000233238c-0.00358603,0.00335863 -0.00741697,0.00645486 -0.0114695,0.00916625 -0.00386009,0.00254229 -0.0079126,0.00475222 -0.0122275,0.00656565 -0.00428575,0.00181342 -0.00864147,0.00315454 -0.0131021,0.00402335 -0.00452482,0.000909628 -0.0091371,0.00134695 -0.0137785,0.00134695l-0.00233821 0c-0.00201751,0 -0.0039942,-8.16333e-005 -0.00601171,-0.000233238 -0.00195337,-0.000174928 -0.00394172,-0.000437321 -0.00589509,-0.000758023l-0.00012245 -2.91547e-005 -0.0110555 -0.00264725 -0.000209914 -5.83095e-005c-0.0004898,-0.000174928 -0.00098543,-0.000320702 -0.00152188,-0.000413997 -0.000518954,-8.16333e-005 -0.0010554,-0.000116619 -0.00160351,-0.000116619 -0.00254229,0 -0.00487467,0.00101459 -0.00656565,0.00271722l0 0c-0.00166182,0.00166182 -0.00271722,0.0039942 -0.00271722,0.00656565 0,0.00195337 0.000641404,0.00381927 0.0017143,0.00534115 0.00108456,0.00155103 0.0026006,0.00274638 0.00446651,0.00341694l0.00575515 0.00204666c0.00425659,0.00119534 0.00861231,0.00210497 0.0129622,0.00271722 0.00443735,0.000618081 0.00895634,0.000909628 0.0135161,0.000909628 0.00251314,0 0.00502628,-0.000180759 0.0074986,-0.000466476 0.00257145,-0.000291547 0.00508459,-0.000699714 0.00750443,-0.00119534 0.00292131,-0.000588926 0.00583678,-0.00131779 0.0087231,-0.00215745 0.00292131,-0.000822164 0.00577847,-0.00178427 0.00861231,-0.00280469l0.000314871 -0.00012245c0.00189506,-0.000758023 0.00379012,-0.00157436 0.00569101,-0.00248398 0.0018659,-0.000874642 0.00367933,-0.00181342 0.00545194,-0.00279886 0.00175512,-0.000991261 0.0035044,-0.00201751 0.00519537,-0.00311956 0.00166182,-0.00111371 0.00326533,-0.00225658 0.00481636,-0.00342277l0.000524785 -0.000408166 0.000204083 -0.00012245 0.00055394 -0.000355688c0.000874642,-0.000495631 0.00181342,-0.0012245 0.00268807,-0.00198835 0.000962106,-0.000822164 0.0018659,-0.00169098 0.00265308,-0.00245483 0.00175512,-0.00169098 0.00344609,-0.00344609 0.00507876,-0.00519537 0.00158019,-0.00169098 0.00318953,-0.00353355 0.00479304,-0.0053703l0 0 2.91547e-005 -2.91547e-005 0 0 2.91547e-005 -2.91547e-005c0.0033528,-0.00428575 0.00639072,-0.00884555 0.00907879,-0.0136269 0.00251314,-0.00448983 0.00469974,-0.00922456 0.00645486,-0.0141575 0.00175512,-0.00485135 0.00303209,-0.00975518 0.00388341,-0.0147698 0.000880473,-0.00502628 0.00131779,-0.0101633 0.00131779,-0.0153529l0 -0.000991261c0,-0.00434989 -0.000320702,-0.00864147 -0.000962106,-0.0128689 -0.000618081,-0.00423327 -0.00158019,-0.00843738 -0.00282801,-0.0125832l2.33238e-005 0c-0.00119534,-0.00394172 -0.00265308,-0.00779015 -0.00437904,-0.0115628 -0.00178427,-0.00388924 -0.00379012,-0.00767936 -0.00604086,-0.0113295l0 0 -0.00102042 -0.0016385c-0.00155103,-0.00241401 -0.00321285,-0.00475222 -0.00498546,-0.00700297 -0.00187173,-0.00233238 -0.00381927,-0.0045598 -0.00589509,-0.00665894 -0.00222159,-0.0022799 -0.0045598,-0.00443735 -0.00697965,-0.00648401 -0.00239069,-0.00204666 -0.00490383,-0.00397088 -0.00746944,-0.00577847l0 -2.91547e-005 0 0 0 0 0 0c-0.00405251,-0.00262393 -0.00829744,-0.00499129 -0.0126123,-0.00706128 -0.00417496,-0.00195337 -0.00843155,-0.00365017 -0.0128397,-0.00502628 -0.00426242,-0.00134695 -0.00861231,-0.00233238 -0.0130205,-0.00300877 -0.00435572,-0.000670559 -0.00876392,-0.00101459 -0.0132013,-0.00101459 -0.00349857,0 -0.00697381,0.000233238 -0.0104199,0.000641404 -0.0035044,0.000413997 -0.0070088,0.00102042 -0.0104549,0.00184258 -0.00230322,0.000548109 -0.00455397,0.00119534 -0.00676973,0.0018659 -0.00201751,0.000647235 -0.00402335,0.00134695 -0.00595923,0.00207582l-5.83095e-005 0.000145774 -0.000752192 0.000320702 -0.00435572 0.00201751c-0.0151488,0.00700297 -0.0278428,0.017831 -0.037044,0.0311139 -0.0091371,0.0131954 -0.0148339,0.0288049 -0.0160526,0.0454173l0 0.139587c0.000204083,0.00124782 0.000641404,0.00236153 0.00124782,0.00341694 0.000647235,0.00108456 0.00148689,0.00207582 0.00245483,0.00303792 0.00067639,0.000379012 0.0013761,0.000670559 0.00210497,0.000845488 0.000822164,0.000233238 0.00169098,0.000320702 0.00265308,0.000320702 0.000314871,0 0.000618081,-2.91547e-005 0.000903797,-8.74642e-005 0.000291547,-2.33238e-005 0.000618081,-0.000116619 0.000909628,-0.000204083 0.000314871,-8.16333e-005 0.00061225,-0.000233238 0.000932952,-0.000355688 0.000314871,-0.000174928 0.00061225,-0.000355688 0.000903797,-0.000495631l0.000495631 -0.000314871 0.000174928 -8.74642e-005 0.000524785 -0.000256562c0.000728869,-0.000384843 0.0013761,-0.000822164 0.00192421,-0.00131779 0.000524785,-0.000524785 0.000991261,-0.00114287 0.0013761,-0.00187173 0.000548109,-0.0010554 0.000903797,-0.00227407 0.00113703,-0.00352772 0.000233238,-0.00134695 0.000320702,-0.00271722 0.000320702,-0.00402919l0 -0.0356971 0 -2.91547e-005 0 -0.000314871 0 -2.91547e-005 2.33238e-005 -0.000314871 -2.33238e-005 -1.16619e-005zm0.045738 -0.0372189c0.00142858,0 0.00282801,0.000116619 0.00417496,0.000349857 0.000728869,0.00012245 0.00145774,0.000291547 0.00215745,0.000472307l0.00012245 -0.000291547 0.0018659 0.000670559c0.00285716,0.00102042 0.00580762,0.00178427 0.00881639,0.00230906 0.00300877,0.000495631 0.00609917,0.000758023 0.00928287,0.000758023l0.00233821 0c0.00367933,0 0.00729452,-0.000355688 0.0107698,-0.0010554 0.00352772,-0.00067639 0.00692134,-0.00172013 0.0101925,-0.00309623 0.0033528,-0.00139943 0.00661813,-0.0031837 0.00980182,-0.00531199 0.00318953,-0.0021283 0.00633824,-0.00464143 0.00937033,-0.0074986l0 0c0.00277553,-0.00292714 0.00522453,-0.00601754 0.00732367,-0.00923039 0.0021283,-0.00321285 0.00388341,-0.00656565 0.00528867,-0.0100117 0.00139943,-0.00344609 0.00248398,-0.00703212 0.0031837,-0.0107406 0.000699714,-0.00370848 0.0010554,-0.00755691 0.0010554,-0.0115919 0,-0.00426242 -0.000437321,-0.00834992 -0.00131779,-0.0122916 -0.000880473,-0.00397088 -0.00218661,-0.00779015 -0.00394172,-0.0114695 -0.00175512,-0.00370848 -0.00394172,-0.00727119 -0.00656565,-0.0107406 -0.00265308,-0.00345192 -0.00569101,-0.00677556 -0.00918957,-0.00995926 -0.00218661,-0.00166182 -0.00438487,-0.00315454 -0.0065948,-0.00446651 -0.00222159,-0.00134112 -0.00443735,-0.00251314 -0.00671725,-0.00352772 -0.00225075,-0.00102042 -0.00448983,-0.00187173 -0.00676973,-0.00257145 -0.00225075,-0.000699714 -0.0045598,-0.00124782 -0.00692134,-0.00166182l-0.000991261 -0.000174928c-0.000437321,-8.74642e-005 -0.000903797,-0.000151605 -0.00134695,-0.000209914 -0.000728869,-8.16333e-005 -0.00148106,-0.000174928 -0.00222159,-0.000256562 -0.000588926,-5.83095e-005 -0.00113703,-0.00012245 -0.00169098,-0.000151605 -0.000466476,-2.91547e-005 -0.000991261,-2.91547e-005 -0.00155103,-2.91547e-005l-0.00464143 0c-0.00239069,0 -0.00479304,0.000204083 -0.00718373,0.000588926 -0.00241984,0.000413997 -0.00487467,0.000991261 -0.00735866,0.00178427l0 0c-0.00254229,0.000822164 -0.00513707,0.00184258 -0.00779015,0.0030904 -0.00262393,0.00125365 -0.00534115,0.00274638 -0.00811668,0.00443735l-0.000233238 0.00012245c-0.00248398,0.00169098 -0.00482219,0.00358603 -0.00697965,0.0056327 -0.00225075,0.00215745 -0.00432073,0.00446651 -0.00619247,0.00700297 -0.00192421,0.00257145 -0.00365017,0.00534698 -0.0052187,0.00834992 -0.00155103,0.00297961 -0.00295046,0.00619247 -0.00417496,0.00963273 -0.000413997,0.00145774 -0.000758023,0.00295046 -0.00108456,0.00443735 -0.000314871,0.00152188 -0.000618081,0.00300877 -0.000822164,0.00443735l0 2.33238e-005c-0.000233238,0.00143441 -0.000384843,0.00283384 -0.000495631,0.00417496 -8.16333e-005,0.00134695 -0.000145774,0.0026939 -0.000145774,0.00400003 0,0.000903797 0,0.00166182 2.33238e-005,0.0022799 2.91547e-005,0.000670559 5.83095e-005,0.00139943 0.00012245,0.00222159l0 0.00012245 -0.000145774 0.087126 0 0.00012245 0 8.16333e-005 0 0 0 2.91547e-005 0 0 0 0.00435572 0 0.0313413c0,0.00283384 -0.000262393,0.00545777 -0.000787178,0.00788344 -0.00055394,0.00248981 -0.00134695,0.0047289 -0.00241984,0.00680472 -0.00113703,0.00215745 -0.00256562,0.00402335 -0.00425659,0.00565602 -0.00166182,0.00160934 -0.00358603,0.00295046 -0.0057843,0.00405834 -0.000851318,0.000518954 -0.00172013,0.00098543 -0.00254229,0.00137027 -0.000903797,0.000408166 -0.00183675,0.000758023 -0.0027697,0.0010554 -0.00108456,0.000314871 -0.00213413,0.000588926 -0.00316037,0.000728869 -0.0010554,0.000174928 -0.00209914,0.000262393 -0.00315454,0.000262393 -0.0026939,0 -0.00522453,-0.000384843 -0.00762105,-0.00114287 -0.00239069,-0.000728869 -0.00461811,-0.00183675 -0.00665894,-0.00332364l-0.000180759 -0.000151605c-0.0030904,-0.00285716 -0.00528867,-0.00572016 -0.00674058,-0.00860648 -0.00148689,-0.00292714 -0.00225075,-0.00584261 -0.00251314,-0.00876392l-2.91547e-005 -0.000204083 0 -0.140724 2.91547e-005 -0.00012245c0.00131779,-0.0196969 0.00799423,-0.037977 0.0185949,-0.053324 0.0107115,-0.0154928 0.0253938,-0.0280469 0.0425834,-0.0361344l0.000174928 -0.000495631 0.000787178 -0.000320702c0.00341694,-0.00152188 0.0068572,-0.00282801 0.0102741,-0.0039942 0.00347525,-0.00116619 0.00689218,-0.00215745 0.0102741,-0.00295046 0.00405251,-0.000962106 0.00811668,-0.00169098 0.0121692,-0.00218661 0.00409333,-0.000466476 0.00814583,-0.000728869 0.0122275,-0.000728869 0.00519537,0 0.0103558,0.000408166 0.0154695,0.00119534 0.00510791,0.000781347 0.0102158,0.00195337 0.0152596,0.00352772 0.00498546,0.00155103 0.00995926,0.00347525 0.0148339,0.00581346 0.00487467,0.00230322 0.00969687,0.00502628 0.0144782,0.00808753l2.91547e-005 2.91547e-005 0.000204083 0.000145774 2.91547e-005 2.91547e-005c0.00311956,0.00222159 0.00607002,0.00449566 0.00884555,0.0068572 0.0027697,0.00233238 0.00539363,0.00479304 0.00788344,0.00732367 0.00248398,0.00251314 0.00478721,0.00513707 0.0069155,0.00782513 0.00172013,0.00215745 0.00332947,0.00437904 0.00485135,0.0066881l2.91547e-005 -2.91547e-005 0.00107873 0.00166182c0.00288632,0.00458896 0.00545777,0.00923039 0.0076502,0.0139593 0.00218661,0.00472307 0.00402919,0.00948695 0.00549275,0.0143266 0.00145774,0.00484552 0.00257145,0.0097785 0.00332947,0.014764 0.000728869,0.00496214 0.00107873,0.0100176 0.00107873,0.0150963l0 0.000991261c0,0.00607002 -0.000495631,0.0120876 -0.00152188,0.0179535 -0.000991261,0.00588926 -0.00251314,0.0116736 -0.00451898,0.0173063 -0.00201751,0.00560354 -0.00451898,0.0110963 -0.00752775,0.0164666 -0.00297961,0.00534115 -0.00648401,0.010589 -0.0104782,0.0157027l-2.91547e-005 5.24785e-005 -0.000204083 0.000233238 -5.83095e-005 5.83095e-005c-0.0021283,0.00245483 -0.00411665,0.00464143 -0.00589509,0.00656565 -0.00183675,0.00195337 -0.0035044,0.00367933 -0.0050496,0.00516622 -0.00158019,0.00152188 -0.00303792,0.00279886 -0.00438487,0.00391257 -0.00134112,0.00111371 -0.00259477,0.00198835 -0.00373181,0.00265308 -0.00184258,0.00139943 -0.00370848,0.00271722 -0.00560937,0.00394172 -0.00194754,0.00128864 -0.0039942,0.00251314 -0.00609917,0.00370848 -0.00218077,0.00119534 -0.00437904,0.00233238 -0.0065948,0.00338778 -0.00227407,0.0010554 -0.00458313,0.00204666 -0.0069155,0.00297961l-0.000180759 5.83095e-005 -0.000151605 2.91547e-005 0 0c-0.00341694,0.0012245 -0.00668227,0.00230322 -0.00983098,0.0031837 -0.00318953,0.000932952 -0.00636156,0.00172013 -0.00952194,0.00233238 -0.00321285,0.00067639 -0.00633241,0.00117202 -0.00931202,0.00148689 -0.00300294,0.000320702 -0.00591841,0.000495631 -0.0087231,0.000495631 -0.00528284,0 -0.0105074,-0.000355688 -0.0156444,-0.00108456 -0.00516622,-0.000699714 -0.0101925,-0.00175512 -0.0150963,-0.00315454 -0.0010554,-0.000291547 -0.00215745,-0.000647235 -0.0033528,-0.00102042 -0.00119534,-0.000384843 -0.00230322,-0.000758023 -0.00332364,-0.00113703l-0.0018659 -0.000647235 8.16333e-005 -0.000262393c-0.00402335,-0.00183675 -0.00746944,-0.00469391 -0.00998258,-0.00825662 -0.00283384,-0.0039942 -0.00449566,-0.00886887 -0.00449566,-0.0141284 0,-0.00677556 0.00277553,-0.0129272 0.00721288,-0.0173646 0.00443735,-0.00443735 0.0105657,-0.00718373 0.0173354,-0.00718373l2.91547e-005 1.16619e-005z"/>
 </g>
</svg>
