<?xml version="1.0" encoding="UTF-8"?>
<!DOCTYPE svg PUBLIC "-//W3C//DTD SVG 1.1//EN" "http://www.w3.org/Graphics/SVG/1.1/DTD/svg11.dtd">
<!-- Creator: CorelDRAW -->
<svg xmlns="http://www.w3.org/2000/svg" xml:space="preserve" width="30px" height="30px" shape-rendering="geometricPrecision" text-rendering="geometricPrecision" image-rendering="optimizeQuality" fill-rule="evenodd" clip-rule="evenodd"
viewBox="0 0 1.62017 1.62017"
 xmlns:xlink="http://www.w3.org/1999/xlink">
 <g id="Layer_x0020_1">
  <metadata id="CorelCorpID_0Corel-Layer"/>
  <g id="_108387336">
   <path id="_108388272" fill="white" d="M0.336473 -3.17107e-015l0.947227 0c0.185044,0 0.336473,0.151429 0.336473,0.336473l0 0.947227c0,0.185044 -0.151429,0.336473 -0.336473,0.336473l-0.947227 0c-0.185044,0 -0.336473,-0.151429 -0.336473,-0.336473l0 -0.947227c0,-0.185044 0.151429,-0.336473 0.336473,-0.336473z"/>
   <path id="_108387096" fill="#2350A0" fill-rule="nonzero" d="M0.308024 0.954499l0.000127573 0.000446505c0.00210495,0.00644242 0.00395475,0.0121194 0.0056132,0.0169034 0.00133951,0.00389097 0.00267903,0.00752679 0.00389097,0.0108437l0.00102058 0.00274281c0.00172223,0.00452883 0.0032531,0.00835601 0.00472019,0.0114815l0 0c0.0014033,0.00312553 0.00267903,0.0056132 0.00395475,0.00765436l0.000255145 0.000382718 0.000191359 0.000255145 0.00133951 0.00172223 0.000191359 0.000318932c0.00299796,0.00344446 0.0060597,0.00656999 0.00924902,0.00931281 0.00287039,0.00248767 0.00586834,0.0046564 0.00899388,0.00650621l0.000893009 0.000574077c0.00395475,0.00223252 0.00790951,0.00395475 0.011928,0.00510291 0.00408233,0.00114815 0.00822844,0.00172223 0.0123746,0.00172223l0.00714407 0 0.00070165 -6.37864e-005 0.00395475 -0.000574077 0.000510291 -6.37864e-005 0.0014033 -0.000382718 0 0 0.00229631 -0.000510291 0.000382718 -0.000127573 0.0051667 -0.0014033c0.00102058,-0.000382718 0.00204116,-0.000765436 0.00306175,-0.00114815 0.00261524,-0.00108437 0.00510291,-0.00229631 0.007463,-0.00363582 0.00357204,-0.00197738 0.00688893,-0.00427369 0.0098231,-0.00676135 0.00318932,-0.00267903 0.00599592,-0.00567699 0.00848359,-0.0088663 0.00248767,-0.0032531 0.00459262,-0.00669757 0.00637864,-0.010461l0.000127573 -0.000318932 0.000574077 -0.00153087 6.37864e-005 -0.000191359c0.0146071,-0.0417801 0.0278746,-0.0794778 0.0398027,-0.113476l0.00618728 -0.0177326 0.00146709 -0.00408233c0.00810087,-0.0230907 0.0160742,-0.0459262 0.0243026,-0.069272 0.00797329,-0.0225804 0.014033,-0.0396751 0.0181153,-0.0511567 0.00401854,-0.0114178 0.0060597,-0.0172223 0.00618728,-0.0174137l0.000255145 -0.000510291 0.00121194 -0.00338068 0.000191359 -0.000574077c0.00121194,-0.0051667 0.00242388,-0.00944038 0.00369961,-0.0128848 0.000318932,-0.000893009 0.000637864,-0.00172223 0.000956795,-0.00248767l0.0902577 0.25438c0.00204116,0.00688893 0.00395475,0.0130762 0.00580456,0.018498 0.00197738,0.00574077 0.00382718,0.0107161 0.0056132,0.014926l0.00197738 0.00472019 0.000127573 -6.37864e-005c0.00133951,0.00293417 0.00267903,0.00554941 0.00401854,0.00790951 0.00121194,0.00204116 0.0023601,0.00389097 0.00350825,0.00554941l-6.37864e-005 6.37864e-005 0.00121194 0.0014033c0.000574077,0.000765436 0.00114815,0.00146709 0.00172223,0.00210495l6.37864e-005 0.000127573c0.00210495,0.00255145 0.00459262,0.00497534 0.00733543,0.00708029 0.00274281,0.00210495 0.00574077,0.00401854 0.00905766,0.0056132 0.0028066,0.0014033 0.00586834,0.00261524 0.00918524,0.00369961 0.0032531,0.00102058 0.00669757,0.00191359 0.0103334,0.00255145l0.000446505 6.37864e-005 0.00287039 0.000318932 0.000510291 6.37864e-005 0.00720786 0 0 0 0.000637864 -6.37864e-005 0.00344446 -0.000446505 0.000574077 -6.37864e-005 0.000574077 -0.000127573 0.00848359 -0.00197738 0.000318932 -6.37864e-005 0.00204116 -0.000637864 0.000318932 -0.000127573c0.000829223,-0.000318932 0.00165845,-0.000637864 0.00248767,-0.000956795 0.00306175,-0.00133951 0.00599592,-0.00287039 0.00880252,-0.00459262 0.00350825,-0.00223252 0.00669757,-0.00478398 0.00969553,-0.00765436 0.00293417,-0.00287039 0.00554941,-0.0060597 0.00790951,-0.00950417 0.00229631,-0.00338068 0.00427369,-0.00714407 0.00599592,-0.0111626l0.000127573 -0.000191359 0.000318932 -0.00102058 6.37864e-005 -6.37864e-005 0.072844 -0.208071 0.0350187 -0.100081 0.0322759 -0.0921713 0.000191359 -0.000510291c0.00338068,-0.00912145 0.00625106,-0.0169672 0.00848359,-0.0234734 0.00255145,-0.00720786 0.00459262,-0.0132038 0.00612349,-0.0179878 0.0018498,-0.00593213 0.0032531,-0.011035 0.00427369,-0.0153725 0.00102058,-0.00452883 0.00153087,-0.00816465 0.00153087,-0.0107799 0,-0.00159466 -0.000127573,-0.00338068 -0.000255145,-0.00523048 -0.000191359,-0.00197738 -0.000446505,-0.00369961 -0.00070165,-0.00535805 -0.000318932,-0.00165845 -0.00070165,-0.00338068 -0.00114815,-0.00503912 -0.000446505,-0.00159466 -0.000956795,-0.00331689 -0.00165845,-0.00523048l-6.37864e-005 -0.000191359 -0.000510291 -0.00121194 -6.37864e-005 -0.000191359c-0.00267903,-0.00580456 -0.00574077,-0.0109075 -0.00924902,-0.0153725 -0.00363582,-0.00452883 -0.00765436,-0.0084198 -0.0120556,-0.0115453 -0.00472019,-0.00331689 -0.0098231,-0.00580456 -0.0153087,-0.007463 -0.00548563,-0.00165845 -0.0112264,-0.00255145 -0.0172861,-0.00255145 -0.00542184,0 -0.0106523,0.000637864 -0.0155639,0.00197738l-0.00121194 0.000255145c-0.00242388,0.00070165 -0.00472019,0.00153087 -0.0070165,0.00255145 -0.00274281,0.00114815 -0.00542184,0.00261524 -0.00797329,0.0042099 -0.00459262,0.00293417 -0.00867494,0.00644242 -0.0123108,0.0105885 -0.00363582,0.00408233 -0.00682514,0.0088663 -0.00963174,0.0142244l-0.000191359 0.000255145 -0.000893009 0.00204116 -0.000191359 0.000446505 -0.099124 0.280596 0 0.000191359 -0.000510291 0.00159466 -0.000127573 0.000318932c-0.000893009,0.0037634 -0.00178602,0.0070165 -0.00274281,0.00963174l-0.000255145 0.000765436c-0.000255145,-0.000637864 -0.000574077,-0.00133951 -0.000829223,-0.00204116 -0.00127573,-0.00312553 -0.00261524,-0.00688893 -0.00408233,-0.011354l-0.000318932 -0.000765436 -0.0231544 -0.0668481 -0.0195824 -0.0563871c-0.0119918,-0.0345084 -0.0216236,-0.0621917 -0.0288314,-0.0827947l-0.00191359 -0.00548563c-0.00778194,-0.0221339 -0.0135227,-0.0384632 -0.0172861,-0.0489241 -0.00229631,-0.00644242 -0.00408233,-0.0114815 -0.00542184,-0.0151174 -0.00133951,-0.00350825 -0.00223252,-0.00574077 -0.00261524,-0.00656999l-0.000127573 -0.000255145 -0.000765436 -0.00146709 -0.000191359 -0.000255145c-0.0014033,-0.00229631 -0.00293417,-0.00452883 -0.00446505,-0.00656999 -0.00165845,-0.00223252 -0.00338068,-0.00427369 -0.0051667,-0.00618728 -0.00350825,-0.0037634 -0.00720786,-0.00695271 -0.0110988,-0.00956795l-0.000191359 -0.000127573c-0.0088663,-0.00593213 -0.0185618,-0.00893009 -0.0290866,-0.00893009l-0.00401854 0c-0.00542184,0 -0.0106523,0.000829223 -0.0156914,0.0023601l0 0c-0.00503912,0.00159466 -0.00975931,0.00389097 -0.0142881,0.0070165 -0.00408233,0.00274281 -0.00790951,0.00618728 -0.0114178,0.0102058l0 0c-0.00344446,0.00389097 -0.00663378,0.0084198 -0.00956795,0.0135865l-0.000191359 0.000382718 -0.00121194 0.00255145 -0.000191359 0.000446505 -0.0990602 0.280596 -0.000127573 0.000318932 -0.000510291 0.00172223 -6.37864e-005 0.000255145c-0.000382718,0.00165845 -0.000765436,0.0032531 -0.00114815,0.00472019 -0.000510291,0.0018498 -0.00102058,0.00357204 -0.00159466,0.00503912 -0.000829223,-0.00229631 -0.00178602,-0.00503912 -0.00293417,-0.00822844l-0.00318932 -0.00893009c-0.028959,-0.0814552 -0.0574077,-0.163102 -0.0859202,-0.244684l-0.0056132 -0.0160742c-0.0023601,-0.00778194 -0.0051667,-0.0146071 -0.00861116,-0.0206668 -0.00344446,-0.00612349 -0.00752679,-0.011354 -0.0121194,-0.0156914 -0.000956795,-0.000893009 -0.00197738,-0.00178602 -0.00293417,-0.00255145 -0.000893009,-0.000765436 -0.0018498,-0.00146709 -0.00274281,-0.00210495 -0.0037634,-0.00274281 -0.00771815,-0.00491155 -0.011928,-0.00650621 -0.00644242,-0.00248767 -0.0133951,-0.0037634 -0.0207944,-0.0037634 -0.00165845,0 -0.00350825,0.000127573 -0.00542184,0.000318932 -0.00191359,0.000191359 -0.00369961,0.000446505 -0.00548563,0.000765436 -0.00178602,0.000318932 -0.00363582,0.000765436 -0.00542184,0.00133951 -0.00178602,0.000510291 -0.00357204,0.00108437 -0.00523048,0.00178602l-0.000255145 6.37864e-005 -0.000637864 0.000318932 0 0c-0.0121194,0.00554941 -0.0213046,0.0128211 -0.0274919,0.0217511 -0.00625106,0.00905766 -0.00937659,0.01971 -0.00937659,0.031957 0,0.000382718 0,0.00114815 6.37864e-005,0.00223252 0,0.000956795 6.37864e-005,0.0018498 0.000127573,0.00261524 6.37864e-005,0.000510291 0.000127573,0.00127573 0.000191359,0.00248767 0.000127573,0.00121194 0.000255145,0.00210495 0.000318932,0.00261524l0 0.000446505 0.000382718 0.00191359 6.37864e-005 0.000191359c0.000382718,0.00165845 0.00408233,0.0125021 0.011035,0.0326586 0.0447142,0.129231 0.0903853,0.258143 0.135801,0.387056zm0.67537 0.0327862l0.000446505 -0.226633c-0.000127573,-0.00204116 -0.000255145,-0.00427369 -0.000318932,-0.00669757 -0.000127573,-0.00261524 -0.000127573,-0.00484776 -0.000127573,-0.00669757 0,-0.00459262 0.000191359,-0.00918524 0.000510291,-0.0138416 0.000382718,-0.00459262 0.000893009,-0.00912145 0.00159466,-0.0136503l0 -6.37864e-005c0.00070165,-0.0046564 0.00159466,-0.00937659 0.00261524,-0.0140968 0.00102058,-0.00478398 0.00223252,-0.00956795 0.00357204,-0.0143519l0 -6.37864e-005 0.000255145 -0.000956795 0.000127573 -0.000318932 0.000318932 -0.00102058c0.0037634,-0.0105247 0.00816465,-0.0208581 0.0133951,-0.0308088 0.00497534,-0.00944038 0.0105885,-0.018498 0.0169672,-0.0270454 0.00631485,-0.00848359 0.0132676,-0.0163293 0.0207944,-0.0234734 0.00752679,-0.00720786 0.0156914,-0.0137141 0.0244302,-0.0195824l0.000446505 -0.000255145 0.0273643 -0.0148622 0.000318932 -0.000191359c0.00389097,-0.00178602 0.00778194,-0.00344446 0.0116729,-0.00497534 0.00389097,-0.00153087 0.00790951,-0.00293417 0.0119918,-0.00427369l6.37864e-005 0c0.00829223,-0.00267903 0.0167758,-0.00472019 0.0253232,-0.00612349 0.00835601,-0.00133951 0.016712,-0.00204116 0.0251318,-0.00204116l0.012247 0c0.00191359,0 0.00401854,6.37864e-005 0.00631485,0.000191359 0.00204116,0.000127573 0.00414611,0.000318932 0.00625106,0.000510291 0.0023601,0.000255145 0.00478398,0.000510291 0.00714407,0.000829223l0 0c0.00223252,0.000318932 0.00459262,0.00070165 0.0070165,0.00108437l0.000510291 6.37864e-005 0.0290228 0.00752679 0.000382718 0.000127573c0.00267903,0.000956795 0.00542184,0.00197738 0.00822844,0.00306175 0.00287039,0.00121194 0.0056132,0.0023601 0.00810087,0.00344446 0.00739922,0.00338068 0.0146071,0.00720786 0.0216236,0.0114178 0.00733543,0.00433747 0.0144157,0.00912145 0.0211133,0.0142244l0.00114815 0.000829223 0.000318932 0.000318932 0.00108437 0.000956795 0 0c0.0107799,0.0098231 0.0207306,0.0205392 0.0295331,0.0321483 0.00829223,0.0109075 0.0155001,0.0225166 0.0214322,0.0350187 0.00586834,0.0123746 0.0102696,0.0253232 0.0132038,0.038527 0.00299796,0.0134589 0.00446505,0.0272368 0.00446505,0.0411422 0,0.0128211 -0.00114815,0.0255783 -0.00357204,0.0380805 -0.00229631,0.0121832 -0.00580456,0.024175 -0.0105247,0.0357841 -0.00472019,0.0116091 -0.0105885,0.0225804 -0.0173499,0.0329775 -0.0070165,0.0107161 -0.0151174,0.0207944 -0.0240475,0.0302985l0 0 -0.000637864 0.000637864 -0.000191359 0.000191359 -0.000637864 0.000637864c-0.00944038,0.00880252 -0.0195186,0.0169034 -0.0301709,0.0240475 -0.010142,0.00669757 -0.0208581,0.0125659 -0.0321483,0.0172861 -0.0112902,0.00478398 -0.0227717,0.00829223 -0.0345084,0.0105885 -0.0118643,0.00242388 -0.0239837,0.00357204 -0.0362944,0.00357204l-0.0060597 0c-0.00529427,0 -0.0105885,-0.000255145 -0.015819,-0.000637864 -0.0051667,-0.000446505 -0.0103972,-0.00114815 -0.0155639,-0.00197738l-0.000318932 -0.000127573 -0.0290228 -0.00695271 -0.000574077 -0.000127573c-0.00127573,-0.000510291 -0.00261524,-0.000829223 -0.00401854,-0.00108437 -0.00133951,-0.000191359 -0.00274281,-0.000318932 -0.00414611,-0.000318932 -0.00676135,0 -0.0128848,0.00274281 -0.0172861,0.00714407l0 0c-0.00440126,0.00440126 -0.00714407,0.0105247 -0.00714407,0.0172861 0,0.0051667 0.00159466,0.0100145 0.00446505,0.014033 0.0028066,0.00408233 0.00688893,0.00720786 0.0117367,0.00893009l0.0151174 0.00542184c0.0112902,0.00318932 0.0226442,0.00554941 0.0341257,0.00714407 0.0116729,0.00159466 0.0235372,0.0023601 0.0355928,0.0023601 0.00663378,0 0.0132038,-0.000446505 0.01971,-0.00114815 0.00676135,-0.000765436 0.0133313,-0.0018498 0.01971,-0.00318932 0.00771815,-0.00153087 0.0153725,-0.00344446 0.0230269,-0.00567699 0.00759058,-0.00223252 0.0151812,-0.00472019 0.0225804,-0.00739922l0.000893009 -0.000255145c0.00491155,-0.00197738 0.00995067,-0.00414611 0.014926,-0.00656999 0.00491155,-0.00229631 0.00969553,-0.00478398 0.0143519,-0.00733543 0.0046564,-0.00261524 0.00918524,-0.00535805 0.0136503,-0.00829223 0.00440126,-0.00287039 0.00867494,-0.00580456 0.0127573,-0.00893009l0.00133951 -0.00102058 0.000510291 -0.000382718 0.00146709 -0.000893009c0.00229631,-0.00133951 0.00472019,-0.00318932 0.00708029,-0.00523048 0.00248767,-0.00216874 0.00491155,-0.00446505 0.00695271,-0.00644242 0.0046564,-0.00446505 0.00912145,-0.00905766 0.0133313,-0.0136503 0.00414611,-0.00452883 0.0084198,-0.00931281 0.0126935,-0.0141606l0 0 0 -6.37864e-005 0 0 6.37864e-005 -6.37864e-005c0.0088663,-0.011354 0.0169034,-0.023282 0.0239199,-0.0358479 0.00663378,-0.0118643 0.0123746,-0.0243026 0.0169672,-0.0372512 0.00459262,-0.0127573 0.00797329,-0.0257059 0.0102058,-0.0388459 0.00229631,-0.0132676 0.00344446,-0.0267265 0.00344446,-0.0404406l0 -0.00261524c0,-0.0114178 -0.000829223,-0.0227079 -0.00248767,-0.0338068 -0.00165845,-0.0111626 -0.00414611,-0.0221977 -0.007463,-0.0331051l6.37864e-005 0c-0.00312553,-0.0103334 -0.0070165,-0.0204754 -0.0115453,-0.0303623 -0.0046564,-0.0102696 -0.00995067,-0.0202203 -0.0158828,-0.029852l0 0 -0.00267903 -0.00427369c-0.00401854,-0.00637864 -0.0084198,-0.0125021 -0.01314,-0.0184343 -0.00484776,-0.00612349 -0.0100782,-0.0119918 -0.0155001,-0.0175412 -0.00580456,-0.00593213 -0.011928,-0.0116091 -0.0183067,-0.017031 -0.00637864,-0.00535805 -0.0129486,-0.0103972 -0.0196462,-0.0151812l-6.37864e-005 -6.37864e-005 0 0 0 0 0 0c-0.0107161,-0.00688893 -0.0217511,-0.01314 -0.0331689,-0.0185618 -0.0109075,-0.00523048 -0.0221977,-0.00969553 -0.033743,-0.0132676 -0.0112264,-0.00350825 -0.0226442,-0.00612349 -0.0342533,-0.00790951 -0.0114815,-0.00172223 -0.0230269,-0.00261524 -0.0347636,-0.00261524 -0.00918524,0 -0.0183067,0.000574077 -0.0273643,0.00159466 -0.00924902,0.00114815 -0.0184343,0.00274281 -0.0274919,0.00491155 -0.0060597,0.00146709 -0.0119918,0.00306175 -0.0177964,0.00491155 -0.00535805,0.00165845 -0.0105885,0.00350825 -0.0156914,0.00542184l-0.000127573 0.000382718 -0.00197738 0.000893009 -0.0114178 0.00529427c-0.0398665,0.0183705 -0.0732905,0.046883 -0.0974656,0.0817741 -0.0240475,0.0347636 -0.0390373,0.075842 -0.0422266,0.119536l0 0.36709c0.000510291,0.00331689 0.00165845,0.00631485 0.0032531,0.00899388 0.00172223,0.00287039 0.00389097,0.00548563 0.00650621,0.00803708 0.00172223,0.00102058 0.00357204,0.00172223 0.00548563,0.00223252 0.00216874,0.000574077 0.00446505,0.000765436 0.00695271,0.000765436 0.000893009,0 0.00165845,-6.37864e-005 0.00242388,-0.000127573 0.000765436,-0.000127573 0.00159466,-0.000382718 0.00242388,-0.000574077 0.000765436,-0.000255145 0.00159466,-0.000574077 0.0023601,-0.000956795 0.000893009,-0.000446505 0.00172223,-0.000893009 0.00242388,-0.00133951l0.00127573 -0.000765436 0.000510291 -0.000318932 0.00133951 -0.000637864c0.00197738,-0.000956795 0.00369961,-0.00210495 0.00510291,-0.00344446 0.0014033,-0.00133951 0.00261524,-0.00293417 0.00363582,-0.00491155 0.00146709,-0.00274281 0.0023601,-0.00599592 0.00299796,-0.00931281 0.000574077,-0.00350825 0.000829223,-0.00714407 0.000829223,-0.0105885l0 -0.0938935 0 -6.37864e-005 0 -0.000893009 0 -6.37864e-005 0 -0.000829223zm0.120429 -0.0979121c0.00369961,0 0.00739922,0.000318932 0.0109713,0.000956795 0.00191359,0.000318932 0.0037634,0.000765436 0.00567699,0.00121194l0.000255145 -0.00070165 0.00491155 0.00172223c0.00752679,0.00267903 0.0153087,0.00472019 0.0232182,0.0060597 0.00790951,0.00133951 0.0160104,0.00197738 0.0244302,0.00197738l0.0060597 0c0.00975931,0 0.0192635,-0.000893009 0.0284487,-0.00274281 0.00918524,-0.00178602 0.0181153,-0.00452883 0.0267903,-0.00816465 0.00873873,-0.00369961 0.0173499,-0.00835601 0.0257059,-0.0139692 0.0084198,-0.0056132 0.0166482,-0.0121832 0.0246853,-0.01971l0 0c0.00733543,-0.00771815 0.0137141,-0.015819 0.0193273,-0.0243026 0.00554941,-0.0084198 0.010142,-0.0172223 0.0138416,-0.02628 0.00369961,-0.00912145 0.00650621,-0.0185618 0.00835601,-0.0283211 0.0018498,-0.00969553 0.00274281,-0.0199013 0.00274281,-0.0304261 0,-0.0111626 -0.00114815,-0.0220063 -0.00344446,-0.0323397 -0.00223252,-0.0103972 -0.00574077,-0.0204754 -0.0103334,-0.0301709 -0.00459262,-0.00969553 -0.0103972,-0.0191359 -0.0172861,-0.0282574 -0.00695271,-0.00905766 -0.0149898,-0.0177964 -0.024175,-0.0262162 -0.00574077,-0.00433747 -0.0115453,-0.00822844 -0.0173499,-0.0117367 -0.00580456,-0.00344446 -0.0116729,-0.00656999 -0.0176688,-0.00924902 -0.00593213,-0.00267903 -0.0118643,-0.00497534 -0.0177964,-0.00682514 -0.00593213,-0.00178602 -0.0120556,-0.0032531 -0.0181791,-0.00433747l-0.00267903 -0.000510291c-0.00114815,-0.000127573 -0.00229631,-0.000318932 -0.00350825,-0.000446505 -0.00191359,-0.000255145 -0.00389097,-0.000510291 -0.00586834,-0.00070165 -0.00146709,-0.000191359 -0.00299796,-0.000318932 -0.00440126,-0.000382718 -0.00127573,-6.37864e-005 -0.00261524,-6.37864e-005 -0.00401854,-6.37864e-005l-0.012247 0c-0.00631485,0 -0.0125659,0.000510291 -0.0188808,0.00153087 -0.00644242,0.00102058 -0.0128848,0.00255145 -0.0193911,0.0046564l0 0c-0.00669757,0.00216874 -0.0135227,0.00484776 -0.0205392,0.00816465 -0.00688893,0.0032531 -0.014033,0.00714407 -0.0213046,0.0116729l-0.000574077 0.000318932c-0.00656999,0.00446505 -0.0126935,0.00937659 -0.0183705,0.0147984 -0.00593213,0.0056132 -0.011354,0.0117367 -0.0162655,0.0183705 -0.00503912,0.00682514 -0.00963174,0.0140968 -0.0137779,0.0219425 -0.00408233,0.00784572 -0.00771815,0.0163293 -0.0109713,0.025387 -0.00102058,0.00382718 -0.00197738,0.00771815 -0.00287039,0.0116729 -0.000829223,0.00401854 -0.00159466,0.00790951 -0.00210495,0.0116729l0 6.37864e-005c-0.000574077,0.0037634 -0.00102058,0.007463 -0.00127573,0.0109713 -0.000318932,0.00357204 -0.000446505,0.00708029 -0.000446505,0.0105885 0,0.00229631 6.37864e-005,0.00427369 0.000127573,0.00593213 0,0.00178602 0.000127573,0.00369961 0.000255145,0.00580456l0 0.000382718 -0.000382718 0.229184 0 0.000255145 0 0.000255145 0 0 0 6.37864e-005 0 0 0 0.0114815 0 0.082412c0,0.007463 -0.00070165,0.0143519 -0.00210495,0.0207944 -0.0014033,0.00644242 -0.00350825,0.0123746 -0.00637864,0.0177964 -0.00293417,0.00567699 -0.00669757,0.0106523 -0.0111626,0.0149898 -0.00433747,0.0042099 -0.00937659,0.00771815 -0.0151812,0.0105885 -0.00223252,0.0014033 -0.00452883,0.00261524 -0.00669757,0.00363582 -0.0023601,0.00108437 -0.00484776,0.00204116 -0.00727164,0.0028066 -0.0028066,0.000829223 -0.0056132,0.00146709 -0.00829223,0.00191359 -0.0028066,0.000382718 -0.00554941,0.000637864 -0.00835601,0.000637864 -0.00708029,0 -0.0137141,-0.00102058 -0.0199651,-0.00293417 -0.00631485,-0.00197738 -0.0121832,-0.00491155 -0.0175412,-0.00880252l-0.000510291 -0.000382718c-0.00810087,-0.00752679 -0.0137779,-0.0150536 -0.0176688,-0.0226442 -0.00389097,-0.00771815 -0.00586834,-0.0153725 -0.00663378,-0.0230269l0 -0.000510291 0 -0.370152 0 -0.000318932c0.00350825,-0.0518583 0.0211133,-0.0998894 0.0489241,-0.140266 0.0281936,-0.0408233 0.0667843,-0.0738008 0.112073,-0.0951055l0.000382718 -0.00127573 0.00210495 -0.000893009c0.00899388,-0.00395475 0.0180515,-0.00739922 0.0270454,-0.010461 0.00912145,-0.00306175 0.0181153,-0.00567699 0.0269816,-0.00778194 0.0106523,-0.00255145 0.0213684,-0.00446505 0.0320845,-0.00574077 0.0107161,-0.00127573 0.0214322,-0.00191359 0.0320845,-0.00191359 0.0137141,0 0.0273006,0.00108437 0.0407595,0.00312553 0.0134589,0.00204116 0.0268541,0.0051667 0.0401216,0.00924902 0.01314,0.00408233 0.0261524,0.00918524 0.0389735,0.0153087 0.0128211,0.0060597 0.0255783,0.0132038 0.0381442,0.0213046l0 6.37864e-005 0.000574077 0.000318932 0.000127573 0.000127573c0.00822844,0.00580456 0.0159466,0.0118005 0.0232182,0.0180515 0.00733543,0.00618728 0.0142881,0.0126297 0.0207306,0.0192635 0.00650621,0.00663378 0.0126297,0.0135227 0.0182429,0.020603 0.00452883,0.00567699 0.00873873,0.0115453 0.0127573,0.0175412l6.37864e-005 -6.37864e-005 0.0028066 0.00440126c0.00765436,0.0119918 0.0143519,0.0242388 0.0200927,0.0366772 0.00580456,0.0124383 0.0105885,0.0250043 0.0144795,0.0376977 0.00382718,0.0127573 0.00676135,0.0257059 0.00873873,0.0388459 0.00191359,0.0130762 0.00287039,0.0263438 0.00287039,0.0396751l0 0.00261524c0,0.0160104 -0.00133951,0.0317656 -0.00395475,0.0472657 -0.00267903,0.0155001 -0.00669757,0.0306812 -0.0119918,0.0455435 -0.00523048,0.0147346 -0.0118643,0.0291504 -0.0197738,0.0433109 -0.00784572,0.014033 -0.017031,0.0278109 -0.0275557,0.0413336l-6.37864e-005 6.37864e-005 -0.000574077 0.00070165 -0.000127573 0.000127573c-0.0056132,0.00644242 -0.0108437,0.0121832 -0.0155001,0.0172223 -0.00484776,0.0051667 -0.00924902,0.00969553 -0.0133313,0.0136503 -0.00408233,0.00395475 -0.00790951,0.00739922 -0.0114815,0.0102696 -0.00357204,0.00287039 -0.00688893,0.00523048 -0.0098231,0.0070165 -0.00484776,0.00363582 -0.00975931,0.00708029 -0.0147346,0.0103334 -0.0051667,0.00338068 -0.0105885,0.00663378 -0.0160742,0.00969553 -0.00574077,0.00318932 -0.0114815,0.00618728 -0.0173499,0.00893009 -0.00599592,0.0028066 -0.0120556,0.00542184 -0.0181791,0.00778194l-0.000446505 0.000191359 -0.000446505 0.000127573 0 0c-0.00893009,0.00318932 -0.0175412,0.00599592 -0.0258335,0.00835601 -0.0084198,0.00242388 -0.0167758,0.00446505 -0.025068,0.00618728 -0.00848359,0.00172223 -0.0165845,0.00299796 -0.0244302,0.00382718 -0.00797329,0.000893009 -0.0156277,0.00133951 -0.0229631,0.00133951 -0.0139692,0 -0.0276833,-0.000956795 -0.041206,-0.0028066 -0.0135227,-0.0018498 -0.0267903,-0.0046564 -0.0396751,-0.00835601 -0.00274281,-0.000765436 -0.00567699,-0.00165845 -0.0088663,-0.00267903 -0.00312553,-0.00102058 -0.0060597,-0.00197738 -0.00873873,-0.00293417l-0.00491155 -0.00178602 0.000255145 -0.000637864c-0.0105885,-0.00478398 -0.0196462,-0.0123746 -0.02628,-0.0217511 -0.00739922,-0.0105247 -0.0118005,-0.0233458 -0.0118005,-0.0371237 0,-0.0178602 0.00727164,-0.0339981 0.0189445,-0.045671 0.0116729,-0.0116729 0.0278109,-0.0189445 0.045671,-0.0189445z"/>
  </g>
 </g>
</svg>
