<?xml version="1.0" encoding="UTF-8"?>
<!DOCTYPE svg PUBLIC "-//W3C//DTD SVG 1.1//EN" "http://www.w3.org/Graphics/SVG/1.1/DTD/svg11.dtd">
<!-- Creator: CorelDRAW -->
<svg xmlns="http://www.w3.org/2000/svg" xml:space="preserve" width="2.54mm" height="2.54mm" style="shape-rendering:geometricPrecision; text-rendering:geometricPrecision; image-rendering:optimizeQuality; fill-rule:evenodd; clip-rule:evenodd"
viewBox="0 0 1.9262 1.9262"
 xmlns:xlink="http://www.w3.org/1999/xlink">
 <defs>
  <style type="text/css">
   <![CDATA[
    .fil2 {fill:none}
    .fil0 {fill:white}
    .fil1 {fill:#333333}
   ]]>
  </style>
   <clipPath id="id0">
    <path d="M-0 0l1.9262 0 0 1.9262 -1.9262 0 0 -1.9262z"/>
   </clipPath>
 </defs>
 <g id="Layer_x0020_1">
  <metadata id="CorelCorpID_0Corel-Layer"/>
  <polygon class="fil0" points="-0,0 1.9262,0 1.9262,1.9262 -0,1.9262 "/>
  <g style="clip-path:url(#id0)">
   <g id="_124934416">
    <path id="_1237320641" class="fil1" d="M0.461453 0.70473c-0.022902,-0.134985 -0.0135744,-0.237286 0.0198686,-0.310694 0.0672652,-0.147801 0.161376,-0.286048 0.334278,-0.334278 0.140142,-0.0391306 0.360896,0.0203236 0.516736,0.171613 0.0784887,0.0762137 0.11451,0.171993 0.122852,0.289081 0.00917597,0.128464 -0.0282863,0.156219 -0.0301063,0.239485 -0.000379172,0.0150911 0.0279829,-0.00614259 0.0432257,-0.0085693 0.0341255,-0.00523258 0.0335188,0.0243429 0.0360214,0.0433015 0.00667343,0.0485341 -0.0213853,0.0865271 -0.0328363,0.128767 -0.0191861,0.0700711 -0.0297271,0.113297 -0.0560417,0.158039 -0.0109202,0.0184278 -0.0598334,0.00288171 -0.0614259,0.0216887 -0.00667343,0.0796262 -0.0404198,0.114434 -0.0560417,0.161679 -0.0266937,0.0812187 -0.0189586,0.165243 0.00455007,0.240774 0.0266937,0.0859205 0.10632,0.176467 0.21537,0.20172 0.101467,0.0235845 0.195653,0.0505816 0.284683,0.0964615 0,0.0243429 0,0.0486099 0,0.0729528 -0.561251,0 -1.11772,0.00128919 -1.67898,0.00128919l0.000151669 -0.0223712c0.157736,-0.0715119 0.330714,-0.130435 0.449926,-0.212185 0.068251,-0.046714 0.0502024,-0.285517 0.0271487,-0.356043 -0.023357,-0.0710569 -0.0615776,-0.0869063 -0.0707536,-0.190572 -0.0043984,-0.0498991 -0.0674927,-0.0120577 -0.0812946,-0.0723461 -0.0342013,-0.0723461 -0.0437565,-0.168049 -0.0623359,-0.214081 -0.0170628,-0.042164 0.00151669,-0.103742 0.0383722,-0.11269 0.011451,-0.00273004 0.0389789,0.0210062 0.0366281,0.00697677z"/>
   </g>
  </g>
  <polygon class="fil2" points="-0,0 1.9262,0 1.9262,1.9262 -0,1.9262 "/>
 </g>
</svg>
