<?xml version="1.0" encoding="UTF-8"?>
<!DOCTYPE svg PUBLIC "-//W3C//DTD SVG 1.1//EN" "http://www.w3.org/Graphics/SVG/1.1/DTD/svg11.dtd">
<!-- Creator: CorelDRAW -->
<svg xmlns="http://www.w3.org/2000/svg" xml:space="preserve" width="11.1578mm" height="11.1578mm" style="shape-rendering:geometricPrecision; text-rendering:geometricPrecision; image-rendering:optimizeQuality; fill-rule:evenodd; clip-rule:evenodd"
viewBox="0 0 8.35502 8.35502"
 xmlns:xlink="http://www.w3.org/1999/xlink">
 <defs>
  <style type="text/css">
   <![CDATA[
    .fil0 {fill:white}
    .fil1 {fill:black}
   ]]>
  </style>
 </defs>
 <g id="Layer_x0020_1">
  <metadata id="CorelCorpID_0Corel-Layer"/>
  <circle class="fil0" cx="4.17751" cy="4.17751" r="4.17751"/>
  <circle class="fil1" cx="4.17751" cy="4.17751" r="3.98739"/>
  <path class="fil0" d="M4.72721 3.62781l0 -1.3158c0,-0.288964 -0.235874,-0.524838 -0.524838,-0.524838l-0.0497207 0c-0.288964,0 -0.524838,0.235874 -0.524838,0.524838l0 1.3158 -1.3158 0c-0.288964,0 -0.524838,0.235874 -0.524838,0.524838l0 0.0497207c0,0.288964 0.235874,0.524838 0.524838,0.524838l1.3158 0 0 1.3158c0,0.288964 0.235874,0.524838 0.524838,0.524838l0.0497207 0c0.288964,0 0.524838,-0.235874 0.524838,-0.524838l0 -1.3158 1.3158 0c0.288964,0 0.524838,-0.235874 0.524838,-0.524838l0 -0.0497207c0,-0.288964 -0.235874,-0.524838 -0.524838,-0.524838l-1.3158 0z"/>
 </g>
</svg>
