<?xml version="1.0" encoding="UTF-8"?>
<!DOCTYPE svg PUBLIC "-//W3C//DTD SVG 1.1//EN" "http://www.w3.org/Graphics/SVG/1.1/DTD/svg11.dtd">
<!-- Creator: CorelDRAW -->
<svg xmlns="http://www.w3.org/2000/svg" xml:space="preserve" width="11.1578mm" height="11.1578mm" style="shape-rendering:geometricPrecision; text-rendering:geometricPrecision; image-rendering:optimizeQuality; fill-rule:evenodd; clip-rule:evenodd"
viewBox="0 0 28.5359 28.5359"
 xmlns:xlink="http://www.w3.org/1999/xlink">
 <defs>
  <style type="text/css">
   <![CDATA[
    .fil1 {fill:white}
    .fil0 {fill:black}
   ]]>
  </style>
 </defs>
 <g id="Layer_x0020_1">
  <metadata id="CorelCorpID_0Corel-Layer"/>
  <circle class="fil0" cx="14.268" cy="14.268" r="14.268"/>
  <circle class="fil1" cx="14.268" cy="14.268" r="13.6186"/>
  <path class="fil0" d="M16.1454 12.3905l0 -4.49401c0,-0.986934 -0.805608,-1.79254 -1.79254,-1.79254l-0.169817 0c-0.986934,0 -1.79254,0.805608 -1.79254,1.79254l0 4.49401 -4.49401 0c-0.986934,0 -1.79254,0.805608 -1.79254,1.79254l0 0.169817c0,0.986934 0.805608,1.79254 1.79254,1.79254l4.49401 0 0 4.49401c0,0.986934 0.805608,1.79254 1.79254,1.79254l0.169817 0c0.986934,0 1.79254,-0.805608 1.79254,-1.79254l0 -4.49401 4.49401 0c0.986934,0 1.79254,-0.805608 1.79254,-1.79254l0 -0.169817c0,-0.986934 -0.805608,-1.79254 -1.79254,-1.79254l-4.49401 0z"/>
 </g>
</svg>
