<?xml version="1.0" encoding="UTF-8"?>
<!DOCTYPE svg PUBLIC "-//W3C//DTD SVG 1.1//EN" "http://www.w3.org/Graphics/SVG/1.1/DTD/svg11.dtd">
<!-- Creator: CorelDRAW -->
<svg xmlns="http://www.w3.org/2000/svg" xml:space="preserve" width="208px" height="27px" shape-rendering="geometricPrecision" text-rendering="geometricPrecision" image-rendering="optimizeQuality" fill-rule="evenodd" clip-rule="evenodd"
viewBox="0 0 123.147 15.984"
 xmlns:xlink="http://www.w3.org/1999/xlink">
 <g id="Layer_x0020_1">
  <metadata id="CorelCorpID_0Corel-Layer"/>
  <path fill="#2350A0" fill-rule="nonzero" d="M64.8442 0.0818149l0.0734236 0c0.223068,0 0.427955,0.0629345 0.611863,0.188804 0.169923,0.116079 0.31677,0.284604 0.438444,0.504875l0.0209782 0.0468513c0.0293694,0.0825142 0.0517462,0.155238 0.0657316,0.216774 0.0181811,0.0790178 0.0272716,0.148246 0.0272716,0.206985l0 10.8618c0,0.236354 -0.0671302,0.448234 -0.200691,0.634939 -0.12517,0.174818 -0.305582,0.320267 -0.540538,0.434248l-0.0377607 0.015384c-0.0783185,0.0258731 -0.151742,0.0447534 -0.22097,0.0580396 -0.0783185,0.0146847 -0.150344,0.0216774 -0.216774,0.0216774 -0.244046,0 -0.460121,-0.0657316 -0.649624,-0.197894 -0.178314,-0.124471 -0.325861,-0.304883 -0.443339,-0.540538l-0.0118876 -0.0293694c-0.0237753,-0.0636338 -0.0496483,-0.106289 -0.0776192,-0.129365 -0.0125869,-0.00978981 -0.0321665,-0.015384 -0.0587389,-0.015384l-0.0174818 0c-0.0104891,0 -0.0265724,0.00419563 -0.0489491,0.0125869 -0.0377607,0.0146847 -0.0818149,0.03846 -0.131463,0.0699272l-0.00839127 0.00489491c-0.456625,0.274115 -0.918844,0.4804 -1.38596,0.617458 -0.473407,0.138456 -0.949612,0.207684 -1.42861,0.207684l-0.15384 0c-0.554523,0 -1.09786,-0.0874091 -1.63,-0.261528 -0.529349,-0.17342 -1.04471,-0.43215 -1.54749,-0.776192l-0.00839127 -0.00629345c-0.270618,-0.198593 -0.515364,-0.410473 -0.734935,-0.634939 -0.218173,-0.224466 -0.411172,-0.46152 -0.578998,-0.712559l0 0c-0.331455,-0.479701 -0.580396,-0.988771 -0.746823,-1.52721 -0.166427,-0.53844 -0.25034,-1.10275 -0.25034,-1.69294 0,-0.555222 0.0867098,-1.10135 0.25943,-1.637 0.171322,-0.530049 0.427255,-1.04681 0.767801,-1.54959l0.0125869 -0.0174818c0.253137,-0.323763 0.494386,-0.596479 0.724446,-0.81675 0.231459,-0.222369 0.454527,-0.395788 0.668504,-0.520259 0.207684,-0.155238 0.449632,-0.299289 0.725146,-0.429353 0.274814,-0.130764 0.581095,-0.246843 0.916047,-0.348238l0.015384 -0.00419563c0.255234,-0.0629345 0.50977,-0.111184 0.765004,-0.144749 0.258731,-0.0328658 0.507672,-0.0503476 0.747522,-0.0503476 0.510469,0 1.01464,0.0748222 1.51392,0.223767 0.483897,0.14405 0.9615,0.358727 1.43421,0.64403 0.0167825,0.00489491 0.0321665,0.00978981 0.046152,0.0125869 0,0 0,0.000699272 0,0.000699272 -0.00139854,0 -0.00909054,0 -0.00489491,0l0.00419563 0 0.000699272 0 -0.000699272 0c0.0279709,-0.000699272 0.0482498,-0.00559418 0.0622353,-0.0160833 0.0202789,-0.015384 0.0391593,-0.0412571 0.0566411,-0.0776192l0.00139854 -0.015384c0.000699272,-0.0111884 0.00139854,-0.0202789 0.00139854,-0.0272716l0 -1.43491c0,-0.299289 0.0587389,-0.555222 0.174818,-0.767102 0.123771,-0.225166 0.30768,-0.392991 0.551726,-0.504175l0.0314673 -0.0125869c0.0853112,-0.0279709 0.158036,-0.0489491 0.216774,-0.0622353 0.0748222,-0.0160833 0.141253,-0.0244745 0.199992,-0.0244745zm49.0169 4.59072c-0.188804,0.233557 -0.358727,0.479002 -0.506973,0.736334 -0.141253,0.246144 -0.263626,0.504175 -0.361524,0.774794 -0.0971989,0.265724 -0.169224,0.537741 -0.217474,0.814652 -0.0482498,0.280408 -0.0727243,0.565711 -0.0727243,0.854511 0,0.159434 0.00978981,0.31747 0.0272716,0.473407 0.0181811,0.156637 0.0440542,0.313274 0.0776192,0.468513 0.0370614,0.17342 0.0832134,0.345441 0.136358,0.515364 0.0531447,0.169224 0.113981,0.335651 0.179713,0.499281l0 0c0.0321665,0.0699272 0.0657316,0.137057 0.099996,0.20139 0.0377607,0.0706265 0.0741229,0.136358 0.109786,0.197894 0.0426556,0.0741229 0.0895069,0.151742 0.140554,0.233557 0.0496483,0.0790178 0.0985974,0.154539 0.146148,0.227264 0.0706265,0.0978981 0.145449,0.193698 0.223767,0.286002 0.0790178,0.0937025 0.161532,0.183209 0.246843,0.269919 0.0937025,0.0944018 0.190901,0.186006 0.290198,0.272716 0.099996,0.0874091 0.202789,0.172021 0.30768,0.253137 0.22097,0.152441 0.450331,0.290198 0.688783,0.411172 0.227264,0.11538 0.46152,0.214677 0.70207,0.295093 0.233557,0.0776192 0.47131,0.136358 0.712559,0.176217 0.237053,0.03846 0.477603,0.0580396 0.721649,0.0580396l0.160833 0c0.139854,0 0.27831,-0.007692 0.413969,-0.0223767 0.14405,-0.0160833 0.287401,-0.0391593 0.428654,-0.069228 0.151043,-0.0314673 0.300687,-0.0713258 0.448933,-0.117478 0.148945,-0.0468513 0.295093,-0.0992967 0.438444,-0.157336l0 0 0.0111884 -0.00419563 0.00419563 -0.00209782 0.0111884 -0.00349636c0.0860105,-0.030768 0.168525,-0.0664309 0.248242,-0.104192 0.0804163,-0.0391593 0.161532,-0.0825142 0.24055,-0.127268 0.0573403,-0.0328658 0.112583,-0.0657316 0.167126,-0.0985974 0.0524454,-0.0328658 0.106989,-0.0678294 0.16363,-0.10559l0 0.000699272 0.271318 -0.189503c0.0636338,-0.0447534 0.127268,-0.0944018 0.190202,-0.147546 0.0622353,-0.0524454 0.123072,-0.107688 0.181811,-0.16363 0.0790178,-0.0755214 0.156637,-0.154539 0.232158,-0.234956 0.07692,-0.0818149 0.150344,-0.164329 0.222369,-0.246843l0.00209782 -0.00279709c0.0671302,-0.0867098 0.133561,-0.176217 0.198593,-0.26922 0.0664309,-0.0951011 0.129365,-0.188104 0.186706,-0.279709 0.046152,-0.0741229 0.092304,-0.151043 0.135659,-0.231459 0.0419563,-0.0762207 0.0818149,-0.155938 0.118177,-0.237753l0 0c0.0482498,-0.117478 0.0971989,-0.239151 0.143351,-0.36572 0.046152,-0.12517 0.0881083,-0.248941 0.123771,-0.369915l0 0c0.0188804,-0.0664309 0.0398585,-0.141253 0.0559418,-0.217474 0.0160833,-0.0741229 0.0272716,-0.146847 0.0286702,-0.21118l0.00139854 -0.0321665c-0.000699272,-0.00909054 -0.00139854,-0.0188804 -0.00279709,-0.0300687 -0.000699272,-0.0111884 -0.00279709,-0.0223767 -0.00489491,-0.0328658 -0.00139854,-0.00909054 -0.00349636,-0.0174818 -0.00559418,-0.0258731 -0.00279709,-0.007692 -0.00489491,-0.015384 -0.007692,-0.0216774l-0.0244745 -0.0573403c-0.0202789,-0.0440542 -0.0447534,-0.0853112 -0.0734236,-0.122373 -0.0279709,-0.0363622 -0.0601374,-0.0685287 -0.0978981,-0.0944018 -0.0426556,-0.0293694 -0.0888076,-0.0489491 -0.137757,-0.0608367 -0.0517462,-0.0132862 -0.106289,-0.0181811 -0.16293,-0.0181811 -0.0279709,0 -0.0545433,0.00279709 -0.0804163,0.00909054 -0.0265724,0.00559418 -0.0531447,0.0146847 -0.0797171,0.0265724 -0.0342644,0.015384 -0.0678294,0.0342644 -0.0985974,0.0552425 -0.0314673,0.0209782 -0.0622353,0.0447534 -0.0909054,0.0699272 -0.0146847,0.0167825 -0.0286702,0.03846 -0.0419563,0.0622353 -0.0160833,0.0279709 -0.0293694,0.0587389 -0.0405578,0.0860105 -0.0209782,0.0510469 -0.0398585,0.106989 -0.0559418,0.164329 -0.0167825,0.0580396 -0.030768,0.116079 -0.0433549,0.174119l-0.00699272 0.030768 -0.00279709 0.0104891 -0.0104891 0.030768c-0.0258731,0.0783185 -0.0531447,0.155938 -0.0811156,0.23076 -0.0286702,0.0783185 -0.0594382,0.155238 -0.092304,0.229361 -0.0265724,0.0608367 -0.0545433,0.121673 -0.084612,0.180412 -0.0279709,0.0559418 -0.0594382,0.113282 -0.0937025,0.169923l-0.00349636 0.00699272c-0.0335651,0.0741229 -0.0762207,0.145449 -0.123072,0.213977 -0.0454527,0.0664309 -0.0951011,0.130065 -0.143351,0.189503 -0.0727243,0.0909054 -0.149644,0.178314 -0.227264,0.263626 -0.07692,0.0832134 -0.157336,0.166427 -0.238452,0.248242l-0.0202789 0.0209782 -0.007692 0.00699272 -0.0223767 0.0188804c-0.183209,0.151742 -0.376209,0.291597 -0.579697,0.415368 -0.1923,0.116079 -0.392991,0.217474 -0.601374,0.299988 -0.206985,0.0818149 -0.419563,0.143351 -0.635639,0.184608 -0.215376,0.0412571 -0.434248,0.0622353 -0.655218,0.0622353l-0.202789 0c-0.141253,0 -0.283905,-0.0104891 -0.425857,-0.0300687 -0.147546,-0.0195796 -0.292296,-0.0496483 -0.434947,-0.0874091 -0.148945,-0.0405578 -0.296492,-0.0895069 -0.440542,-0.146148 -0.141952,-0.0552425 -0.283205,-0.118876 -0.422361,-0.188804l-0.0419563 -0.0209782 -0.0139854 -0.00839127 -0.03846 -0.0279709c-0.0454527,-0.0328658 -0.0881083,-0.0685287 -0.127268,-0.108387 -0.0398585,-0.0405578 -0.0762207,-0.084612 -0.106989,-0.133561 -0.0405578,-0.0622353 -0.069228,-0.123072 -0.0881083,-0.186706 -0.0188804,-0.0650323 -0.0272716,-0.131463 -0.0272716,-0.204887l0 -0.0594382c0,-0.150344 0.0321665,-0.225166 0.0601374,-0.292296l0 0 0.000699272 -0.00209782 0.000699272 -0.000699272c0.0363622,-0.0853112 0.0405578,-0.0916047 0.084612,-0.153141l0.00839127 -0.0125869 0 0 0.0580396 -0.0825142 0.0251738 -0.0244745 0.0818149 -0.0587389 0.092304 -0.0664309c0.155938,-0.111184 0.312575,-0.223068 0.491589,-0.353832 0.0223767,-0.015384 0.0447534,-0.0321665 0.0629345,-0.0475505 0.0195796,-0.015384 0.03846,-0.0314673 0.0552425,-0.0482498l0.0132862 -0.0111884 0.565711 -0.397187 0 0c0.515364,-0.36572 1.03003,-0.732138 1.54469,-1.09856 0.514665,-0.366419 1.03003,-0.733537 1.54399,-1.10065 0.180412,-0.128666 0.360125,-0.257332 0.540538,-0.385998 0.198593,-0.141952 0.383201,-0.274115 0.539139,-0.385998 0.0496483,-0.0356629 0.0839127,-0.0601374 0.117478,-0.0839127 0.0916047,-0.0650323 0.184608,-0.130764 0.274115,-0.199293 0.0251738,-0.0279709 0.0496483,-0.0573403 0.0727243,-0.0895069 0.023076,-0.0321665 0.0440542,-0.0657316 0.0601374,-0.099996 0.0104891,-0.0223767 0.0188804,-0.0454527 0.0258731,-0.069228l0 0c0.00489491,-0.0181811 0.00909054,-0.0370614 0.0111884,-0.0559418l-0.00629345 -0.0286702 -0.00209782 -0.0209782 0 -0.0958003 -0.000699272 0c0,-0.0132862 -0.00839127,-0.03846 -0.0202789,-0.0671302l0 0c-0.023076,-0.0552425 -0.0545433,-0.111884 -0.0734236,-0.143351 -0.0531447,-0.0874091 -0.118177,-0.176217 -0.187405,-0.262926 -0.0706265,-0.0895069 -0.14405,-0.17342 -0.214677,-0.251039l0 0 -0.0118876 -0.0132862c-0.238452,-0.235655 -0.493686,-0.45173 -0.765004,-0.641233 -0.272017,-0.190202 -0.562215,-0.35523 -0.872692,-0.488791 -0.299289,-0.128666 -0.604871,-0.223068 -0.916047,-0.286002 -0.318868,-0.0636338 -0.646128,-0.0951011 -0.98038,-0.0951011 -0.260829,0 -0.518161,0.0202789 -0.770598,0.061536 -0.251738,0.0405578 -0.49998,0.101395 -0.744725,0.183209 -0.248941,0.0839127 -0.488791,0.186706 -0.719551,0.30768 -0.239151,0.12517 -0.469911,0.26922 -0.69228,0.430752l0 -0.000699272 -0.00978981 0.007692 -0.00349636 0.00279709 -0.0104891 0.00629345c-0.0496483,0.0328658 -0.0978981,0.0713258 -0.144749,0.111184 -0.0489491,0.0412571 -0.0971989,0.0853112 -0.141952,0.127268 -0.0790178,0.0734236 -0.159434,0.151742 -0.241249,0.233557 -0.0776192,0.0776192 -0.155238,0.158036 -0.232858,0.23985zm1.52371 4.09284l-0.0293694 0.0237753 -0.000699272 0.000699272 -0.0342644 0.0272716 -0.00419563 0.00279709 -0.268521 0.191601c-0.0643331,0.0503476 -0.133561,0.0895069 -0.209082,0.116079 -0.0741229,0.0265724 -0.152441,0.0405578 -0.234256,0.0405578 -0.0510469,0 -0.104192,-0.00419563 -0.157336,-0.0125869 -0.053844,-0.00909054 -0.106289,-0.0223767 -0.156637,-0.0405578 -0.0629345,-0.023076 -0.10559,-0.0412571 -0.146847,-0.0664309 -0.0419563,-0.0251738 -0.0762207,-0.0545433 -0.123072,-0.0985974l-0.00629345 -0.00559418 0 0.000699272c-0.0755214,-0.0636338 -0.133561,-0.138456 -0.174818,-0.221669 -0.0419563,-0.084612 -0.0657316,-0.176217 -0.0741229,-0.274115 -0.0209782,-0.103492 -0.0328658,-0.210481 -0.0398585,-0.31747 -0.007692,-0.110485 -0.00909054,-0.218173 -0.00909054,-0.320966 0,-0.258032 0.0251738,-0.513965 0.0762207,-0.766403l0 0c0.0503476,-0.248242 0.125869,-0.490889 0.227264,-0.725146 0.101395,-0.236354 0.227963,-0.460121 0.373412,-0.672001 0.153141,-0.223068 0.32656,-0.430752 0.516063,-0.623052l0.0195796 -0.0202789 0.00699272 -0.00629345 0.0209782 -0.0174818 0 0c0.186706,-0.157336 0.383901,-0.302785 0.591585,-0.430752 0.196496,-0.121673 0.402082,-0.227264 0.61536,-0.313973 0.21188,-0.0853112 0.429353,-0.151043 0.651023,-0.195097 0.218872,-0.0433549 0.44194,-0.0650323 0.667106,-0.0650323l0.202789 0c0.143351,0 0.286702,0.0104891 0.429353,0.0300687 0.145449,0.0202789 0.290897,0.0510469 0.434248,0.0902062 0.151043,0.0412571 0.29789,0.0916047 0.441241,0.148945 0.141952,0.0566411 0.282506,0.121673 0.420263,0.1923l0.000699272 -0.000699272 0.0454527 0.0237753 0.015384 0.00978981 0.0405578 0.030768 0.0300687 0.0216774c0.0776192,0.0573403 0.109087,0.0797171 0.195097,0.220271l0.000699272 0c0.0510469,0.0853112 0.0776192,0.16293 0.0909054,0.228662 0.0139854,0.0664309 0.0139854,0.116079 0.0139854,0.147546l0 0.0594382 0 0.00909054 -0.000699272 0c0,0.112583 0,0.17342 -0.0727243,0.330756l-0.000699272 0.000699272c-0.0636338,0.137057 -0.0902062,0.162231 -0.16363,0.232858l-0.0146847 0.0146847 -0.0321665 0.0314673 -0.0125869 0.0104891 -0.0370614 0.0258731c-0.482498,0.344741 -0.964996,0.689483 -1.44819,1.03422 -0.483197,0.344042 -0.966395,0.688084 -1.44959,1.03143l-0.43285 0.30768 -0.43285 0.30768c-0.0216774,0.0160833 -0.0468513,0.0342644 -0.0734236,0.053844 -0.0783185,0.0580396 -0.176217,0.130065 -0.258731,0.179713l0 0 -0.0279709 0.0167825zm2.18802 -6.60813c0.390893,0 0.771298,0.0370614 1.14121,0.111884 0.370614,0.0748222 0.728642,0.186006 1.07338,0.334252 0.343343,0.148246 0.675497,0.332854 0.995065,0.555222 0.320267,0.221669 0.626548,0.479002 0.919543,0.771997l0.00699272 0.00909054 0.00699272 0.00839127c0.107688,0.118876 0.20209,0.23076 0.282506,0.334952 0.0818149,0.10559 0.151742,0.205586 0.209782,0.299988 0.069228,0.114681 0.121673,0.223068 0.155938,0.324462 0.0370614,0.106989 0.0552425,0.206985 0.0552425,0.302086l-0.000699272 0 0 0.0251738 0.00978981 0.0734236 0.00139854 0.0132862c0,0.0860105 -0.00978981,0.170622 -0.0293694,0.255234l0 0c-0.0195796,0.0832134 -0.0482498,0.165028 -0.0867098,0.246843 -0.0349636,0.0741229 -0.0776192,0.146148 -0.127268,0.216774 -0.0489491,0.0699272 -0.106289,0.138456 -0.170622,0.206285l-0.00629345 0.00559418 -0.0342644 0.030768 -0.00489491 0.00419563c-0.0349636,0.0272716 -0.183909,0.13496 -0.446835,0.324462 -0.267122,0.191601 -0.626548,0.448933 -1.07408,0.7685 -0.729341,0.520259 -1.45798,1.04052 -2.18593,1.56148 -0.722348,0.516063 -1.4447,1.03283 -2.16635,1.54889l0 0.0146847c0.00279709,0.00209782 0.00559418,0.00489491 0.00839127,0.00699272 0.118876,0.0594382 0.237053,0.111884 0.353832,0.156637 0.116779,0.046152 0.233557,0.0839127 0.348937,0.11538 0.113282,0.0300687 0.223767,0.0524454 0.332154,0.0678294 0.106989,0.0146847 0.213977,0.0223767 0.320267,0.0223767l0.202789 0c0.171322,0 0.339846,-0.0160833 0.504875,-0.0475505 0.166427,-0.0321665 0.330057,-0.0797171 0.491589,-0.143351 0.16293,-0.0643331 0.324462,-0.145449 0.483897,-0.242648 0.159434,-0.0964996 0.31747,-0.209782 0.472009,-0.338448 0.084612,-0.0853112 0.161532,-0.166427 0.23076,-0.242648 0.0699272,-0.0762207 0.130065,-0.145449 0.179713,-0.206985 0.0440542,-0.0545433 0.0811156,-0.103492 0.109087,-0.146148 0.0258731,-0.0377607 0.0433549,-0.0685287 0.0524454,-0.0909054l0.00419563 -0.007692 0.0244745 -0.0482498 0.00419563 -0.007692c0.0244745,-0.0391593 0.0482498,-0.0811156 0.0713258,-0.126568 0.0237753,-0.046152 0.0475505,-0.0964996 0.0713258,-0.150344 0.0237753,-0.053844 0.0475505,-0.113981 0.0727243,-0.179713 0.0244745,-0.0664309 0.0489491,-0.13426 0.0720251,-0.203488 0.0188804,-0.0888076 0.0405578,-0.172021 0.0636338,-0.25034 0.023076,-0.0776192 0.0489491,-0.151742 0.07692,-0.220271 0.0335651,-0.0811156 0.0699272,-0.154539 0.110485,-0.220271 0.0412571,-0.0671302 0.0867098,-0.127268 0.135659,-0.179014l0.0167825 -0.0188804 0.00699272 -0.00629345c0.0671302,-0.0608367 0.136358,-0.114681 0.206985,-0.161532 0.0706265,-0.0468513 0.141952,-0.0860105 0.214677,-0.118177 0.0790178,-0.0349636 0.158735,-0.0608367 0.239151,-0.0783185 0.0811156,-0.0174818 0.16293,-0.0265724 0.245445,-0.0265724 0.143351,0 0.27831,0.0188804 0.404179,0.0552425 0.127268,0.0370614 0.244745,0.0930032 0.352433,0.166427 0.106289,0.0734236 0.199293,0.162231 0.279709,0.267122 0.0797171,0.104192 0.146847,0.223068 0.20139,0.357328l0.0398585 0.0978981 -0.00419563 0.00139854 0.000699272 0.00279709c0.00978981,0.0342644 0.0188804,0.0706265 0.0258731,0.107688 0.00699272,0.0363622 0.0118876,0.0741229 0.0160833,0.111884 0.00349636,0.0398585 0.00559418,0.0776192 0.00559418,0.111884l0 0.0314673 -0.00209782 0.0174818 0 0.00209782c-0.00279709,0.0839127 -0.0139854,0.177615 -0.0328658,0.279709 -0.0195796,0.104891 -0.0475505,0.219572 -0.0839127,0.344741 -0.0349636,0.117478 -0.0762207,0.244046 -0.12517,0.379705 -0.0489491,0.13426 -0.10559,0.27901 -0.169923,0.435647l0 0 -0.00209782 0.00559418 -0.00139854 0.00349636c-0.0398585,0.0909054 -0.0853112,0.184608 -0.137757,0.281108 -0.0510469,0.0958003 -0.109786,0.196496 -0.175517,0.300687l0 0c-0.0671302,0.106989 -0.137057,0.21188 -0.208383,0.313973 -0.0755214,0.106989 -0.154539,0.213977 -0.237053,0.320267l-0.00489491 0.00559418 -0.0111884 0.0118876 0 0c-0.0895069,0.103492 -0.176217,0.199293 -0.25943,0.2881 -0.084612,0.0895069 -0.167126,0.17272 -0.246843,0.248941 -0.0797171,0.0755214 -0.159434,0.146847 -0.238452,0.212579 -0.0475505,0.0391593 -0.0937025,0.0762207 -0.139854,0.111184l0.000699272 0.000699272 -0.0874091 0.0629345c-0.113981,0.0825142 -0.227264,0.160833 -0.340546,0.234256 -0.111184,0.0720251 -0.219572,0.138456 -0.325861,0.198593 -0.109786,0.0622353 -0.215376,0.117478 -0.31677,0.165728 -0.104192,0.0489491 -0.203488,0.0902062 -0.298589,0.124471l0 0c-0.170622,0.0685287 -0.340546,0.129365 -0.50907,0.181112 -0.170622,0.0531447 -0.340546,0.0971989 -0.50977,0.132862 -0.172021,0.0363622 -0.341944,0.0636338 -0.510469,0.0818149 -0.169224,0.0188804 -0.335651,0.0279709 -0.497882,0.0279709l-0.160833 0c-0.284604,0 -0.567809,-0.023076 -0.850315,-0.069228 -0.280408,-0.046152 -0.559418,-0.11538 -0.837029,-0.207684 -0.274814,-0.0909054 -0.546132,-0.204188 -0.811855,-0.339846 -0.267122,-0.13496 -0.530748,-0.292995 -0.790877,-0.472708l-0.00209782 -0.00139854 -0.0132862 -0.0104891 -0.00209782 -0.00139854c-0.127268,-0.0978981 -0.247542,-0.196496 -0.360125,-0.295792 -0.113282,-0.0992967 -0.222369,-0.20209 -0.32726,-0.308379 -0.104891,-0.106289 -0.204188,-0.214677 -0.296492,-0.324462 -0.0930032,-0.109786 -0.180412,-0.223068 -0.262227,-0.337749l-0.00209782 -0.00349636 -0.00489491 -0.00699272c-0.0587389,-0.0874091 -0.113981,-0.17272 -0.165728,-0.255934 -0.0496483,-0.0804163 -0.099996,-0.16363 -0.150344,-0.251039 -0.0489491,-0.084612 -0.0937025,-0.166427 -0.13496,-0.245445 -0.0426556,-0.0811156 -0.0804163,-0.157336 -0.113282,-0.227963l-0.00139854 -0.00349636 -0.00629345 -0.0146847 0 -0.00139854c-0.0804163,-0.197894 -0.150344,-0.392991 -0.209782,-0.584592 -0.0601374,-0.1923 -0.109786,-0.382502 -0.150344,-0.569907 -0.0405578,-0.190202 -0.0713258,-0.378306 -0.0916047,-0.562914 -0.0202789,-0.186006 -0.030768,-0.368517 -0.030768,-0.546831 0,-0.337749 0.0279709,-0.668504 0.084612,-0.992967 0.0566411,-0.323763 0.141253,-0.641233 0.253836,-0.95171 0.112583,-0.30768 0.252437,-0.607668 0.420962,-0.900663 0.168525,-0.292296 0.364321,-0.576201 0.587389,-0.851714l0.00209782 -0.00279709 0.0160833 -0.0181811 0.00279709 -0.00419563c0.0964996,-0.101395 0.188804,-0.195796 0.276912,-0.283905 0.084612,-0.0839127 0.166427,-0.16363 0.246843,-0.237053 0.07692,-0.0720251 0.147546,-0.133561 0.209782,-0.185307 0.0622353,-0.0510469 0.118876,-0.0930032 0.168525,-0.127268l0.00559418 -0.00349636c0.257332,-0.187405 0.523056,-0.351734 0.795073,-0.494386 0.272017,-0.141253 0.550327,-0.260129 0.833533,-0.35523 0.285303,-0.0951011 0.576201,-0.167126 0.871993,-0.214677 0.295792,-0.0482498 0.59578,-0.0720251 0.898565,-0.0720251zm-3.05232 5.65362c0,0.109786 0.00279709,0.204887 0.00909054,0.285303 0.00559418,0.0818149 0.0139854,0.149644 0.0251738,0.202789 0.00489491,0.0244745 0.007692,0.0433549 0.00978981,0.0587389l0.00139854 0.00139854 0.000699272 0.000699272c0.000699272,0.000699272 0,0 0.000699272,0l0.00139854 0.000699272 0.0377607 -0.023076c0.0405578,-0.0244745 0.0860105,-0.0545433 0.135659,-0.0916047 0.0524454,-0.03846 0.109786,-0.0832134 0.172021,-0.133561l0.0118876 -0.00839127 0.0713258 -0.0433549 0.0125869 -0.00559418c0.00909054,-0.00419563 0.0475505,-0.0370614 0.162231,-0.118876 0.183209,-0.130065 0.506273,-0.360125 0.972688,-0.69158 0.350336,-0.248941 0.777591,-0.552425 1.28037,-0.911152 0.469911,-0.334952 1.00625,-0.717454 1.60903,-1.14821l0.00349636 -0.00419563 0 -0.00279709 0 -0.0279709 -0.000699272 -0.00139854c-0.123072,-0.0622353 -0.241948,-0.116079 -0.35523,-0.161532 -0.118177,-0.0468513 -0.232858,-0.0860105 -0.345441,-0.116779 -0.110485,-0.0300687 -0.220271,-0.0531447 -0.330057,-0.0685287 -0.106989,-0.0146847 -0.214677,-0.0223767 -0.321665,-0.0223767l-0.202789 0c-0.17272,0 -0.344042,0.0167825 -0.513266,0.0503476 -0.169224,0.0335651 -0.337049,0.0839127 -0.502777,0.151043 -0.169224,0.069228 -0.33635,0.15384 -0.49998,0.255234 -0.16363,0.101395 -0.32656,0.220271 -0.487393,0.35523 -0.160133,0.16363 -0.299988,0.332154 -0.419563,0.506273 -0.120275,0.174119 -0.220271,0.353832 -0.300687,0.539838 -0.0797171,0.184608 -0.139155,0.37481 -0.178314,0.568509 -0.0398585,0.194398 -0.0594382,0.396488 -0.0594382,0.604871zm-4.73827 -6.96685c-0.0188804,0.00209782 -0.0398585,0.00419563 -0.0643331,0.007692 -0.0223767,0.00279709 -0.0447534,0.00699272 -0.0650323,0.0118876 -0.00489491,0.00139854 -0.0118876,0.00279709 -0.0174818,0.00489491 -0.00209782,0.000699272 -0.00279709,0 -0.00349636,0.000699272l-0.0237753 0.0132862 -0.00978981 0.00419563 -0.0265724 0.0118876c-0.0391593,0.0167825 -0.0727243,0.0370614 -0.101395,0.0622353 -0.0272716,0.023076 -0.0510469,0.0524454 -0.0713258,0.0888076l0 0c-0.0286702,0.0517462 -0.0475505,0.111184 -0.0587389,0.17272 -0.0118876,0.0643331 -0.0160833,0.132862 -0.0160833,0.197894l0 10.6954c0,0.0349636 0.000699272,0.0657316 0.00209782,0.0937025l0 0c0.00139854,0.030768 0.00419563,0.061536 0.00699272,0.092304 0.00209782,0.015384 0.00419563,0.0335651 0.007692,0.0552425 0.00209782,0.0146847 0.00419563,0.0279709 0.00629345,0.0398585 0.023076,0.0433549 0.0489491,0.0853112 0.0783185,0.123771 0.030768,0.0398585 0.0657316,0.0755214 0.10559,0.103492 0.0314673,0.0223767 0.0643331,0.0391593 0.0978981,0.0496483 0.0321665,0.0104891 0.0671302,0.0167825 0.103492,0.0181811 0.0209782,-0.00209782 0.0426556,-0.00489491 0.0671302,-0.007692l0 0c0.0244745,-0.00349636 0.0482498,-0.007692 0.0699272,-0.0125869l0 0c0.007692,-0.00139854 0.0174818,-0.00419563 0.0272716,-0.00699272l0.000699272 0c0.00559418,-0.00139854 0.0104891,-0.00279709 0.0132862,-0.00419563l0.00909054 -0.00489491 0.00419563 -0.00209782 0.0118876 -0.00489491c0.0398585,-0.0188804 0.0741229,-0.0398585 0.102094,-0.0650323 0.0272716,-0.0251738 0.0510469,-0.0559418 0.0713258,-0.0930032 0.0286702,-0.0524454 0.0468513,-0.112583 0.0587389,-0.175517 0.0111884,-0.0643331 0.015384,-0.132862 0.015384,-0.199293l0 -10.6954c0,-0.0335651 -0.000699272,-0.0636338 -0.00139854,-0.0895069 -0.00209782,-0.030768 -0.00419563,-0.0608367 -0.00699272,-0.0909054 -0.00209782,-0.0160833 -0.00419563,-0.0349636 -0.007692,-0.0573403 -0.00279709,-0.015384 -0.00489491,-0.0300687 -0.007692,-0.0426556 -0.0216774,-0.0440542 -0.0468513,-0.0867098 -0.0762207,-0.12517 -0.0300687,-0.0405578 -0.0636338,-0.0762207 -0.102793,-0.104192 -0.030768,-0.0223767 -0.0622353,-0.03846 -0.0951011,-0.0489491 -0.0321665,-0.0104891 -0.0664309,-0.0160833 -0.103492,-0.0174818zm-0.0244745 -0.804863c0.129365,0 0.251738,0.0181811 0.367118,0.0545433 0.116079,0.0370614 0.224466,0.0916047 0.325861,0.164329 0.0944018,0.0685287 0.179713,0.151043 0.255934,0.247542 0.0741229,0.0944018 0.140554,0.204188 0.198593,0.328658l0.007692 0.0237753 0.0601374 0.289499 0.00139854 0.0104891c0.00489491,0.0433549 0.007692,0.0874091 0.0104891,0.131463 0.00209782,0.0475505 0.00349636,0.0909054 0.00349636,0.130764l0 10.6954c0,0.145449 -0.0146847,0.281108 -0.0426556,0.407676 -0.0286702,0.127967 -0.0727243,0.244745 -0.130764,0.351734 -0.0608367,0.112583 -0.137057,0.210481 -0.227963,0.295093 -0.0909054,0.0839127 -0.195796,0.153141 -0.313973,0.207684 -0.0321665,0.0167825 -0.0664309,0.030768 -0.104192,0.0440542 -0.0370614,0.0125869 -0.0783185,0.0237753 -0.124471,0.0342644 -0.03846,0.00839127 -0.0776192,0.0160833 -0.117478,0.0216774 -0.0377607,0.00559418 -0.0818149,0.0104891 -0.131463,0.015384l-0.000699272 0.000699272 -0.0279709 0.00209782 -0.00909054 0.000699272c-0.128666,0 -0.25034,-0.0181811 -0.366419,-0.0545433 -0.116079,-0.0363622 -0.225166,-0.0909054 -0.32656,-0.16293 -0.0951011,-0.0678294 -0.181811,-0.150344 -0.25943,-0.246843 -0.07692,-0.0958003 -0.14405,-0.204887 -0.202789,-0.32726l-0.00419563 -0.0111884 -0.0195796 -0.0566411 -0.00209782 -0.00839127c-0.0104891,-0.0398585 -0.0188804,-0.0797171 -0.0258731,-0.118177 -0.00699272,-0.0398585 -0.0125869,-0.0818149 -0.0167825,-0.127268 -0.00489491,-0.0440542 -0.00839127,-0.0888076 -0.0104891,-0.133561l0 -0.000699272c-0.00279709,-0.0482498 -0.00349636,-0.0930032 -0.00349636,-0.133561l0 -10.6954c0,-0.146847 0.0146847,-0.283905 0.0433549,-0.411172 0.0293694,-0.127967 0.0741229,-0.245445 0.133561,-0.351734 0.0629345,-0.111884 0.141253,-0.209782 0.234256,-0.292995 0.0909054,-0.0811156 0.195796,-0.148246 0.315372,-0.200691 0.030768,-0.0167825 0.0636338,-0.0321665 0.0985974,-0.0454527 0.0356629,-0.0132862 0.0741229,-0.0251738 0.11538,-0.0349636 0.0349636,-0.00909054 0.0755214,-0.0167825 0.120974,-0.0237753 0.0468513,-0.007692 0.0937025,-0.0132862 0.139854,-0.0174818l0 0.000699272 0.0265724 -0.00279709 0.00978981 -0.000699272zm-3.80684 0.819547c-0.0755214,0.0321665 -0.149644,0.0713258 -0.216075,0.118177l-0.000699272 0c-0.0650323,0.0454527 -0.123771,0.0992967 -0.169923,0.16293 -0.0398585,0.0552425 -0.0678294,0.113282 -0.0853112,0.174119l-0.000699272 0c-0.0174818,0.061536 -0.0251738,0.128666 -0.0251738,0.20139l0 0.0909054c0,0.0160833 0.000699272,0.030768 0.00279709,0.0433549 0.00139854,0.0139854 0.00419563,0.030768 0.007692,0.0475505 0.00419563,0.0181811 0.00909054,0.0377607 0.015384,0.0573403l0 0.000699272c0.00629345,0.0188804 0.0132862,0.03846 0.0202789,0.0573403l0.000699272 0.000699272c0.0328658,0.0671302 0.0713258,0.132862 0.118177,0.192999 0.0454527,0.0587389 0.0985974,0.111184 0.158735,0.151742 0.0573403,0.0391593 0.118177,0.0657316 0.181811,0.0832134 0.0657316,0.0174818 0.13426,0.0251738 0.207684,0.0251738 0.0272716,0 0.0531447,-0.00139854 0.0776192,-0.00419563 0.0265724,-0.00279709 0.0531447,-0.00699272 0.0797171,-0.0125869 0.0237753,-0.00489491 0.0475505,-0.0118876 0.0727243,-0.0195796 0.0237753,-0.00699272 0.0447534,-0.0146847 0.0643331,-0.0223767 0.0629345,-0.0377607 0.124471,-0.0797171 0.179014,-0.127268 0.0552425,-0.0475505 0.104891,-0.100695 0.143351,-0.159434 0.0321665,-0.0482498 0.0552425,-0.0978981 0.0706265,-0.149644 0.0146847,-0.0510469 0.0216774,-0.106289 0.0216774,-0.165028l0 -0.101395c0,-0.0202789 -0.000699272,-0.0398585 -0.00209782,-0.0594382 -0.00139854,-0.0188804 -0.00419563,-0.03846 -0.007692,-0.0573403l0 0 -0.007692 -0.0321665c-0.00489491,-0.0216774 -0.0118876,-0.0440542 -0.0202789,-0.0671302 -0.00839127,-0.0216774 -0.0181811,-0.0433549 -0.0286702,-0.0629345l-0.007692 -0.0146847c-0.0349636,-0.0580396 -0.0755214,-0.11538 -0.121673,-0.167126 -0.0440542,-0.0496483 -0.0937025,-0.0944018 -0.149644,-0.129365 -0.0503476,-0.0321665 -0.102793,-0.0552425 -0.156637,-0.0699272 -0.0552425,-0.0146847 -0.113981,-0.0216774 -0.175517,-0.0216774l-0.0629345 0c-0.0132862,0 -0.0265724,0.000699272 -0.0391593,0.00279709 -0.0160833,0.00139854 -0.0300687,0.00419563 -0.0433549,0.00629345l0 0c-0.0195796,0.00419563 -0.0370614,0.007692 -0.0531447,0.0118876 -0.0146847,0.00419563 -0.030768,0.00909054 -0.0482498,0.0146847zm-0.230061 11.559c0.0286702,0.0426556 0.0608367,0.084612 0.0964996,0.123072 0.0349636,0.0377607 0.0727243,0.0706265 0.112583,0.0958003 0.030768,0.0188804 0.061536,0.0328658 0.0930032,0.0419563 0.0314673,0.00909054 0.0650323,0.0132862 0.101395,0.0132862l0.0839127 0 0 0.000699272c0.00209782,0 0.00839127,-0.00139854 0.0160833,-0.00279709 0.00629345,-0.000699272 0.0188804,-0.00349636 0.0300687,-0.00629345 0.0195796,-0.00419563 0.0391593,-0.00978981 0.0587389,-0.0160833 0.0174818,-0.00559418 0.0349636,-0.0118876 0.0524454,-0.0174818 0.0440542,-0.0265724 0.0874091,-0.0559418 0.127268,-0.0895069 0.0398585,-0.0342644 0.0762207,-0.0720251 0.104192,-0.113282 0.023076,-0.0342644 0.0398585,-0.0685287 0.0496483,-0.103492 0.0104891,-0.0356629 0.015384,-0.0741229 0.015384,-0.116079l0 -7.42557c0,-0.0174818 -0.00139854,-0.0349636 -0.00489491,-0.0517462l0 0c-0.00349636,-0.0181811 -0.00909054,-0.0370614 -0.015384,-0.0552425 -0.00839127,-0.0244745 -0.0188804,-0.0482498 -0.0300687,-0.0720251l0 -0.000699272c-0.0111884,-0.0223767 -0.0237753,-0.0433549 -0.0356629,-0.0643331 -0.0272716,-0.030768 -0.0566411,-0.0608367 -0.0874091,-0.0881083 -0.0314673,-0.0272716 -0.0650323,-0.0517462 -0.099996,-0.0706265 -0.0251738,-0.0139854 -0.0496483,-0.0244745 -0.0755214,-0.0314673 -0.0237753,-0.00629345 -0.0496483,-0.00978981 -0.07692,-0.00978981l-0.143351 0c-0.0132862,0 -0.0258731,0.00139854 -0.0370614,0.00349636 -0.0146847,0.00279709 -0.0279709,0.00629345 -0.0412571,0.0104891l0 0c-0.0167825,0.00629345 -0.0335651,0.0132862 -0.0503476,0.0209782l-0.000699272 0c-0.0160833,0.00839127 -0.0328658,0.0181811 -0.0496483,0.0293694l-0.0181811 0.0118876 -0.00699272 0.00419563 -0.0188804 0.0104891c-0.0328658,0.0188804 -0.0594382,0.0405578 -0.0811156,0.0657316 -0.023076,0.0265724 -0.0419563,0.0580396 -0.0587389,0.0951011 -0.0272716,0.0594382 -0.0447534,0.128666 -0.0559418,0.199293 -0.0104891,0.0734236 -0.0146847,0.148945 -0.0146847,0.220271l0 6.99203c0,0.0468513 0.00139854,0.0944018 0.00559418,0.141253 0.00349636,0.0482498 0.00978981,0.0937025 0.0181811,0.136358 0.00419563,0.0195796 0.00978981,0.0426556 0.0174818,0.0678294 0.00559418,0.0188804 0.0125869,0.0370614 0.0202789,0.0510469zm0.413969 -12.3995l0.0629345 0c0.139854,0 0.273416,0.0181811 0.401382,0.0545433 0.127967,0.0363622 0.248941,0.0909054 0.362223,0.16293 0.108387,0.0685287 0.209082,0.15384 0.302086,0.255234l0 0c0.0916047,0.0992967 0.174818,0.214677 0.248941,0.344042l0.00559418 0.0111884 0.00209782 0.00559418c0.0265724,0.0503476 0.0503476,0.101395 0.069228,0.152441 0.0104891,0.0279709 0.0202789,0.0559418 0.0286702,0.084612l0.00419563 0 0.0195796 0.0804163c0.0125869,0.053844 0.0223767,0.109087 0.0286702,0.166427l0 0c0.00629345,0.0566411 0.00978981,0.112583 0.00978981,0.169224l0 0.101395c0,0.137057 -0.0188804,0.26922 -0.0566411,0.395788l0 0c-0.0377607,0.125869 -0.0937025,0.246144 -0.169224,0.360125 -0.0706265,0.107688 -0.156637,0.206985 -0.258731,0.299289 -0.100695,0.0916047 -0.216774,0.174818 -0.347538,0.251039l-0.00489491 0.00209782 -0.030768 0.0160833 -0.00559418 0.00279709c-0.0503476,0.0223767 -0.102094,0.0419563 -0.155238,0.0594382 -0.0517462,0.0167825 -0.104891,0.0314673 -0.159434,0.0426556 -0.053844,0.0118876 -0.108387,0.0202789 -0.16293,0.0265724 -0.0559418,0.00559418 -0.110485,0.00909054 -0.16293,0.00909054 -0.157336,0 -0.306981,-0.0209782 -0.447534,-0.0622353 -0.139854,-0.0412571 -0.271318,-0.102793 -0.392991,-0.186006 -0.118876,-0.0804163 -0.225166,-0.178314 -0.319568,-0.294394 -0.0937025,-0.11538 -0.175517,-0.247542 -0.244745,-0.395788l-0.00279709 -0.00699272 -0.00559418 -0.0146847 0 0c-0.0160833,-0.0405578 -0.030768,-0.0825142 -0.0440542,-0.124471 -0.0125869,-0.0426556 -0.0237753,-0.084612 -0.0321665,-0.12517 -0.00909054,-0.0447534 -0.0160833,-0.0881083 -0.0209782,-0.130065 -0.00489491,-0.0440542 -0.007692,-0.0860105 -0.007692,-0.12517l0 -0.0909054c0,-0.160133 0.0223767,-0.311176 0.0664309,-0.453129 0.0440542,-0.141253 0.110485,-0.273416 0.199293,-0.395089l0 0c0.084612,-0.116779 0.188104,-0.22097 0.310477,-0.313274 0.120974,-0.0909054 0.260129,-0.170622 0.417466,-0.237753l0.00139854 -0.000699272 0.0209782 -0.00839127 0.00559418 -0.00279709c0.03846,-0.0125869 0.07692,-0.0244745 0.116079,-0.0349636 0.0377607,-0.0104891 0.07692,-0.0195796 0.11538,-0.0265724 0.0405578,-0.007692 0.0804163,-0.0139854 0.120275,-0.0181811 0.0405578,-0.00419563 0.0783185,-0.00629345 0.113282,-0.00629345zm-0.0419563 3.53552l0.143351 0c0.092304,0 0.183209,0.0111884 0.273416,0.0349636 0.0902062,0.023076 0.176916,0.0573403 0.261528,0.102793 0.0755214,0.0405578 0.150344,0.092304 0.223068,0.153141 0.0706265,0.0601374 0.139854,0.129365 0.206285,0.207684l0.00349636 0.00349636 0.0258731 0.0328658 0.00559418 0.007692c0.0356629,0.0559418 0.0678294,0.112583 0.0958003,0.169224 0.0286702,0.0566411 0.0524454,0.113282 0.0713258,0.167825 0.0209782,0.0622353 0.0370614,0.123771 0.0475505,0.185307 0.0111884,0.061536 0.0167825,0.122373 0.0167825,0.183209l0 7.42557c0,0.121673 -0.0174818,0.238452 -0.0510469,0.351035l0 0c-0.0335651,0.111884 -0.084612,0.218173 -0.152441,0.318169 -0.0622353,0.092304 -0.139155,0.178314 -0.229361,0.258032 -0.0895069,0.0783185 -0.191601,0.149644 -0.306281,0.213977l-0.00978981 0.00489491 -0.0475505 0.0209782 -0.00699272 0.00209782c-0.0454527,0.0167825 -0.0860105,0.0300687 -0.121673,0.0412571 -0.0391593,0.0118876 -0.0748222,0.0216774 -0.104891,0.0286702 -0.0405578,0.00978981 -0.0804163,0.0167825 -0.119576,0.0216774 -0.0398585,0.00559418 -0.07692,0.00839127 -0.109087,0.00839127l-0.0839127 0c-0.111184,0 -0.218173,-0.0146847 -0.321665,-0.0447534 -0.102793,-0.0293694 -0.20139,-0.0734236 -0.296492,-0.132163 -0.0860105,-0.053844 -0.168525,-0.119576 -0.245445,-0.197894 -0.0755214,-0.07692 -0.146847,-0.165028 -0.213278,-0.265024l-0.00489491 -0.00699272 -0.00139854 -0.00279709c-0.0328658,-0.0531447 -0.0622353,-0.113282 -0.0867098,-0.179713 -0.0237753,-0.0636338 -0.0433549,-0.133561 -0.0587389,-0.209782 -0.0139854,-0.0657316 -0.0237753,-0.136358 -0.030768,-0.209082 -0.00629345,-0.0755214 -0.00978981,-0.151043 -0.00978981,-0.227264l0 -6.99203c0,-0.14405 0.0111884,-0.27901 0.0349636,-0.404179 0.0237753,-0.126568 0.0594382,-0.242648 0.106989,-0.347538 0.0531447,-0.116079 0.119576,-0.218173 0.198593,-0.306281 0.0797171,-0.0888076 0.17272,-0.162231 0.27831,-0.222369 0.0440542,-0.0286702 0.0895069,-0.0545433 0.137057,-0.0783185 0.0482498,-0.023076 0.0985974,-0.0440542 0.149644,-0.0608367 0.0566411,-0.0188804 0.111884,-0.0328658 0.166427,-0.0419563 0.0559418,-0.00909054 0.111184,-0.0139854 0.165728,-0.0139854zm-6.07178 0.918145l0 -0.00279709c0,-0.253137 0.0265724,-0.436346 0.0860105,-0.613262 0.0587389,-0.176217 0.145449,-0.337749 0.267122,-0.554523 0.120275,-0.213278 0.267821,-0.404179 0.436346,-0.575501 0.179014,-0.181811 0.381803,-0.339846 0.600675,-0.477603l0.0251738 -0.0160833 0.00978981 -0.00489491 0.0265724 -0.0132862c0.0741229,-0.0370614 0.148246,-0.0727243 0.22097,-0.10559 0.0734236,-0.0335651 0.149644,-0.0657316 0.227963,-0.0958003 0.0566411,-0.0216774 0.11538,-0.0433549 0.175517,-0.061536 0.0622353,-0.0188804 0.124471,-0.0342644 0.186706,-0.0447534l0.651023 -0.10559 0.00699272 -0.000699272c0.113282,-0.0111884 0.216075,-0.0699272 0.306981,-0.176217 0.0286702,-0.0377607 0.0482498,-0.0783185 0.0608367,-0.120974 0.0132862,-0.0454527 0.0188804,-0.0951011 0.0188804,-0.148945 0,-0.0321665 -0.00279709,-0.061536 -0.00839127,-0.0888076 -0.00559418,-0.0279709 -0.0146847,-0.0566411 -0.0265724,-0.0867098 -0.0132862,-0.0321665 -0.0300687,-0.0636338 -0.0482498,-0.0930032 -0.0174818,-0.0279709 -0.0370614,-0.0545433 -0.0573403,-0.0797171 -0.0244745,-0.0195796 -0.0433549,-0.0370614 -0.0608367,-0.0531447 -0.0223767,-0.0216774 -0.0426556,-0.0405578 -0.0762207,-0.0566411l0 0c-0.0132862,-0.00629345 -0.0475505,-0.0174818 -0.0818149,-0.0265724l0 0c-0.0244745,-0.00699272 -0.046152,-0.0118876 -0.0531447,-0.0118876 -0.152441,0 -0.303484,0.007692 -0.451031,0.023076 -0.146847,0.0160833 -0.294394,0.0391593 -0.440542,0.0706265l0 0c-0.145449,0.0314673 -0.287401,0.0706265 -0.425158,0.116779 -0.141952,0.0475505 -0.281108,0.102094 -0.417466,0.164329l0 0 -0.000699272 0.000699272 -0.000699272 0 -0.00209782 0.00139854c-0.209782,0.106289 -0.409774,0.227264 -0.597179,0.363622l0 0.000699272c-0.181811,0.132163 -0.351734,0.27831 -0.508371,0.440542 -0.155238,0.160833 -0.294394,0.333553 -0.416766,0.516762 -0.126568,0.188104 -0.236354,0.387397 -0.329357,0.596479l-0.00279709 0.00629345 -0.00139854 0.00139854 -0.00279709 0.00629345c-0.0601374,0.126568 -0.116079,0.275513 -0.16363,0.416766 -0.0895069,0.265724 -0.148945,0.490889 -0.148945,0.495784l0 7.95283c0,0.0433549 0.00139854,0.0867098 0.00419563,0.127268 0.00279709,0.0412571 0.00699272,0.0825142 0.0139854,0.123072 0.00349636,0.0202789 0.007692,0.0419563 0.0132862,0.0629345 0.00489491,0.0174818 0.0104891,0.0342644 0.0167825,0.0496483 0.0279709,0.0454527 0.0594382,0.0895069 0.0944018,0.127967 0.0349636,0.0391593 0.0741229,0.0748222 0.118177,0.102094 0.0370614,0.0237753 0.0755214,0.0405578 0.116079,0.0510469l0 0.000699272c0.0405578,0.0104891 0.0839127,0.015384 0.130065,0.015384 0.0202789,0 0.0391593,-0.00139854 0.0566411,-0.00419563 0.0174818,-0.00279709 0.0342644,-0.00699272 0.0517462,-0.0125869l0 0 0.0195796 -0.00699272c0.0251738,-0.00909054 0.0496483,-0.0209782 0.0741229,-0.0342644 0.0251738,-0.0146847 0.0489491,-0.0300687 0.0720251,-0.0468513l0.0188804 -0.0139854 0.00699272 -0.00489491 0.0202789 -0.0118876c0.0286702,-0.0181811 0.0524454,-0.03846 0.0727243,-0.0629345 0.0202789,-0.0237753 0.0370614,-0.0524454 0.0517462,-0.0853112 0.0237753,-0.053844 0.0391593,-0.11538 0.0489491,-0.179014 0.00978981,-0.0657316 0.0132862,-0.133561 0.0132862,-0.197195l0 -4.59842 0 0 0 -0.0216774c-0.000699272,-0.0216774 -0.000699272,-0.0363622 0.00209782,-0.0643331l0.00209782 -0.0118876 0.0391593 -0.175517 0.00279709 -0.0111884c0.0454527,-0.13426 0.10559,-0.262926 0.183209,-0.379006 0.0727243,-0.106989 0.160133,-0.204188 0.267122,-0.286002 0.109786,-0.0839127 0.23076,-0.144749 0.358028,-0.184608 0.135659,-0.0426556 0.277611,-0.061536 0.421661,-0.061536l1.37057 0c0.0447534,0 0.0881083,-0.00139854 0.128666,-0.00349636 0.0419563,-0.00279709 0.0839127,-0.00699272 0.123771,-0.0139854 0.0195796,-0.00279709 0.0405578,-0.00699272 0.061536,-0.0125869 0.0167825,-0.00489491 0.0328658,-0.00978981 0.0468513,-0.0160833 0.0447534,-0.0279709 0.0888076,-0.0594382 0.129365,-0.0958003 0.0405578,-0.0356629 0.0755214,-0.0755214 0.103492,-0.118876 0.023076,-0.0370614 0.0398585,-0.0755214 0.0510469,-0.116079l0 0c0.0111884,-0.0405578 0.0160833,-0.0839127 0.0160833,-0.130065 0,-0.0223767 -0.00209782,-0.0440542 -0.00629345,-0.0650323 -0.00419563,-0.0216774 -0.0104891,-0.0440542 -0.0181811,-0.0664309 -0.00978981,-0.0272716 -0.0223767,-0.0545433 -0.0363622,-0.0804163l0 0c-0.015384,-0.0279709 -0.0321665,-0.0545433 -0.0489491,-0.0790178l-0.00909054 -0.0125869 -0.00279709 -0.00419563 -0.00839127 -0.0132862c-0.0181811,-0.0286702 -0.03846,-0.0517462 -0.0622353,-0.0706265 -0.0244745,-0.0195796 -0.0531447,-0.0356629 -0.0874091,-0.0503476 -0.0552425,-0.023076 -0.117478,-0.03846 -0.181811,-0.0482498 -0.0657316,-0.00978981 -0.13426,-0.0132862 -0.199293,-0.0132862l-1.79293 0 -0.000699272 0 -0.748921 -0.00419563 -0.104192 -0.000699272 0 -0.104192 0 -0.646128zm2.89499 -4.4187c0.0685287,0 0.151043,0.00909054 0.236354,0.0286702 0.0762207,0.0167825 0.15384,0.0419563 0.224466,0.0755214 0.0971989,0.0454527 0.167825,0.102793 0.257332,0.174818 0.0202789,0.0160833 0.0412571,0.0335651 0.0811156,0.0643331l0.00909054 0.007692 0.0454527 0.0447534 0.00629345 0.00699272c0.0573403,0.0671302 0.108387,0.13496 0.151742,0.204188l-0.000699272 0.000699272c0.0447534,0.0713258 0.0818149,0.142652 0.111184,0.214677 0.0314673,0.0776192 0.0552425,0.155938 0.0706265,0.235655 0.0160833,0.0797171 0.0237753,0.160833 0.0237753,0.242648 0,0.143351 -0.0202789,0.27901 -0.061536,0.406277 -0.0412571,0.127268 -0.102793,0.245445 -0.186006,0.354531 -0.0790178,0.104192 -0.17342,0.195796 -0.284604,0.275513 -0.110485,0.0790178 -0.237053,0.146847 -0.379705,0.203488l-0.0104891 0.00279709 -0.0482498 0.0139854 -0.00559418 0.000699272c-0.0377607,0.00839127 -0.0804163,0.0167825 -0.128666,0.0237753 -0.046152,0.00699272 -0.102793,0.0146847 -0.168525,0.0223767 -0.0559418,0.00629345 -0.126568,0.0139854 -0.210481,0.0216774l-0.000699272 0c-0.0895069,0.00909054 -0.170622,0.0167825 -0.243347,0.0223767l-0.00279709 0.000699272c-0.0209782,0.00419563 -0.0447534,0.00978981 -0.0720251,0.0181811 -0.0335651,0.0104891 -0.0734236,0.0244745 -0.118177,0.0419563 -0.0524454,0.0202789 -0.111184,0.0447534 -0.176217,0.0741229 -0.0643331,0.0286702 -0.131463,0.0608367 -0.20139,0.0958003 -0.169923,0.106989 -0.318169,0.224466 -0.444737,0.351035 -0.125869,0.127268 -0.23076,0.265024 -0.313973,0.412571 -0.00559418,0.00978981 -0.0314673,0.0545433 -0.0573403,0.0992967 -0.121673,0.212579 -0.186006,0.323763 -0.1923,0.62445l0.00489491 0.00349636 1.83699 0c0.131463,0 0.255234,0.0104891 0.372013,0.0314673 0.117478,0.0209782 0.225865,0.0524454 0.324462,0.0944018 0.110485,0.0475505 0.208383,0.106989 0.294394,0.179014 0.084612,0.0713258 0.157336,0.154539 0.218173,0.24964 0.0398585,0.0573403 0.0755214,0.11538 0.106289,0.17342 0.030768,0.0594382 0.0573403,0.118876 0.0790178,0.179713 0.023076,0.0664309 0.0412571,0.132862 0.0531447,0.199293 0.0118876,0.0671302 0.0174818,0.133561 0.0174818,0.200691 0,0.123072 -0.0160833,0.24055 -0.0475505,0.353133 -0.0321665,0.113282 -0.0797171,0.220271 -0.143351,0.321665 -0.0601374,0.0951011 -0.13426,0.183909 -0.221669,0.265724 -0.0867098,0.0811156 -0.186006,0.154539 -0.297191,0.22097l-0.00349636 0.00209782 -0.0160833 0.00839127 -0.00209782 0.000699272c-0.0510469,0.0265724 -0.10559,0.0489491 -0.164329,0.0671302 -0.0573403,0.0174818 -0.119576,0.0321665 -0.186006,0.0433549 -0.0594382,0.00978981 -0.120275,0.0167825 -0.183909,0.0209782 -0.0643331,0.00489491 -0.130764,0.00699272 -0.199293,0.00699272l-1.37057 0c-0.0643331,0 -0.120974,0.007692 -0.170622,0.0216774 -0.046152,0.0132862 -0.0867098,0.0328658 -0.120275,0.0587389 -0.0370614,0.0286702 -0.0699272,0.0657316 -0.0992967,0.112583 -0.0314673,0.0496483 -0.0587389,0.110485 -0.0818149,0.18251l0 0.0160833 0 4.59842c0,0.132163 -0.0104891,0.257332 -0.0321665,0.37481 -0.0223767,0.118177 -0.0552425,0.227264 -0.0985974,0.325861 -0.0475505,0.108387 -0.108387,0.204887 -0.181811,0.290198 -0.0720251,0.0832134 -0.155938,0.154539 -0.251738,0.214677 -0.053844,0.0391593 -0.109087,0.0741229 -0.166427,0.10559 -0.0258731,0.0139854 -0.0517462,0.0272716 -0.0776192,0.0391593l0.00139854 0.00489491 -0.0992967 0.0363622c-0.0650323,0.0237753 -0.131463,0.0419563 -0.199992,0.0545433 -0.069228,0.0125869 -0.137057,0.0188804 -0.204887,0.0188804 -0.123072,0 -0.24055,-0.0160833 -0.353133,-0.0482498 -0.112583,-0.0314673 -0.219572,-0.0797171 -0.320966,-0.143351 -0.0958003,-0.0601374 -0.183909,-0.133561 -0.266423,-0.221669 -0.0811156,-0.0867098 -0.154539,-0.186006 -0.22097,-0.297191l-0.00209782 -0.00419563 -0.0125869 -0.023076 -0.00139854 -0.00349636c-0.0237753,-0.0482498 -0.0440542,-0.101395 -0.061536,-0.159434 -0.0174818,-0.0566411 -0.0314673,-0.116779 -0.0426556,-0.180412 -0.00978981,-0.0580396 -0.0167825,-0.119576 -0.0216774,-0.183909 -0.00559418,-0.0643331 -0.007692,-0.131463 -0.007692,-0.199992l0 -7.95283 0.00139854 -0.0160833c0.0349636,-0.221669 0.0839127,-0.431451 0.148246,-0.634939 0.0650323,-0.203488 0.144749,-0.40348 0.241249,-0.606269l0.00699272 -0.0146847c0.111884,-0.248242 0.241249,-0.481799 0.388096,-0.700671 0.150344,-0.223767 0.318868,-0.43285 0.505574,-0.625849 0.188104,-0.194398 0.392991,-0.372712 0.616059,-0.534244 0.222369,-0.161532 0.462918,-0.30768 0.722348,-0.438444l0.00489491 -0.00209782 0.0104891 -0.00489491 0.000699272 0c0.16293,-0.0741229 0.328658,-0.139854 0.497183,-0.195796 0.169224,-0.0566411 0.339147,-0.102793 0.50907,-0.139854 0.172021,-0.0370614 0.347538,-0.0650323 0.525154,-0.0839127 0.178314,-0.0188804 0.357328,-0.0279709 0.535643,-0.0279709zm-14.9749 4.49003c-0.202789,0.236354 -0.387397,0.485994 -0.54823,0.74962 -0.153141,0.251738 -0.285303,0.515364 -0.391593,0.791576 -0.104891,0.272716 -0.183209,0.551726 -0.234956,0.835631 -0.0524454,0.286002 -0.0783185,0.578998 -0.0783185,0.876888 0,0.274115 0.0216774,0.544733 0.0650323,0.809758 0.0433549,0.261528 0.108387,0.519559 0.195796,0.771298 0.0874091,0.253836 0.197195,0.497882 0.32656,0.733537 0.133561,0.243347 0.286702,0.475505 0.458023,0.696475l0.00279709 0.00419563 0.000699272 0.00139854 0.00349636 0.00419563 0 0c0.0531447,0.0713258 0.108387,0.138456 0.16363,0.20209 0.0573403,0.0650323 0.117478,0.129365 0.179014,0.1923 0.0734236,0.0734236 0.150344,0.146847 0.230061,0.218173 0.0804163,0.0727243 0.160133,0.141253 0.238452,0.205586 0.22097,0.162231 0.451031,0.310477 0.689483,0.440542 0.238452,0.130065 0.486694,0.242648 0.744725,0.334252 0.24055,0.084612 0.485994,0.148945 0.734236,0.1923 0.245445,0.0426556 0.495085,0.0643331 0.747522,0.0643331l0.171322 0c0.158735,0 0.316071,-0.00978981 0.472009,-0.0286702 0.16293,-0.0188804 0.324462,-0.0475505 0.483897,-0.0853112 0.170622,-0.0391593 0.339846,-0.0888076 0.507672,-0.146148 0.168525,-0.0587389 0.332854,-0.123771 0.492288,-0.195796l0.00978981 -0.00419563 0.00279709 -0.00139854 0.00978981 -0.00419563c0.117478,-0.0475505 0.232158,-0.104192 0.343343,-0.167126 0.113282,-0.0636338 0.222369,-0.132862 0.32656,-0.204887 0.129365,-0.0895069 0.255934,-0.186706 0.379705,-0.289499 0.125869,-0.104192 0.244046,-0.209782 0.356629,-0.316071 0.224466,-0.242648 0.430053,-0.502078 0.609766,-0.77829 0.169923,-0.261528 0.31677,-0.537041 0.435647,-0.827939 0.117478,-0.286002 0.204188,-0.579697 0.262227,-0.879685 0.0587389,-0.304184 0.0874091,-0.614661 0.0874091,-0.930732 0,-0.262227 -0.0202789,-0.520259 -0.0608367,-0.773395 -0.0405578,-0.252437 -0.100695,-0.501378 -0.181811,-0.744725 -0.0811156,-0.243347 -0.181811,-0.479701 -0.301386,-0.708363 -0.122373,-0.236354 -0.264325,-0.462918 -0.421661,-0.678994l-0.133561 -0.185307c-0.0356629,-0.0440542 -0.0713258,-0.0860105 -0.106989,-0.12517 -0.0356629,-0.0405578 -0.0755214,-0.0825142 -0.116079,-0.124471 -0.0881083,-0.0916047 -0.178314,-0.178314 -0.26922,-0.261528 -0.0881083,-0.0811156 -0.183209,-0.16293 -0.281108,-0.246144l0 0.000699272 -0.000699272 -0.000699272 0 -0.000699272 -0.00139854 -0.000699272c-0.220271,-0.158036 -0.451031,-0.304184 -0.690881,-0.433549 -0.241249,-0.130065 -0.49019,-0.241948 -0.747522,-0.332154 -0.239151,-0.0839127 -0.482498,-0.148246 -0.73004,-0.191601 -0.241948,-0.0419563 -0.487393,-0.0636338 -0.736334,-0.0636338l-0.171322 0c-0.220271,0 -0.438444,0.0167825 -0.654519,0.0503476 -0.220271,0.0335651 -0.437045,0.084612 -0.650323,0.150344 -0.223068,0.069228 -0.439842,0.154539 -0.650323,0.253137 -0.22097,0.104192 -0.436346,0.223767 -0.644729,0.35593l-0.0195796 0.0125869 -0.00699272 0.00419563 -0.0209782 0.0104891c-0.0517462,0.0279709 -0.106289,0.0650323 -0.158036,0.104192 -0.0524454,0.0398585 -0.106289,0.0860105 -0.155938,0.127967 -0.0978981,0.0839127 -0.193698,0.17272 -0.2881,0.262926 -0.0944018,0.0902062 -0.186706,0.181811 -0.276912,0.274115zm-0.0601374 2.08733c0.0286702,-0.111884 0.0678294,-0.223767 0.113282,-0.332854l0 -0.000699272c0.0447534,-0.10559 0.0964996,-0.210481 0.15384,-0.313274 0.0678294,-0.122373 0.141253,-0.23985 0.219572,-0.353832 0.07692,-0.112583 0.160133,-0.223767 0.246843,-0.332854l0.0195796 -0.0251738 0.00699272 -0.00839127 0.0223767 -0.023076c0.0545433,-0.0552425 0.109786,-0.110485 0.165028,-0.164329 0.0580396,-0.0559418 0.11538,-0.109786 0.171322,-0.160133l0.00699272 -0.00489491 0.483197 -0.370614 0.0104891 -0.00699272c0.153141,-0.0902062 0.311176,-0.172021 0.473407,-0.244745 0.164329,-0.0741229 0.331455,-0.137057 0.501378,-0.188804 0.161532,-0.0489491 0.325861,-0.0867098 0.492987,-0.111884 0.161532,-0.0244745 0.324462,-0.0377607 0.488791,-0.0377607l0.1923 0c0.0951011,0 0.192999,0.00559418 0.292296,0.0146847 0.099996,0.00978981 0.195796,0.023076 0.2888,0.0398585 0.104192,0.0181811 0.206985,0.0405578 0.308379,0.0664309 0.099996,0.0258731 0.200691,0.0552425 0.301386,0.0881083l0.00699272 0.00279709 0.00209782 0.000699272 0.00699272 0.00209782 0.000699272 0c0.117478,0.0419563 0.232858,0.0902062 0.346839,0.145449 0.118177,0.0566411 0.231459,0.118876 0.341245,0.185307 0.116079,0.0713258 0.227264,0.147546 0.333553,0.227264 0.106989,0.0797171 0.21118,0.165028 0.311876,0.253137l0.0132862 0.0118876 0.00489491 0.00489491 0.0125869 0.0118876c0.190202,0.189503 0.363622,0.39369 0.514665,0.612563 0.144749,0.209782 0.26922,0.433549 0.370614,0.672001 0.100695,0.238452 0.174818,0.483197 0.223767,0.731439 0.0503476,0.258731 0.0748222,0.521657 0.0748222,0.786682l0 0.0699272c0,0.221669 -0.0209782,0.44194 -0.061536,0.659414 -0.0405578,0.216075 -0.101395,0.428654 -0.181811,0.636338 -0.0818149,0.210481 -0.181811,0.412571 -0.297191,0.604871 -0.122373,0.204188 -0.261528,0.398585 -0.41327,0.582494l-0.0160833 0.0202789 -0.00629345 0.00699272 -0.0181811 0.0181811c-0.1923,0.196496 -0.399984,0.377607 -0.623052,0.537741 -0.210481,0.151043 -0.433549,0.282506 -0.669903,0.389495 -0.236354,0.106989 -0.479701,0.186706 -0.729341,0.24055 -0.251738,0.053844 -0.50907,0.0804163 -0.770598,0.0804163l-0.132862 0c-0.236354,0 -0.469911,-0.023076 -0.698573,-0.0678294 -0.227264,-0.0440542 -0.451031,-0.111184 -0.670602,-0.20139 -0.220271,-0.0902062 -0.429353,-0.199293 -0.626548,-0.324462 -0.209782,-0.132862 -0.409074,-0.284604 -0.597878,-0.450331l-0.0209782 -0.0188804 -0.00699272 -0.00699272 -0.0195796 -0.0202789c-0.179713,-0.190901 -0.34614,-0.395089 -0.492987,-0.612563 -0.137757,-0.206285 -0.258731,-0.42306 -0.356629,-0.651023 -0.0971989,-0.225166 -0.169923,-0.457324 -0.218872,-0.695776 -0.0496483,-0.239151 -0.0741229,-0.481799 -0.0741229,-0.727243l0 -0.0699272c0,-0.104192 0.00349636,-0.210481 0.0104891,-0.318169l0 -0.000699272c0.00699272,-0.107688 0.0181811,-0.213977 0.0342644,-0.318868 0.0139854,-0.0902062 0.0314673,-0.181811 0.0545433,-0.274115 0.0223767,-0.0902062 0.0489491,-0.179014 0.0804163,-0.265024zm3.58657 -4.49842l0.171322 0c0.291597,0 0.582494,0.0251738 0.871294,0.0755214 0.2881,0.0503476 0.575501,0.12517 0.860804,0.225865 0.281807,0.0985974 0.560817,0.221669 0.837728,0.369915 0.276213,0.146847 0.550327,0.318868 0.820946,0.513965l0.00419563 0.00349636 0.0188804 0.0146847 0.00209782 0.00209782c0.12517,0.104891 0.237753,0.204188 0.337049,0.295792 0.103492,0.0951011 0.197894,0.186706 0.283205,0.275513 0.0895069,0.092304 0.169923,0.18251 0.241948,0.269919 0.0734236,0.0888076 0.136358,0.17342 0.189503,0.253836l0.00419563 0.00629345c0.181811,0.251738 0.341944,0.50977 0.479002,0.773395 0.138456,0.266423 0.254535,0.541237 0.348937,0.823743 0.0944018,0.284604 0.165728,0.574802 0.212579,0.869895 0.0475505,0.296492 0.0713258,0.597179 0.0713258,0.901362 0,0.370614 -0.0342644,0.732138 -0.102094,1.08527 -0.0685287,0.351734 -0.170622,0.694378 -0.30768,1.02933 -0.135659,0.332154 -0.304883,0.653121 -0.506273,0.962898 -0.20209,0.309778 -0.436346,0.609066 -0.703468,0.896467l-0.00279709 0.00279709 -0.0132862 0.0132862 -0.00209782 0.00209782c-0.141952,0.13426 -0.283205,0.25943 -0.423759,0.37481 -0.140554,0.116079 -0.279709,0.22097 -0.416766,0.316071 -0.140554,0.0978981 -0.279709,0.184608 -0.416766,0.260129l-0.000699272 0c-0.139155,0.0776192 -0.275513,0.143351 -0.406977,0.196496l0 0c-0.192999,0.0860105 -0.383901,0.161532 -0.572704,0.225865 -0.190901,0.0657316 -0.381104,0.120275 -0.570606,0.164329 -0.193698,0.0447534 -0.3846,0.0783185 -0.573403,0.100695 -0.190202,0.0223767 -0.378306,0.0335651 -0.564313,0.0335651l-0.171322 0c-0.296492,0 -0.590885,-0.0251738 -0.883181,-0.0755214 -0.291597,-0.0503476 -0.580396,-0.126568 -0.866399,-0.227264 -0.282506,-0.099996 -0.562215,-0.224466 -0.838428,-0.373412 -0.275513,-0.148945 -0.54823,-0.322365 -0.81675,-0.520958l-0.00489491 -0.00349636 -0.0132862 -0.0104891 0 -0.000699272c-0.0985974,-0.0811156 -0.192999,-0.16293 -0.282506,-0.244046 -0.0902062,-0.0811156 -0.174119,-0.161532 -0.251039,-0.239151 -0.0790178,-0.0797171 -0.153141,-0.159434 -0.222369,-0.239151 -0.0706265,-0.0818149 -0.13496,-0.161532 -0.192999,-0.238452l0.000699272 0c-0.200691,-0.260129 -0.376908,-0.527951 -0.527951,-0.804163 -0.151043,-0.276213 -0.277611,-0.560817 -0.379006,-0.853812 -0.102094,-0.294394 -0.178314,-0.595081 -0.229361,-0.902062 -0.0510469,-0.308379 -0.0762207,-0.622353 -0.0762207,-0.94192 0,-0.347538 0.030768,-0.688783 0.0916047,-1.02373 0.061536,-0.332854 0.153141,-0.658715 0.276213,-0.976884 0.121673,-0.31747 0.273416,-0.62445 0.454527,-0.921641 0.181112,-0.29789 0.392991,-0.58599 0.633541,-0.865699l0.00209782 -0.00209782 0.0139854 -0.0146847 0.00209782 -0.00279709c0.120974,-0.123072 0.233557,-0.233557 0.33635,-0.331455 0.104192,-0.0985974 0.200691,-0.186006 0.2888,-0.262227 0.0874091,-0.0748222 0.169923,-0.140554 0.246843,-0.195796 0.07692,-0.0559418 0.147546,-0.100695 0.21188,-0.13496 0.241249,-0.153141 0.485994,-0.287401 0.732838,-0.402781 0.248242,-0.116779 0.498581,-0.213977 0.750319,-0.292296 0.255234,-0.0790178 0.511168,-0.138456 0.767801,-0.178314 0.257332,-0.0391593 0.515364,-0.0594382 0.774794,-0.0594382zm-2.96142 5.6753l0 0.0699272c0,0.193698 0.0188804,0.381803 0.0566411,0.565012 0.0370614,0.183209 0.0944018,0.363622 0.169923,0.540538 0.07692,0.178314 0.17342,0.353133 0.2888,0.524454 0.116079,0.171322 0.251039,0.339147 0.404879,0.502078 0.160833,0.140554 0.323064,0.263626 0.488092,0.368517 0.166427,0.10559 0.334952,0.193698 0.505574,0.263626 0.168525,0.0685287 0.341944,0.120974 0.520958,0.155938 0.176916,0.0342644 0.358028,0.0517462 0.544034,0.0517462l0.132862 0c0.206985,0 0.407676,-0.0202789 0.602074,-0.0622353 0.194398,-0.0412571 0.383201,-0.103492 0.566411,-0.186006 0.184608,-0.0839127 0.364321,-0.188804 0.53844,-0.313973 0.174119,-0.125869 0.344042,-0.272716 0.50977,-0.441241 0.128666,-0.156637 0.241249,-0.315372 0.337049,-0.475505 0.0971989,-0.160833 0.176916,-0.323064 0.24055,-0.487393 0.0629345,-0.161532 0.109786,-0.32656 0.141253,-0.494386 0.0314673,-0.166427 0.0468513,-0.337049 0.0468513,-0.511168l0 -0.0699272c0,-0.218173 -0.0195796,-0.427255 -0.0587389,-0.627947 -0.0391593,-0.200691 -0.0971989,-0.392991 -0.175517,-0.5769 -0.0776192,-0.183909 -0.176217,-0.361524 -0.294394,-0.532846 -0.117478,-0.169923 -0.255234,-0.332854 -0.412571,-0.489491l0 0c-0.0895069,-0.0790178 -0.178314,-0.151742 -0.265724,-0.216774 -0.0888076,-0.0657316 -0.178314,-0.126568 -0.268521,-0.181811 -0.0888076,-0.0545433 -0.177615,-0.103492 -0.267122,-0.146148 -0.0888076,-0.0426556 -0.177615,-0.0797171 -0.267122,-0.111884 -0.0853112,-0.0272716 -0.169923,-0.0524454 -0.254535,-0.0734236 -0.0839127,-0.0216774 -0.166427,-0.0391593 -0.246144,-0.053844l0 0c-0.0811156,-0.0139854 -0.157336,-0.0244745 -0.227264,-0.0314673 -0.0706265,-0.00699272 -0.141952,-0.00978981 -0.213278,-0.00978981l-0.1923 0c-0.123072,0 -0.246144,0.00909054 -0.370614,0.0286702 -0.12517,0.0188804 -0.251738,0.0482498 -0.379006,0.0867098 -0.132862,0.0398585 -0.265724,0.0895069 -0.397187,0.148246 -0.114681,0.0510469 -0.229361,0.109087 -0.344741,0.174818l-0.0573403 0.0335651c-0.0419563,0.0251738 -0.0860105,0.0545433 -0.132862,0.0895069 -0.0475505,0.0356629 -0.0992967,0.07692 -0.155238,0.124471 -0.0573403,0.0496483 -0.117478,0.104192 -0.181112,0.164329 -0.0643331,0.0608367 -0.130065,0.125869 -0.198593,0.195796 -0.0790178,0.099996 -0.151742,0.197894 -0.217474,0.295093 -0.0657316,0.0964996 -0.123072,0.188804 -0.172021,0.276912 -0.0475505,0.0860105 -0.0874091,0.167825 -0.119576,0.246144 -0.0321665,0.07692 -0.0566411,0.151043 -0.0741229,0.221669l-0.00139854 0.00489491 -0.0111884 0.0370614 -0.00209782 0.00699272c-0.0223767,0.0594382 -0.0419563,0.121673 -0.0587389,0.188104 -0.0167825,0.0664309 -0.030768,0.137757 -0.0426556,0.212579 -0.0118876,0.0790178 -0.0209782,0.160833 -0.0265724,0.245445 -0.00559418,0.084612 -0.00839127,0.175517 -0.00839127,0.271318zm-3.76488 -2.888l0.00978981 0.00978981c0.0503476,0.0503476 0.109087,0.0895069 0.172021,0.11538 0.0636338,0.0265724 0.132163,0.0398585 0.204188,0.0398585 0.146847,0 0.280408,-0.0594382 0.376908,-0.155938l-0.000699272 0c0.0964996,-0.0964996 0.155938,-0.229361 0.155938,-0.376209 0,-0.0734236 -0.0139854,-0.143351 -0.0412571,-0.206985 -0.0265724,-0.0643331 -0.0671302,-0.123771 -0.118876,-0.174119l-0.0678294 -0.0664309 -0.00839127 0 -0.0314673 -0.0335651 -0.0748222 -0.0783185 0 0 -0.245445 -0.23985 -0.0468513 -0.0454527c-0.140554,-0.106989 -0.286702,-0.205586 -0.439143,-0.292995 -0.16363,-0.0944018 -0.335651,-0.176217 -0.514665,-0.242648 -0.178314,-0.0671302 -0.360825,-0.116779 -0.545433,-0.150344 -0.183209,-0.0328658 -0.371314,-0.0496483 -0.563614,-0.0496483 -0.099996,0 -0.197894,0.00489491 -0.292296,0.0139854l0 0c-0.100695,0.00909054 -0.200691,0.023076 -0.300687,0.0419563 -0.0964996,0.0174818 -0.195097,0.0398585 -0.294394,0.0671302 -0.099996,0.0272716 -0.196496,0.0573403 -0.2888,0.0902062 -0.0496483,0.0237753 -0.102094,0.0482498 -0.161532,0.0741229 -0.053844,0.0237753 -0.110485,0.0468513 -0.168525,0.0678294 -0.0510469,0.0181811 -0.0971989,0.0342644 -0.143351,0.0447534 -0.0510469,0.0125869 -0.104192,0.0195796 -0.165028,0.0195796l-0.0314673 0c-0.0545433,0 -0.0881083,-0.00139854 -0.121673,-0.00629345 -0.0321665,-0.00489491 -0.0601374,-0.0132862 -0.104192,-0.0251738l-0.007692 -0.00279709c-0.015384,-0.00419563 -0.0237753,-0.00629345 -0.0314673,-0.00909054l-0.000699272 -0.000699272c-0.0139854,-0.00419563 -0.0188804,-0.00629345 -0.0300687,-0.0104891l-0.00839127 -0.00279709 -0.118177 -0.0447534 -0.0363622 -0.023076 -0.0902062 -0.0888076c-0.0314673,-0.0314673 -0.0650323,-0.061536 -0.101395,-0.0888076l0 -0.000699272c-0.0342644,-0.0258731 -0.0706265,-0.0496483 -0.108387,-0.0685287 -0.0293694,-0.0146847 -0.0594382,-0.0265724 -0.0916047,-0.0349636 -0.0286702,-0.007692 -0.0587389,-0.0125869 -0.0902062,-0.0125869 -0.0335651,0 -0.0643331,0.00279709 -0.0937025,0.007692 -0.0279709,0.00559418 -0.0573403,0.0132862 -0.0867098,0.0251738 -0.0286702,0.0118876 -0.0545433,0.0258731 -0.0783185,0.0412571 -0.0237753,0.0160833 -0.0475505,0.0349636 -0.0713258,0.0566411l-0.0188804 0.0174818 -0.00699272 0.00559418 -0.0202789 0.0160833c-0.0209782,0.0160833 -0.0377607,0.0356629 -0.0524454,0.0566411 -0.015384,0.0223767 -0.0279709,0.0482498 -0.0391593,0.07692 -0.0181811,0.0482498 -0.030768,0.101395 -0.03846,0.155938 -0.007692,0.0552425 -0.0104891,0.113282 -0.0104891,0.169923l0 8.4619c0,0.0377607 0,0.0734236 0.00139854,0.102094 0.00139854,0.030768 0.00419563,0.0636338 0.00839127,0.0985974 0.00209782,0.0139854 0.00349636,0.0279709 0.00559418,0.0377607 0.00209782,0.0104891 0.00419563,0.0202789 0.00629345,0.0286702l0.00279709 0.00559418c0.0139854,0.0349636 0.030768,0.0699272 0.0510469,0.104192 0.0181811,0.0328658 0.0398585,0.0636338 0.0636338,0.0909054 0.0188804,0.0223767 0.0391593,0.0426556 0.061536,0.061536 0.0202789,0.0167825 0.0426556,0.0321665 0.0657316,0.0454527 0.0202789,0.00839127 0.0398585,0.0160833 0.0587389,0.0223767 0.0237753,0.00839127 0.046152,0.0146847 0.0657316,0.0195796 0.00909054,0.00279709 0.0209782,0.00559418 0.0377607,0.00909054 0.00978981,0.00139854 0.0188804,0.00279709 0.0251738,0.00279709l0.0944018 0c0.0202789,0 0.0398585,-0.00209782 0.0587389,-0.00629345l0.000699272 0c0.0195796,-0.00419563 0.0391593,-0.0104891 0.0594382,-0.0188804 0.0244745,-0.00978981 0.0482498,-0.023076 0.0706265,-0.0377607 0.0237753,-0.015384 0.0468513,-0.0328658 0.069228,-0.0517462l0.0174818 -0.015384 0.00699272 -0.00489491 0.0188804 -0.0132862c0.0223767,-0.0160833 0.0412571,-0.0356629 0.0573403,-0.0580396 0.0174818,-0.0244745 0.030768,-0.0510469 0.0426556,-0.0804163 0.0195796,-0.0496483 0.0328658,-0.10559 0.0412571,-0.16363 0.00839127,-0.0587389 0.0111884,-0.119576 0.0111884,-0.178314l0 -5.7662c0,-0.145449 0.0118876,-0.290198 0.0377607,-0.43285 0.0244745,-0.137757 0.0622353,-0.274115 0.112583,-0.407676 0.0496483,-0.129365 0.111184,-0.253836 0.183209,-0.372712 0.0734236,-0.119576 0.157336,-0.233557 0.251738,-0.341245l0.00909054 -0.0104891 0.00349636 -0.00419563 0.0104891 -0.0104891c0.113282,-0.116779 0.235655,-0.225166 0.367817,-0.320267 0.12517,-0.0902062 0.258032,-0.168525 0.399285,-0.232158 0.139854,-0.0636338 0.284604,-0.110485 0.433549,-0.141952 0.151043,-0.0321665 0.304883,-0.0475505 0.460121,-0.0475505 0.0916047,0 0.183909,0.00489491 0.276912,0.0146847 0.0895069,0.00978981 0.178314,0.0244745 0.265724,0.0447534 0.0818149,0.0181811 0.16293,0.0419563 0.243347,0.0699272 0.0783185,0.0272716 0.155238,0.0587389 0.231459,0.0951011l0 0 0.0237753 0.0111884 0.00839127 0.00419563 0.0223767 0.0132862c0.127268,0.0755214 0.241249,0.160133 0.347538,0.255234 0.10559,0.0944018 0.20139,0.197894 0.293694,0.309778l0.0181811 0.0223767 0.00629345 0.00839127 0.0160833 0.0237753c0.00839127,0.0118876 0.0160833,0.023076 0.0237753,0.0328658l0 0c0.0104891,0.0125869 0.0195796,0.023076 0.0265724,0.0314673l0.00699272 0.00699272 0 0zm1.39155 -1.2475c0.0937025,0.106989 0.170622,0.228662 0.226564,0.361524 0.0671302,0.160133 0.104891,0.335651 0.104891,0.51886 0,0.368517 -0.149644,0.703468 -0.391593,0.945416 -0.241948,0.241948 -0.576201,0.391593 -0.945416,0.391593 -0.180412,0 -0.352433,-0.0363622 -0.50977,-0.101395 -0.130764,-0.053844 -0.251039,-0.127967 -0.356629,-0.218173l-0.0174818 0.0181811 -0.0734236 -0.0951011 -0.030768 -0.0405578c-0.0223767,-0.0244745 -0.0433549,-0.0489491 -0.0629345,-0.0741229 -0.0188804,-0.0244745 -0.03846,-0.0503476 -0.0573403,-0.0783185 -0.0573403,-0.0699272 -0.118876,-0.137757 -0.188104,-0.20209 -0.0685287,-0.0629345 -0.145449,-0.122373 -0.235655,-0.175517 -0.0468513,-0.0223767 -0.0951011,-0.0419563 -0.143351,-0.0587389 -0.0503476,-0.0174818 -0.102793,-0.0321665 -0.158735,-0.0447534 -0.0566411,-0.0132862 -0.114681,-0.023076 -0.174818,-0.0293694 -0.0594382,-0.00629345 -0.121673,-0.00978981 -0.188104,-0.00978981 -0.101395,0 -0.198593,0.00978981 -0.292296,0.0293694 -0.0930032,0.0195796 -0.183209,0.0489491 -0.270618,0.0888076 -0.0902062,0.0405578 -0.179014,0.092304 -0.265024,0.155238 -0.0874091,0.0636338 -0.172021,0.137757 -0.254535,0.223068 -0.0622353,0.0713258 -0.117478,0.146148 -0.165028,0.223767 -0.0475505,0.0776192 -0.0874091,0.159434 -0.119576,0.243347 -0.0321665,0.0853112 -0.0566411,0.17342 -0.0734236,0.265724 -0.0160833,0.092304 -0.0244745,0.188104 -0.0244745,0.2881l0 5.7662c0,0.118876 -0.00909054,0.232158 -0.0265724,0.338448l0 0.000699272c-0.0181811,0.106289 -0.046152,0.206285 -0.0832134,0.299988 -0.0412571,0.102793 -0.0930032,0.195796 -0.155238,0.277611 -0.061536,0.0804163 -0.133561,0.151043 -0.216075,0.21188 -0.0559418,0.0468513 -0.112583,0.0881083 -0.170622,0.124471 -0.0587389,0.0363622 -0.118177,0.0678294 -0.179713,0.0930032 -0.0685287,0.0286702 -0.139155,0.0503476 -0.21118,0.0650323 -0.0720251,0.0146847 -0.14405,0.0223767 -0.216075,0.0223767l-0.0944018 0c-0.0391593,0 -0.0818149,-0.00349636 -0.126568,-0.00978981 -0.0419563,-0.00629345 -0.0874091,-0.015384 -0.136358,-0.0279709 -0.0426556,-0.0111884 -0.084612,-0.0237753 -0.124471,-0.0370614 -0.0405578,-0.0139854 -0.0832134,-0.030768 -0.127967,-0.0489491l-0.00559418 -0.00279709 -0.030768 -0.0146847 -0.00489491 -0.00209782c-0.0706265,-0.0391593 -0.137057,-0.0832134 -0.198593,-0.132862 -0.0622353,-0.0503476 -0.118876,-0.10559 -0.170622,-0.167126 -0.0503476,-0.0580396 -0.0958003,-0.122373 -0.137757,-0.191601 -0.0398585,-0.0678294 -0.0762207,-0.140554 -0.109087,-0.219572l-0.00209782 -0.00419563c-0.0160833,-0.0391593 -0.0293694,-0.0825142 -0.0412571,-0.129365 -0.0111884,-0.0468513 -0.0195796,-0.0958003 -0.0258731,-0.145449 -0.00559418,-0.0419563 -0.00978981,-0.0895069 -0.0125869,-0.141952 -0.00279709,-0.0531447 -0.00419563,-0.10559 -0.00419563,-0.158036l0 -8.4619c0,-0.113981 0.00909054,-0.222369 0.0258731,-0.325861 0.0174818,-0.102793 0.0433549,-0.199293 0.0783185,-0.289499 0.0377607,-0.0985974 0.0860105,-0.187405 0.143351,-0.267122 0.0566411,-0.0776192 0.123072,-0.146847 0.199293,-0.206985 0.0587389,-0.0545433 0.120974,-0.103492 0.186006,-0.144749 0.0657316,-0.0426556 0.13496,-0.0783185 0.206985,-0.107688 0.0762207,-0.030768 0.154539,-0.0531447 0.234956,-0.0685287 0.0811156,-0.015384 0.16293,-0.023076 0.246843,-0.023076 0.0916047,0 0.183209,0.0111884 0.274814,0.0335651 0.0895069,0.0223767 0.178314,0.0552425 0.267122,0.099996 0.0734236,0.0370614 0.144749,0.0804163 0.213278,0.131463 0.0622353,0.0454527 0.123072,0.0964996 0.18251,0.15384l0.000699272 0.000699272 0.000699272 0 0.00139854 0 0.0209782 0 0 -0.000699272 0 0c0.0125869,-0.00419563 0.0279709,-0.00909054 0.0468513,-0.0160833 0.0328658,-0.0118876 0.0713258,-0.0272716 0.114681,-0.046152 0.0440542,-0.0188804 0.0944018,-0.0419563 0.151742,-0.069228l0.00349636 -0.00209782 0.0279709 -0.0118876 0.00559418 -0.00279709c0.121673,-0.0440542 0.244745,-0.0832134 0.368517,-0.116779 0.123072,-0.0342644 0.246144,-0.0622353 0.367817,-0.084612 0.12517,-0.023076 0.24964,-0.0398585 0.372712,-0.0517462 0.126568,-0.0118876 0.248242,-0.0174818 0.36572,-0.0174818 0.237753,0 0.473407,0.0209782 0.706265,0.0629345 0.231459,0.0419563 0.459422,0.104192 0.683189,0.187405 0.222369,0.0832134 0.438444,0.185307 0.649624,0.30768 0.21118,0.122373 0.417466,0.264325 0.618856,0.427255l0.00209782 0.00139854 0.0258731 0.0223767 0.00629345 0.00559418c0.0111884,0.0111884 0.0328658,0.0335651 0.0643331,0.0657316 0.00909054,0.00909054 0.0251738,0.0265724 0.0496483,0.0517462l0.00209782 0 0.0314673 0.0342644 0.0125869 0.0132862 0.248941 0.246144 0.0748222 0.0734236 -0.00489491 0.00489491zm-4.9963 -1.08457l0.0104891 0c0.007692,0 -0.00978981,0 -0.0104891,-0.000699272l0 0.000699272zm-9.94785 8.05142c0.0741229,0 0.148246,0.00629345 0.220271,0.0188804 0.0888076,0.0146847 0.131463,0.00839127 0.216774,0.0440542 0.151742,0.0545433 0.306981,0.0944018 0.465016,0.121673 0.158735,0.0265724 0.321665,0.0405578 0.489491,0.0405578l0.122373 0c0.195097,0 0.385299,-0.0188804 0.569208,-0.0552425 0.184608,-0.0370614 0.363622,-0.0916047 0.537041,-0.164329 0.175517,-0.0741229 0.347538,-0.167126 0.516063,-0.27901 0.168525,-0.112583 0.333553,-0.244745 0.494386,-0.395788l0 0c0.146148,-0.154539 0.274814,-0.31677 0.385998,-0.486694 0.111184,-0.169224 0.204188,-0.345441 0.27831,-0.526552 0.0741229,-0.18251 0.130065,-0.372013 0.167126,-0.56711 0.0370614,-0.195097 0.0552425,-0.398585 0.0552425,-0.609766 0,-0.224466 -0.023076,-0.441241 -0.0685287,-0.648925 -0.046152,-0.207684 -0.11538,-0.409774 -0.207684,-0.604171 -0.092304,-0.194398 -0.207684,-0.383201 -0.346839,-0.565711 -0.139155,-0.181811 -0.299988,-0.356629 -0.483897,-0.525154 -0.11538,-0.0874091 -0.231459,-0.165728 -0.347538,-0.235655 -0.116779,-0.0699272 -0.234956,-0.131463 -0.354531,-0.185307 -0.118177,-0.053844 -0.237053,-0.0992967 -0.356629,-0.136358 -0.118876,-0.0363622 -0.24055,-0.0657316 -0.364321,-0.0874091l-0.0531447 -0.00978981c-0.023076,-0.00279709 -0.046152,-0.00629345 -0.0699272,-0.00978981 -0.0391593,-0.00489491 -0.0783185,-0.00978981 -0.117478,-0.0139854 -0.030768,-0.00279709 -0.0601374,-0.00489491 -0.0888076,-0.00699272 -0.0251738,-0.00139854 -0.0524454,-0.00209782 -0.0811156,-0.00209782l-0.244745 0c-0.125869,0 -0.252437,0.0104891 -0.379006,0.030768 -0.127967,0.0209782 -0.257332,0.0524454 -0.387397,0.0937025l0 0c-0.13426,0.0433549 -0.271318,0.0978981 -0.411172,0.16363 -0.139155,0.0657316 -0.281807,0.143351 -0.427955,0.233557l-0.0111884 0.00699272c-0.131463,0.0888076 -0.254535,0.188104 -0.368517,0.296492 -0.118177,0.112583 -0.226564,0.235655 -0.325861,0.367817 -0.101395,0.136358 -0.192999,0.283205 -0.274814,0.440542 -0.0825142,0.156637 -0.155938,0.325861 -0.220271,0.506973 -0.0209782,0.0776192 -0.0405578,0.155938 -0.0580396,0.235655 -0.0167825,0.0790178 -0.0314673,0.157336 -0.0426556,0.233557l0 0.000699272c-0.0111884,0.0755214 -0.0195796,0.148945 -0.0251738,0.220271 -0.00559418,0.0713258 -0.00839127,0.141952 -0.00839127,0.21118 0,0.0468513 0.000699272,0.0867098 0.00139854,0.118876 0.00139854,0.0356629 0.00349636,0.0748222 0.00629345,0.117478l0 0.00699272 -0.007692 4.59212 0 0.00559418 -0.000699272 0.00489491 0 0 0 0.000699272 0.000699272 0 0 0.230061 0 1.65238c0,0.148945 -0.0139854,0.287401 -0.0419563,0.415368 -0.0279709,0.129365 -0.0706265,0.248941 -0.127967,0.357328 -0.0594382,0.113981 -0.13426,0.213977 -0.223767,0.299988 -0.0874091,0.084612 -0.188804,0.155238 -0.304184,0.212579 -0.0454527,0.0279709 -0.0909054,0.0524454 -0.13496,0.0727243 -0.0475505,0.0216774 -0.0958003,0.0405578 -0.145449,0.0559418 -0.0566411,0.0167825 -0.111884,0.0300687 -0.166427,0.03846 -0.0552425,0.00839127 -0.111184,0.0125869 -0.166427,0.0125869 -0.141952,0 -0.275513,-0.0195796 -0.400683,-0.0587389 -0.126568,-0.0391593 -0.244046,-0.0978981 -0.351734,-0.176217l-0.00909054 -0.007692c-0.16293,-0.150344 -0.276912,-0.301386 -0.354531,-0.453828 -0.0783185,-0.15384 -0.118177,-0.30768 -0.132862,-0.46152l-0.000699272 -0.00978981 0 -7.41648 0.000699272 -0.00699272c0.0699272,-1.03912 0.422361,-2.00062 0.98038,-2.80968 0.563614,-0.818149 1.36498,-1.42722 2.24466,-1.90622 0.0762207,-0.0412571 0.497183,-0.22097 0.592284,-0.253137 0.18251,-0.061536 0.362922,-0.113282 0.541237,-0.155938 0.213278,-0.0503476 0.427255,-0.0888076 0.641932,-0.113981 0.214677,-0.0258731 0.429353,-0.03846 0.643331,-0.03846 0.274115,0 0.546831,0.0202789 0.81675,0.061536 0.26922,0.0412571 0.537041,0.103492 0.803464,0.186006 0.263626,0.0818149 0.524454,0.183909 0.781787,0.306281 0.256633,0.122373 0.511168,0.264325 0.762906,0.427255l0.00139854 0.000699272 0.0111884 0.007692 0.00209782 0.00139854c0.164329,0.116779 0.319568,0.237053 0.465715,0.361524 0.146847,0.123771 0.285303,0.253137 0.415368,0.385998 0.130764,0.133561 0.252437,0.271318 0.36502,0.41327 0.0902062,0.113981 0.175517,0.23076 0.255234,0.351035l0.00209782 -0.000699272 0.0559418 0.0881083c0.152441,0.24055 0.287401,0.485994 0.402781,0.734935 0.116079,0.248941 0.212579,0.500679 0.289499,0.754515 0.0776192,0.256633 0.135659,0.516063 0.174818,0.77899 0.0391593,0.262227 0.0580396,0.527951 0.0580396,0.795073l0 0.0524454c0,0.320966 -0.0265724,0.637037 -0.0797171,0.946815 -0.0531447,0.310477 -0.133561,0.614661 -0.23985,0.912551 -0.104891,0.295093 -0.237053,0.584592 -0.395788,0.867797 -0.157336,0.281108 -0.341944,0.55732 -0.553125,0.827939l-0.000699272 0.00209782 -0.0111884 0.0132862 -0.00279709 0.00209782c-0.113282,0.130065 -0.216774,0.245445 -0.311176,0.34614 -0.0958003,0.103492 -0.185307,0.194398 -0.266423,0.272716 -0.0825142,0.0797171 -0.158735,0.148246 -0.230061,0.205586 -0.0713258,0.0580396 -0.137757,0.10559 -0.197195,0.140554 -0.0964996,0.0734236 -0.194398,0.142652 -0.295093,0.207684 -0.104192,0.0678294 -0.21118,0.132862 -0.321665,0.194398 -0.114681,0.0636338 -0.23076,0.123072 -0.348238,0.178314 -0.119576,0.0566411 -0.241249,0.109087 -0.363622,0.157336l-0.00909054 0.00279709 -0.00909054 0.00279709 0 0c-0.179014,0.0643331 -0.351734,0.120275 -0.517462,0.167825 -0.168525,0.0482498 -0.335651,0.0895069 -0.502078,0.123072 -0.169923,0.0342644 -0.332854,0.0601374 -0.489491,0.07692 -0.160133,0.0174818 -0.313973,0.0265724 -0.460821,0.0265724 -0.27901,0 -0.554523,-0.0188804 -0.825142,-0.0559418 -0.271318,-0.0377607 -0.536342,-0.0930032 -0.795073,-0.167126 -0.0552425,-0.015384 -0.113981,-0.0335651 -0.176916,-0.053844 -0.0636338,-0.0202789 -0.122373,-0.0398585 -0.175517,-0.0587389 -0.244745,-0.128666 -0.455226,-0.251039 -0.620255,-0.484596 -0.148246,-0.210481 -0.235655,-0.467114 -0.235655,-0.744026 0,-0.357328 0.144749,-0.681091 0.379006,-0.914648 0.234256,-0.234256 0.55732,-0.379006 0.914648,-0.379006zm-2.41179 1.96146l0.007692 -4.54177c-0.00279709,-0.0412571 -0.00489491,-0.0853112 -0.00629345,-0.132862 -0.00139854,-0.0531447 -0.00279709,-0.0978981 -0.00279709,-0.135659 0,-0.0916047 0.00419563,-0.183909 0.0111884,-0.276912 0.007692,-0.0916047 0.0181811,-0.183209 0.0314673,-0.274115l0 0c0.0146847,-0.0937025 0.0321665,-0.188104 0.0524454,-0.283205 0.0202789,-0.0958003 0.0447534,-0.191601 0.0713258,-0.2881l0 0 0.00559418 -0.0202789 0.00209782 -0.00629345 0.00699272 -0.0195796c0.0748222,-0.21118 0.16363,-0.417466 0.268521,-0.617458 0.0992967,-0.189503 0.21188,-0.371314 0.339846,-0.542635 0.126568,-0.169224 0.265724,-0.32656 0.416766,-0.47061 0.150344,-0.143351 0.313973,-0.274115 0.489491,-0.391593l0.007692 -0.00559418 0.549628 -0.29789 0.00629345 -0.00279709c0.07692,-0.0356629 0.155238,-0.069228 0.234256,-0.099996 0.0762207,-0.0300687 0.156637,-0.0587389 0.24055,-0.0853112 0.166427,-0.053844 0.335651,-0.0951011 0.507672,-0.122373 0.167126,-0.0272716 0.335651,-0.0412571 0.503476,-0.0412571l0.244745 0c0.0391593,0 0.0818149,0.00139854 0.126568,0.00349636 0.0419563,0.00279709 0.0839127,0.00629345 0.125869,0.0104891 0.046152,0.00489491 0.0944018,0.0104891 0.142652,0.0167825l0 0c0.0433549,0.00629345 0.0909054,0.0132862 0.141253,0.0209782l0.0104891 0.00209782 0.581095 0.151043 0.007692 0.00209782c0.053844,0.0188804 0.108387,0.0391593 0.164329,0.061536 0.0580396,0.023076 0.112583,0.046152 0.16293,0.069228 0.148246,0.0664309 0.292995,0.143351 0.433549,0.227264 0.146847,0.0881083 0.2881,0.183909 0.42306,0.285303l0.0223767 0.0174818 0.00699272 0.00559418 0.0209782 0.0188804 0 0.000699272c0.216075,0.197195 0.415368,0.411871 0.591585,0.64403 0.166427,0.218173 0.311176,0.45173 0.429353,0.70137 0.118177,0.248941 0.206285,0.507672 0.265024,0.772696 0.0601374,0.269919 0.0895069,0.545433 0.0895069,0.824442 0,0.256633 -0.023076,0.511867 -0.0713258,0.762906 -0.046152,0.244745 -0.116079,0.483897 -0.21118,0.716754 -0.0944018,0.232858 -0.21188,0.453129 -0.347538,0.660813 -0.140554,0.213977 -0.302785,0.416766 -0.481799,0.606269l0 0.000699272 -0.0125869 0.0125869 -0.00419563 0.00419563 -0.0125869 0.0118876c-0.188804,0.176916 -0.390893,0.339846 -0.60557,0.482498 -0.20209,0.13426 -0.416766,0.251738 -0.643331,0.346839 -0.225865,0.0951011 -0.456625,0.165728 -0.690881,0.212579 -0.238452,0.0468513 -0.481099,0.0706265 -0.727243,0.0706265l-0.122373 0c-0.10559,0 -0.21118,-0.00419563 -0.31677,-0.0132862 -0.103492,-0.00839127 -0.207684,-0.0216774 -0.311176,-0.0398585l-0.00629345 -0.00139854 -0.582494 -0.139854 -0.0104891 -0.00279709c-0.0265724,-0.00909054 -0.0531447,-0.0160833 -0.0804163,-0.0209782 -0.0272716,-0.00489491 -0.0552425,-0.00699272 -0.0839127,-0.00699272 -0.13496,0 -0.257332,0.0545433 -0.34614,0.143351l0 0c-0.0888076,0.0881083 -0.143351,0.210481 -0.143351,0.34614 0,0.103492 0.0328658,0.20139 0.0895069,0.281807 0.0573403,0.0811156 0.138456,0.144749 0.235655,0.179014l0.302785 0.108387c0.225865,0.0636338 0.453828,0.111184 0.683189,0.142652 0.234256,0.0321665 0.472708,0.0475505 0.713258,0.0475505 0.132862,0 0.265024,-0.00839127 0.395788,-0.023076 0.13496,-0.015384 0.266423,-0.0370614 0.395089,-0.0636338 0.15384,-0.030768 0.30768,-0.069228 0.460121,-0.113981 0.153141,-0.0440542 0.304184,-0.0937025 0.453129,-0.147546l0.0174818 -0.00629345c0.0992967,-0.0398585 0.199293,-0.0832134 0.299289,-0.130764 0.0978981,-0.046152 0.194398,-0.0958003 0.287401,-0.147546 0.0930032,-0.0517462 0.184608,-0.106989 0.274115,-0.165728 0.0881083,-0.0573403 0.17342,-0.116779 0.254535,-0.179014l0.0279709 -0.0209782 0.00978981 -0.00699272 0.0300687 -0.0174818c0.0454527,-0.0272716 0.0944018,-0.0650323 0.141952,-0.10559 0.0496483,-0.0426556 0.0978981,-0.0888076 0.139155,-0.128666 0.0930032,-0.0902062 0.181811,-0.181811 0.267122,-0.274115 0.0832134,-0.0902062 0.168525,-0.186006 0.253137,-0.283205l0 0 0.000699272 -0.000699272 0 0 0.00139854 -0.00209782c0.176916,-0.227264 0.337749,-0.466415 0.479002,-0.718153 0.132862,-0.238452 0.248242,-0.487393 0.340546,-0.746124 0.0916047,-0.255234 0.159434,-0.515364 0.204188,-0.77829 0.046152,-0.265724 0.0685287,-0.536342 0.0685287,-0.810457l0 -0.0524454c0,-0.227963 -0.0167825,-0.454527 -0.0496483,-0.677595 -0.0328658,-0.223068 -0.0825142,-0.444737 -0.148945,-0.66291l0 -0.000699272c-0.0622353,-0.206985 -0.139854,-0.409774 -0.230061,-0.608367 -0.0937025,-0.205586 -0.199992,-0.404879 -0.318169,-0.597878l0 0 -0.0545433 -0.0860105c-0.0804163,-0.127268 -0.168525,-0.25034 -0.263626,-0.369216 -0.0971989,-0.122373 -0.200691,-0.23985 -0.309778,-0.351035 -0.116079,-0.118876 -0.239151,-0.232858 -0.367118,-0.340546 -0.127268,-0.107688 -0.258731,-0.209082 -0.39369,-0.305582l-0.000699272 -0.000699272 0 0.000699272 0 0 0 -0.000699272c-0.214677,-0.137757 -0.436346,-0.262926 -0.665008,-0.372013 -0.218872,-0.104192 -0.444737,-0.193698 -0.676196,-0.265724 -0.225166,-0.0699272 -0.453828,-0.122373 -0.685986,-0.158036 -0.229361,-0.0349636 -0.462219,-0.0531447 -0.696475,-0.0531447 -0.184608,0 -0.367817,0.0111884 -0.548929,0.0328658 -0.184608,0.0216774 -0.368517,0.0552425 -0.551027,0.0978981 -0.120974,0.0293694 -0.23985,0.0622353 -0.35593,0.0985974 -0.106989,0.0335651 -0.21188,0.0699272 -0.314673,0.108387l-0.00209782 0.00699272 -0.0405578 0.0188804 -0.228662 0.10559c-0.798569,0.367817 -1.46777,0.939822 -1.95167,1.63909 -0.482498,0.696475 -0.782486,1.51952 -0.84612,2.39431l0 7.35635c0.00978981,0.0664309 0.0328658,0.12517 0.0650323,0.180412 0.0335651,0.0566411 0.0783185,0.109087 0.129365,0.159434 0.0349636,0.0209782 0.0713258,0.0356629 0.110485,0.0454527 0.0433549,0.0111884 0.0902062,0.015384 0.139854,0.015384 0.0174818,0 0.0335651,-0.000699272 0.0475505,-0.00349636 0.0160833,-0.00209782 0.0321665,-0.00629345 0.0489491,-0.0111884 0.0160833,-0.00489491 0.0321665,-0.0111884 0.0482498,-0.0188804 0.0174818,-0.00839127 0.0335651,-0.0167825 0.0475505,-0.0258731l0.0258731 -0.0167825 0.00978981 -0.00489491 0.0272716 -0.0132862c0.0398585,-0.0195796 0.0734236,-0.0426556 0.102094,-0.0699272 0.0279709,-0.0265724 0.0517462,-0.0587389 0.0720251,-0.0971989 0.0293694,-0.0559418 0.0489491,-0.120275 0.0608367,-0.187405 0.0118876,-0.0699272 0.0160833,-0.141952 0.0160833,-0.21118l0 -1.88244 0.000699272 -0.000699272 0 -0.0181811 0 -0.000699272 0.000699272 -0.0167825zm-67.5882 -10.573c0.148246,0 0.287401,0.0251738 0.416766,0.0748222 0.128666,0.0503476 0.246144,0.124471 0.352433,0.223767 0.092304,0.0867098 0.17342,0.191601 0.243347,0.315372 0.0678294,0.120275 0.12517,0.258032 0.171322,0.41327 0.304184,0.869196 0.578298,1.65378 0.823743,2.35375 0.226564,0.646827 0.443339,1.26359 0.648925,1.84748 0.152441,0.43215 0.272716,0.773395 0.361524,1.02373 0.0524454,0.146148 0.0930032,0.260829 0.123072,0.344042 0.0195796,-0.053844 0.0377607,-0.119576 0.0552425,-0.196496l0.00139854 -0.00489491 0.00978981 -0.0349636 0.00209782 -0.00559418 1.98593 -5.62285 0.00349636 -0.00909054 0.0237753 -0.0503476 0.00419563 -0.007692c0.0587389,-0.103492 0.122373,-0.194398 0.191601,-0.272716l0 0.000699272c0.0713258,-0.0811156 0.147546,-0.149644 0.228662,-0.205586 0.0909054,-0.061536 0.186006,-0.108387 0.286002,-0.139854l0.000699272 0c0.100695,-0.030768 0.205586,-0.0468513 0.313973,-0.0468513l0.0804163 0c0.21118,0 0.405578,0.0594382 0.583193,0.178314l0.00349636 0.00209782c0.0783185,0.0524454 0.152441,0.116779 0.222369,0.1923 0.0699272,0.0755214 0.13426,0.160833 0.193698,0.255934l0.00279709 0.00559418 0.0160833 0.0293694 0.00209782 0.00419563c0.0167825,0.0349636 0.0706265,0.179713 0.161532,0.434248 0.0811156,0.227264 0.209782,0.591585 0.383901,1.09087 0.144749,0.41327 0.337749,0.967793 0.578298,1.65867 0.193698,0.55732 0.481799,1.38806 0.856609,2.46983l0.00629345 0.0146847c0.0286702,0.0895069 0.0559418,0.165728 0.0811156,0.227963 0.00629345,0.0139854 0.0111884,0.0272716 0.0167825,0.0405578l0.00559418 -0.0160833c0.0188804,-0.0524454 0.0370614,-0.116079 0.0552425,-0.1923l0.00209782 -0.00629345 0.00978981 -0.0321665 0.000699272 -0.00349636 1.98663 -5.62285 0.00279709 -0.00839127 0.0188804 -0.0405578 0.00279709 -0.00489491c0.0566411,-0.108387 0.120974,-0.203488 0.192999,-0.285303 0.0734236,-0.0832134 0.155238,-0.15384 0.246843,-0.21188 0.0944018,-0.0601374 0.194398,-0.10559 0.300687,-0.135659 0.106289,-0.0293694 0.218173,-0.0447534 0.33635,-0.0447534 0.120974,0 0.236354,0.0167825 0.345441,0.0503476 0.110485,0.0335651 0.212579,0.0839127 0.306981,0.150344 0.0888076,0.0629345 0.169224,0.139854 0.241249,0.23076 0.0706265,0.0895069 0.132862,0.1923 0.185307,0.30768l0.00209782 0.00419563 0.00978981 0.0244745 0.00139854 0.00419563c0.0139854,0.0377607 0.0251738,0.0727243 0.0335651,0.103492 0.00909054,0.0342644 0.0167825,0.0685287 0.023076,0.102094 0.00559418,0.0321665 0.00978981,0.0678294 0.0132862,0.106289 0.00349636,0.03846 0.00559418,0.0734236 0.00559418,0.104891 0,0.053844 -0.0104891,0.125869 -0.030768,0.216075 -0.0202789,0.0874091 -0.0489491,0.190202 -0.0860105,0.309078 -0.030768,0.0958003 -0.0713258,0.216075 -0.121673,0.359426 -0.046152,0.130764 -0.102793,0.287401 -0.171322,0.47061l-0.00349636 0.00978981 -2.80758 8.02135 -0.000699272 0.00209782 -0.00699272 0.0195796 -0.00209782 0.00419563c-0.0342644,0.0811156 -0.0748222,0.155938 -0.120974,0.224466 -0.046152,0.0685287 -0.0992967,0.132163 -0.158735,0.190202 -0.0587389,0.0573403 -0.123771,0.108387 -0.193698,0.153141 -0.0699272,0.0440542 -0.145449,0.0811156 -0.225865,0.111184l-0.00629345 0.00279709 -0.0405578 0.0118876 -0.00699272 0.00209782 -0.181811 0.0419563 -0.0104891 0.00209782 -0.0706265 0.00839127 -0.0125869 0.000699272 -0.143351 0 -0.0104891 -0.000699272 -0.0580396 -0.00629345 -0.00839127 -0.00139854c-0.0727243,-0.0132862 -0.141952,-0.030768 -0.206985,-0.0517462 -0.0671302,-0.0216774 -0.127967,-0.046152 -0.184608,-0.0734236 -0.0657316,-0.0328658 -0.126568,-0.0706265 -0.180412,-0.112583 -0.0559418,-0.0426556 -0.104891,-0.0902062 -0.147546,-0.141952l-0.00209782 -0.00279709c-0.0111884,-0.0132862 -0.023076,-0.0272716 -0.0342644,-0.0419563l-0.0237753 -0.0286702 0.00139854 -0.00139854c-0.0237753,-0.0335651 -0.0468513,-0.0699272 -0.0699272,-0.110485 -0.0272716,-0.0475505 -0.0545433,-0.100695 -0.0818149,-0.158735l-0.00209782 0.00139854 -0.0391593 -0.0951011c-0.0356629,-0.0839127 -0.0727243,-0.183909 -0.111884,-0.298589 -0.0377607,-0.109087 -0.07692,-0.232158 -0.117478,-0.370614l-1.80832 -5.0977c-0.00629345,0.0160833 -0.0125869,0.0328658 -0.0195796,0.0510469 -0.0244745,0.0685287 -0.0489491,0.154539 -0.0734236,0.257332l-0.00419563 0.0111884 -0.0244745 0.0678294 -0.00489491 0.0111884c-0.00139854,0.00349636 -0.0433549,0.119576 -0.123771,0.348238 -0.0825142,0.23076 -0.202789,0.572704 -0.362223,1.02583 -0.216774,0.613961 -0.426556,1.21114 -0.641233,1.8244 -0.239151,0.681091 -0.504175,1.437 -0.796471,2.27333l-0.00209782 0.00419563 -0.0118876 0.030768 -0.00279709 0.00629345c-0.0356629,0.0748222 -0.0776192,0.144749 -0.127268,0.209782 -0.0496483,0.0643331 -0.106289,0.123771 -0.169224,0.177615 -0.0601374,0.0503476 -0.125869,0.0958003 -0.197894,0.135659 -0.0650323,0.0363622 -0.135659,0.0685287 -0.210481,0.0958003l0.00699272 0.0300687 -0.118177 0 -0.0454527 0.0111884 0 0 -0.0286702 0.00699272 -0.0104891 0.00209782 -0.0790178 0.0104891 -0.0139854 0.00139854 -0.143351 0c-0.0832134,0 -0.165728,-0.0111884 -0.247542,-0.0349636 -0.0804163,-0.0223767 -0.160133,-0.0566411 -0.239151,-0.102094 -0.0685287,-0.0391593 -0.13496,-0.0867098 -0.198593,-0.141253 -0.0636338,-0.0545433 -0.12517,-0.116779 -0.185307,-0.187405l-0.00419563 -0.00489491 -0.0258731 -0.0349636 -0.00419563 -0.00559418c-0.0265724,-0.0412571 -0.0545433,-0.0951011 -0.084612,-0.160133l0 -0.000699272c-0.0286702,-0.0629345 -0.0601374,-0.139854 -0.0944018,-0.230061 -0.030768,-0.0818149 -0.0629345,-0.17272 -0.0978981,-0.272716 -0.0328658,-0.0958003 -0.0706265,-0.209082 -0.112583,-0.337749l-0.00279709 -0.00909054c-0.392292,-1.11324 -0.785982,-2.23138 -1.17268,-3.33273 -0.362922,-1.03352 -0.681791,-1.94118 -0.953108,-2.71737 -0.253137,-0.722348 -0.45173,-1.29156 -0.594382,-1.70483 -0.139854,-0.404179 -0.213977,-0.622353 -0.221669,-0.654519l-0.000699272 -0.00489491 -0.007692 -0.0377607 -0.00139854 -0.00839127c-0.000699272,-0.0111884 -0.00279709,-0.0286702 -0.00489491,-0.0531447 -0.00209782,-0.0237753 -0.00349636,-0.0398585 -0.00419563,-0.0496483 -0.00139854,-0.0160833 -0.00209782,-0.0335651 -0.00279709,-0.0531447 -0.00139854,-0.0209782 -0.00139854,-0.0356629 -0.00139854,-0.0440542 0,-0.245445 0.0622353,-0.459422 0.188104,-0.640534 0.123771,-0.179014 0.306981,-0.323763 0.550327,-0.434947l0 -0.000699272 0.0139854 -0.00629345 0.00419563 -0.00139854c0.0335651,-0.0139854 0.0685287,-0.0258731 0.104891,-0.0363622 0.0363622,-0.0104891 0.0720251,-0.0195796 0.107688,-0.0258731 0.0363622,-0.00699272 0.0727243,-0.0125869 0.109786,-0.0160833 0.0391593,-0.00349636 0.0755214,-0.00559418 0.109786,-0.00559418zm18.7755 0.11538l0.171322 0c0.573403,0 1.13911,0.0985974 1.69783,0.295093 0.553824,0.194398 1.09786,0.484596 1.6321,0.869895l0.0181811 0.015384c0.242648,0.203488 0.446835,0.391593 0.612563,0.563614 0.176916,0.183209 0.31677,0.353133 0.420263,0.50977l-0.000699272 0c0.362922,0.500679 0.637037,1.02653 0.820247,1.57756 0.185307,0.558719 0.27831,1.13842 0.27831,1.73909 0,0.729341 -0.133561,1.42022 -0.401382,2.07474 -0.266423,0.651722 -0.66361,1.26079 -1.19016,1.8279l-0.0132862 0.0132862c-0.281108,0.266423 -0.55732,0.493686 -0.827939,0.681091 -0.275513,0.190901 -0.544034,0.339846 -0.804163,0.445437 -0.380404,0.170622 -0.755914,0.298589 -1.12793,0.385299 -0.378306,0.0874091 -0.74962,0.131463 -1.11394,0.131463l-0.171322 0c-0.581795,0 -1.1538,-0.0985974 -1.71462,-0.296492 -0.555222,-0.196496 -1.09786,-0.489491 -1.62861,-0.880384l-0.0132862 -0.0111884c-0.196496,-0.161532 -0.372013,-0.320267 -0.525154,-0.475505 -0.155238,-0.157336 -0.290897,-0.312575 -0.405578,-0.467114 -0.395788,-0.511867 -0.693678,-1.0552 -0.892272,-1.6293 -0.199992,-0.576201 -0.299289,-1.17967 -0.299289,-1.80972 0,-0.685287 0.119576,-1.33981 0.360125,-1.96356 0.239151,-0.620954 0.59578,-1.20625 1.06989,-1.75587l0.0139854 -0.0146847c0.239151,-0.242648 0.444737,-0.438444 0.618157,-0.587389 0.17272,-0.148246 0.319568,-0.254535 0.442639,-0.319568 0.479701,-0.303484 0.966395,-0.532846 1.46218,-0.685986 0.499281,-0.155238 1.00276,-0.232858 1.51183,-0.232858zm-3.06631 5.5704l0 0.0699272c0,0.398585 0.0783185,0.781087 0.235655,1.14681 0.158735,0.368517 0.397187,0.721649 0.716055,1.0601 0.331455,0.290897 0.674099,0.50907 1.02793,0.65382 0.351734,0.14405 0.719551,0.216075 1.10415,0.216075l0.132862 0c0.427255,0 0.831435,-0.0860105 1.21114,-0.258032 0.381104,-0.17272 0.741928,-0.43215 1.08247,-0.779689 0.267122,-0.324462 0.466415,-0.656617 0.598577,-0.995764 0.130065,-0.33635 0.195097,-0.683888 0.195097,-1.04331l0 -0.0699272c0,-0.448234 -0.0804163,-0.863602 -0.242648,-1.2454 -0.161532,-0.381803 -0.406277,-0.735635 -0.734236,-1.0608 -0.181112,-0.159434 -0.363622,-0.295792 -0.548929,-0.409074 -0.183209,-0.112583 -0.368517,-0.20139 -0.555922,-0.267821 -0.177615,-0.0580396 -0.350336,-0.101395 -0.515364,-0.131463 -0.162231,-0.0286702 -0.315372,-0.0426556 -0.458723,-0.0426556l-0.1923 0c-0.255934,0 -0.516063,0.0398585 -0.779689,0.119576 -0.272716,0.0818149 -0.546831,0.204887 -0.823044,0.366419l0 0.000699272c-0.0874091,0.0524454 -0.188104,0.127268 -0.302086,0.224466 -0.117478,0.101395 -0.247542,0.224466 -0.389495,0.369216 -0.167825,0.21188 -0.302086,0.409074 -0.40348,0.591585 -0.0985974,0.178314 -0.166427,0.343343 -0.203488,0.493686l-0.0111884 0.0370614c-0.0475505,0.12517 -0.0832134,0.266423 -0.106989,0.421661 -0.0244745,0.161532 -0.0363622,0.339147 -0.0363622,0.532846zm16.4196 -4.16207c0.229361,0.223767 0.371314,0.536342 0.371314,0.881783 0,0.680392 -0.551726,1.23212 -1.23212,1.23212 -0.339147,0 -0.646827,-0.137057 -0.869196,-0.359426l-0.00489491 0.00419563 -0.0335651 -0.0440542c-0.0419563,-0.046152 -0.0811156,-0.0951011 -0.116079,-0.147546 -0.123771,-0.150344 -0.261528,-0.290897 -0.456625,-0.406277 -0.104891,-0.0503476 -0.214677,-0.0881083 -0.330057,-0.114681 -0.121673,-0.0279709 -0.25034,-0.0412571 -0.385998,-0.0412571 -0.216075,0 -0.418165,0.0419563 -0.606269,0.127268 -0.194398,0.0874091 -0.378306,0.22097 -0.552425,0.401382l0 0c-0.135659,0.154539 -0.237753,0.322365 -0.306981,0.502078 -0.069228,0.18251 -0.104192,0.379705 -0.104192,0.591585l0 5.7655c0,0.228662 -0.0342644,0.428654 -0.102793,0.600675 -0.0741229,0.188104 -0.188104,0.337049 -0.340546,0.446835 -0.103492,0.0881083 -0.21188,0.155938 -0.323763,0.20209 -0.125869,0.0524454 -0.255234,0.0790178 -0.386698,0.0790178l-0.0944018 0c-0.0706265,0 -0.149644,-0.0111884 -0.237753,-0.0342644 -0.0755214,-0.0195796 -0.155238,-0.0468513 -0.238452,-0.0811156l-0.030768 -0.0146847c-0.130065,-0.0713258 -0.244046,-0.16293 -0.339846,-0.276213 -0.0930032,-0.108387 -0.169224,-0.236354 -0.230061,-0.3846l-0.00139854 -0.00139854c-0.0279709,-0.0706265 -0.0482498,-0.15384 -0.0601374,-0.248941 -0.0104891,-0.0832134 -0.015384,-0.179014 -0.015384,-0.287401l0 -8.4619c0,-0.217474 0.0321665,-0.410473 0.0964996,-0.577599 0.069228,-0.179014 0.17342,-0.323763 0.313973,-0.43285 0.110485,-0.102793 0.231459,-0.180412 0.363622,-0.233557 0.139155,-0.0566411 0.286002,-0.084612 0.442639,-0.084612 0.167126,0 0.332154,0.0405578 0.495085,0.122373 0.13426,0.0678294 0.263626,0.162231 0.387397,0.284604 0.00699272,0.00279709 0.0146847,0.00489491 0.0223767,0.007692 0.0125869,0.00349636 0.0244745,0.00489491 0.0356629,0.00489491l0.0314673 0c0.00489491,0 0.0279709,-0.007692 0.0713258,-0.023076 0.069228,-0.0251738 0.160833,-0.0643331 0.276213,-0.119576l0.0279709 -0.0125869c0.24055,-0.0874091 0.4804,-0.153141 0.719551,-0.196496 0.244745,-0.0454527 0.485295,-0.0678294 0.719551,-0.0678294 0.465715,0 0.916746,0.0811156 1.35309,0.244046 0.431451,0.160833 0.844022,0.399984 1.23911,0.718153l0.0251738 0.0216774c0.0356629,0.0356629 0.0839127,0.0853112 0.14405,0.148945l0.00139854 0 0.0125869 0.0139854 0.252437 0.248941 -0.00209782 0.00209782zm2.31809 -3.55091c0.187405,0 0.363622,0.0440542 0.529349,0.131463 0.158036,0.0832134 0.301386,0.203488 0.430752,0.361524l0.0111884 0.0160833c0.0783185,0.109087 0.136358,0.236354 0.17342,0.381803 0.0335651,0.133561 0.0510469,0.283205 0.0510469,0.448234l0 4.60121c0,0.140554 0.0314673,0.254535 0.0951011,0.342644 0.0650323,0.0888076 0.166427,0.160833 0.305582,0.216075 0.0237753,0.00629345 0.0454527,0.0111884 0.0643331,0.0139854 0.0195796,0.00279709 0.0426556,0.00419563 0.0699272,0.00419563l0.0699272 0c0.0790178,0 0.166427,-0.0321665 0.260829,-0.0951011 0.120275,-0.0804163 0.248242,-0.206985 0.383901,-0.379006l0.0195796 -0.0223767c1.10975,-1.17128 1.94957,-2.05586 2.51808,-2.65304 0.5769,-0.606969 0.88458,-0.925837 0.923739,-0.958003l0.0405578 -0.0279709c0.119576,-0.069228 0.232858,-0.122373 0.340546,-0.158036l0.000699272 0.00139854c0.122373,-0.0405578 0.237753,-0.061536 0.347538,-0.061536 0.232858,0 0.443339,0.0622353 0.631443,0.186006 0.177615,0.116779 0.327959,0.286002 0.453129,0.506973l0.0244745 0.0552425c0.0300687,0.0902062 0.0531447,0.169224 0.0685287,0.237053 0.0188804,0.084612 0.0286702,0.158735 0.0286702,0.22097 0,0.174818 -0.0433549,0.346839 -0.130065,0.515364 -0.0776192,0.153141 -0.190901,0.299988 -0.337749,0.44194 -0.953108,1.00905 -1.69014,1.78944 -2.2104,2.34047 -0.474107,0.502078 -0.765703,0.810457 -0.888775,0.939822 -0.0328658,0.0454527 -0.0580396,0.092304 -0.0741229,0.141253 -0.0174818,0.0524454 -0.0265724,0.113282 -0.0265724,0.181112l0 0.0489491c0,0.061536 0.015384,0.123072 0.046152,0.185307 0.0356629,0.0741229 0.0909054,0.148246 0.164329,0.224466 0.987373,0.927935 1.74119,1.63909 2.26215,2.13418 0.522357,0.496483 0.805562,0.771997 0.850315,0.827939l0.0195796 0.0258731c0.0720251,0.113282 0.126568,0.227264 0.164329,0.340546l0 0.00139854c0.0398585,0.120974 0.0594382,0.24055 0.0594382,0.358028 0,0.23076 -0.0622353,0.438444 -0.186006,0.62515 -0.116079,0.174119 -0.285303,0.323763 -0.506273,0.448234l-0.0552425 0.0251738c-0.0895069,0.0293694 -0.170622,0.0524454 -0.241249,0.0685287 -0.0853112,0.0188804 -0.158036,0.0286702 -0.217474,0.0286702 -0.203488,0 -0.407676,-0.061536 -0.611863,-0.183909 -0.177615,-0.106289 -0.35593,-0.260829 -0.534244,-0.462219l-3.03135 -2.84884c-0.00629345,-0.00209782 -0.0118876,-0.00349636 -0.0174818,-0.00489491 -0.00909054,-0.00279709 -0.0174818,-0.00349636 -0.0251738,-0.00349636l-0.0419563 0c-0.00978981,0 -0.0335651,0.0146847 -0.0727243,0.0433549 -0.0720251,0.0545433 -0.156637,0.143351 -0.254535,0.267122l-0.0237753 0.0272716c-0.271318,0.272017 -0.469212,0.477603 -0.592284,0.618856 -0.0818149,0.0937025 -0.123072,0.0426556 -0.123072,0.0818149l-0.00349636 0.0482498c-0.00279709,0.0167825 -0.00489491,0.030768 -0.00559418,0.0419563 -0.000699272,0.0111884 -0.00139854,0.0223767 -0.00139854,0.0321665l0 1.00346c0,0.313274 -0.0664309,0.575501 -0.199293,0.78808 -0.139854,0.224466 -0.345441,0.383901 -0.616059,0.4804l-0.0132862 0.00489491c-0.0636338,0.0188804 -0.127967,0.0342644 -0.1923,0.046152 -0.0713258,0.0132862 -0.133561,0.0195796 -0.185307,0.0195796 -0.183909,0 -0.360125,-0.0440542 -0.526552,-0.131463 -0.155238,-0.0818149 -0.299289,-0.20209 -0.431451,-0.360125l-0.0132862 -0.0174818c-0.0783185,-0.109087 -0.136358,-0.236354 -0.17342,-0.381803 -0.0342644,-0.132862 -0.0510469,-0.282506 -0.0510469,-0.448234l0 -10.594c0,-0.312575 0.0664309,-0.576201 0.199293,-0.790178 0.139854,-0.224466 0.344741,-0.3846 0.61536,-0.481099l0.0223767 -0.00629345c0.0734236,-0.0202789 0.136358,-0.0349636 0.186006,-0.0440542l0.00139854 0c0.0664309,-0.0111884 0.126568,-0.0174818 0.181811,-0.0174818zm13.3729 2.14257c0.769899,0 1.49435,0.146148 2.17264,0.438444 0.676196,0.290897 1.30344,0.725146 1.88174,1.30414l0.00978981 0.0125869c0.21118,0.232858 0.371314,0.439842 0.481099,0.620255 0.130764,0.214677 0.195796,0.404879 0.195796,0.572704l0 0.0342644 0 0 0.000699272 0.00209782 0.00978981 0.0755214c0,0.155938 -0.0356629,0.308379 -0.10559,0.457324 -0.0643331,0.135659 -0.157336,0.267122 -0.27901,0.395089l-0.0342644 0.030768c-0.0657316,0.0510469 -0.572005,0.415368 -1.51742,1.09017 -0.840526,0.599976 -2.03139,1.44819 -3.57398,2.54395l-0.00699272 -0.00978981c-0.0524454,0.0517462 -0.118876,0.106989 -0.199293,0.165728 -0.102793,0.0748222 -0.301386,0.217474 -0.588787,0.42306 -0.00978981,0.0132862 -0.0167825,0.0251738 -0.0216774,0.0370614 -0.00349636,0.007692 -0.00489491,0.0146847 -0.00489491,0.0202789l0 0.0594382c0,0.00489491 0.00139854,0.00978981 0.00419563,0.0139854 0.0104891,0.0167825 0.0286702,0.0342644 0.053844,0.0524454 0.251039,0.125869 0.494386,0.220271 0.73074,0.283905 0.232858,0.0622353 0.459422,0.0937025 0.679693,0.0937025l0.202789 0c0.354531,0 0.699272,-0.0664309 1.03422,-0.197894 0.337049,-0.133561 0.667106,-0.334252 0.99017,-0.602773 0.176217,-0.178314 0.316071,-0.332154 0.419563,-0.460121 0.0944018,-0.116779 0.153141,-0.204188 0.176916,-0.262926l0.0251738 -0.0475505c0.0503476,-0.0818149 0.099996,-0.178314 0.148945,-0.290897 0.0496483,-0.111884 0.0992967,-0.245445 0.151043,-0.400683 0.0377607,-0.174119 0.0825142,-0.325861 0.135659,-0.455226 0.061536,-0.151043 0.137057,-0.274115 0.225865,-0.367817l0.0167825 -0.0181811c0.128666,-0.11538 0.25943,-0.202789 0.39439,-0.262227 0.144749,-0.0636338 0.291597,-0.0951011 0.44194,-0.0951011 0.268521,0 0.501378,0.0678294 0.697874,0.202789 0.193698,0.133561 0.341245,0.325861 0.443339,0.577599l-0.000699272 0c0.0251738,0.0601374 0.0447534,0.123771 0.0566411,0.189503 0.0132862,0.0685287 0.0195796,0.137057 0.0195796,0.204887l0 0.0314673 -0.00139854 0.00699272c-0.00419563,0.161532 -0.0412571,0.363622 -0.112583,0.606969 -0.0671302,0.227963 -0.164329,0.497183 -0.291597,0.805562l-0.00209782 0.00629345c-0.07692,0.176217 -0.179014,0.36502 -0.306281,0.568509 -0.127967,0.204188 -0.274814,0.412571 -0.439842,0.62515l-0.0111884 0.0125869c-0.176916,0.203488 -0.343343,0.381104 -0.500679,0.530748 -0.159434,0.151742 -0.310477,0.277611 -0.454527,0.377607l0.000699272 0.000699272c-0.229361,0.165728 -0.448234,0.308379 -0.656617,0.427255 -0.213977,0.120974 -0.41327,0.215376 -0.599277,0.281807 -0.338448,0.137057 -0.673399,0.24055 -1.00485,0.310477 -0.337749,0.0713258 -0.666407,0.106989 -0.986673,0.106989l-0.160833 0c-0.560117,0 -1.11184,-0.0902062 -1.65518,-0.270618 -0.53844,-0.179014 -1.06359,-0.445437 -1.57546,-0.799968l-0.0139854 -0.00978981c-0.246843,-0.190202 -0.472708,-0.388796 -0.676196,-0.595081 -0.205586,-0.207684 -0.388096,-0.424458 -0.54823,-0.649624l-0.00489491 -0.00699272c-0.113981,-0.171322 -0.218173,-0.338448 -0.312575,-0.501378 -0.0958003,-0.166427 -0.176916,-0.320966 -0.243347,-0.465016l-0.00629345 -0.0146847c-0.157336,-0.389495 -0.275513,-0.7692 -0.354531,-1.13772 -0.0797171,-0.374111 -0.120275,-0.737033 -0.120275,-1.08737 0,-0.665008 0.111184,-1.30135 0.332154,-1.90901 0.22097,-0.60557 0.551027,-1.17967 0.990869,-1.72301l0.0160833 -0.0181811c0.193698,-0.203488 0.366419,-0.376209 0.518161,-0.516762 0.149644,-0.138456 0.274814,-0.241249 0.37481,-0.30768l0 0c0.50907,-0.369915 1.04331,-0.648226 1.60063,-0.834931 0.560117,-0.187405 1.13911,-0.281807 1.73769,-0.281807zm-3.15722 5.54943c0,0.221669 0.0118876,0.390893 0.0363622,0.50907 0.0132862,0.0629345 0.00839127,0.0860105 0.0125869,0.0895069l0.0286702 0.0244745c0.0111884,0.0111884 0.0237753,0.0188804 0.0377607,0.0237753 0.0181811,0.00699272 0.0426556,0.0104891 0.0734236,0.0104891 0.00629345,0 0.0118876,-0.0132862 0.0559418,-0.0398585l0 -0.00139854c0.084612,-0.0510469 0.190901,-0.129365 0.319568,-0.233557l0.0713258 -0.0433549c0.00279709,-0.00139854 0.380404,-0.271318 1.1538,-0.820946 0.679693,-0.482498 1.64539,-1.17058 2.89709,-2.06425 0.015384,-0.015384 0.0265724,-0.0300687 0.0328658,-0.0426556 0.00489491,-0.0111884 0.007692,-0.0265724 0.007692,-0.0440542l0 -0.0601374c0,-0.00489491 -0.000699272,-0.00839127 -0.00209782,-0.0111884 -0.00909054,-0.0139854 -0.0251738,-0.0300687 -0.0489491,-0.0475505 -0.253137,-0.129365 -0.495784,-0.225865 -0.727943,-0.289499 -0.231459,-0.0636338 -0.457324,-0.0951011 -0.678994,-0.0951011l-0.202789 0c-0.360125,0 -0.711859,0.069228 -1.0559,0.209082 -0.347538,0.141253 -0.687385,0.351035 -1.01814,0.630045 -0.332854,0.338448 -0.581095,0.699272 -0.746124,1.08177 -0.164329,0.381104 -0.246144,0.786682 -0.246144,1.21534zm11.5135 -0.0419563l0 0.11538c0,0.420962 0.0839127,0.820247 0.251039,1.19715 0.168525,0.377607 0.421661,0.737033 0.760808,1.07688 0.32656,0.275513 0.660813,0.481099 1.00136,0.618157 0.33635,0.13426 0.683189,0.20209 1.03982,0.20209l0.185307 0c0.693678,0 1.35449,-0.255934 1.98034,-0.767102 0.146847,-0.137057 0.26922,-0.260129 0.36572,-0.370614 0.092304,-0.10559 0.16293,-0.199293 0.210481,-0.281807l0.00489491 -0.007692c0.168525,-0.272716 0.295093,-0.549628 0.380404,-0.830036 0.0825142,-0.275513 0.124471,-0.554523 0.124471,-0.837029l0 -0.11538c0,-0.417466 -0.0839127,-0.814652 -0.251039,-1.18946 -0.168525,-0.376908 -0.422361,-0.735635 -0.762207,-1.07618 -0.327959,-0.27831 -0.662211,-0.485994 -1.00416,-0.62445 -0.338448,-0.136358 -0.688084,-0.204188 -1.04891,-0.204188l-0.185307 0c-0.685287,0 -1.3468,0.255934 -1.98384,0.7692 -0.136358,0.132163 -0.252437,0.254535 -0.348238,0.367118 -0.0909054,0.106989 -0.160833,0.203488 -0.209082,0.289499l-0.00839127 0.0139854c-0.169923,0.26922 -0.296492,0.541936 -0.379705,0.81675 -0.0825142,0.272017 -0.123771,0.551726 -0.123771,0.837728z"/>
 </g>
</svg>
